<svg width="532" height="530" viewBox="0 0 532 530" fill="none" xmlns="http://www.w3.org/2000/svg">
<g clip-path="url(#clip0_31_370)">
<g opacity="0.3">
<path d="M451.606 348.115C448.152 351.556 442.558 351.556 439.111 348.115L355.679 264.997L439.111 181.879C442.565 178.438 448.159 178.438 451.606 181.879L528.793 258.776C532.247 262.217 532.247 267.79 528.793 271.225L451.613 348.115H451.606Z" stroke="#00A1E0" stroke-width="1.91" stroke-miterlimit="10"/>
<path d="M86.6447 175.658L259.752 3.19484C263.206 -0.24626 268.8 -0.24626 272.248 3.19484L349.428 80.0849C352.882 83.526 352.882 89.0991 349.428 92.5337L265.997 175.651L349.428 258.769C352.882 262.21 352.882 267.783 349.428 271.218L265.997 354.336L349.428 437.453C352.882 440.894 352.882 446.468 349.428 449.902L272.248 526.792C268.794 530.233 263.2 530.233 259.752 526.792L86.6447 354.336L3.21341 271.218C-0.240674 267.777 -0.240674 262.204 3.21341 258.769L86.6447 175.651V175.658Z" stroke="#00A1E0" stroke-width="1.91" stroke-miterlimit="10"/>
</g>
</g>
<defs>
<clipPath id="clip0_31_370">
<rect width="532" height="530" fill="white" transform="matrix(-1 0 0 1 532 0)"/>
</clipPath>
</defs>
</svg>