<?xml version="1.0" encoding="UTF-8"?>
<!-- Generator: Adobe Illustrator 24.1.2, SVG Export Plug-In . SVG Version: 6.00 Build 0)  -->
<svg version="1.1" id="Capa_1" xmlns="http://www.w3.org/2000/svg" xmlns:xlink="http://www.w3.org/1999/xlink" x="0px" y="0px" width="280px" height="78.065px" viewBox="0 0 280 78.065" style="enable-background:new 0 0 280 78.065;" xml:space="preserve">
<style type="text/css">
	.st0{fill:#96D701;}
	.st1{fill:#001028;}
	.st2{fill:#0067D3;}
	.st3{fill:#FFFFFF;}
	.st4{fill:#00A1E0;}
	.st5{opacity:0.8;}
	.st6{opacity:0.2;fill:#96D701;}
	.st7{opacity:0.3;fill:#96D701;}
	.st8{opacity:0.5;fill:#96D701;}
	.st9{opacity:0.7;fill:#96D701;}
	.st10{opacity:0.8;fill:#96D701;}
	.st11{opacity:0.2;fill:#001028;}
	.st12{opacity:0.3;fill:#001028;}
	.st13{opacity:0.5;fill:#001028;}
	.st14{opacity:0.7;fill:#001028;}
	.st15{opacity:0.8;fill:#001028;}
	.st16{opacity:0.2;fill:#E4002B;}
	.st17{opacity:0.3;fill:#E4002B;}
	.st18{opacity:0.5;fill:#E4002B;}
	.st19{opacity:0.7;fill:#E4002B;}
	.st20{opacity:0.8;fill:#E4002B;}
	.st21{fill:#E4002B;}
	.st22{opacity:0.2;fill:#E28600;}
	.st23{opacity:0.3;fill:#E28600;}
	.st24{opacity:0.5;fill:#E28600;}
	.st25{opacity:0.7;fill:#E28600;}
	.st26{opacity:0.8;fill:#E28600;}
	.st27{fill:#E28600;}
	.st28{opacity:0.2;fill:#EAD300;}
	.st29{opacity:0.3;fill:#EAD300;}
	.st30{opacity:0.5;fill:#EAD300;}
	.st31{opacity:0.7;fill:#EAD300;}
	.st32{opacity:0.8;fill:#EAD300;}
	.st33{fill:#EAD300;}
	.st34{fill:none;stroke:#001028;stroke-width:2;stroke-miterlimit:10;}
	.st35{fill:none;}
	.st36{fill:none;stroke:#96D701;stroke-width:2;stroke-miterlimit:10;}
	.st37{fill:none;stroke:#E4002B;stroke-width:2;stroke-miterlimit:10;}
	.st38{fill:none;stroke:#EAD300;stroke-width:2;stroke-miterlimit:10;}
	.st39{fill:none;stroke:#FFFFFF;stroke-width:2;stroke-miterlimit:10;}
	.st40{fill:#00A1E0;stroke:#00A1E0;stroke-width:2;stroke-miterlimit:10;}
	.st41{fill:#E4002B;stroke:#E4002B;stroke-width:2;stroke-miterlimit:10;}
	.st42{clip-path:url(#SVGID_2_);fill:none;stroke:#FFFFFF;stroke-width:0.8679;stroke-miterlimit:10;}
	.st43{clip-path:url(#SVGID_2_);}
	.st44{clip-path:url(#SVGID_2_);fill:#001028;}
	.st45{clip-path:url(#SVGID_2_);fill:none;}
	.st46{fill:none;stroke:#FFFFFF;stroke-miterlimit:10;}
</style>
<g>
	<g>
		<path class="st3" d="M33.11,52.503c-1.709,3.703-7.192,6.408-12.745,6.408C7.904,58.912,0,50.225,0,37.052    c0-13.101,7.904-21.788,20.364-21.788c5.483,0,10.965,2.634,12.745,6.479V0.743h10.182v57.742H33.11V52.503z M21.646,48.73    c6.836,0,11.535-4.699,11.464-11.606c0-6.836-4.771-11.749-11.464-11.749c-6.907,0-11.464,4.628-11.464,11.677    C10.182,44.102,14.811,48.73,21.646,48.73z"/>
		<path class="st3" d="M50.484,58.485V15.763h10.111v42.722H50.484z M51.152,10.914l3.177-9.739h8.731l-2.999,9.739H51.152z"/>
		<path class="st3" d="M99.97,52.503c-1.709,3.703-7.192,6.408-12.603,6.408c-12.318,0-20.364-8.687-20.364-21.859    c0-13.101,8.046-21.788,20.364-21.788c5.411,0,10.894,2.706,12.603,6.479v-5.981h10.182v40.444    c0,13.172-8.26,21.859-20.649,21.859c-10.538,0-18.228-6.194-20.293-16.305h10.681c1.709,3.987,5.269,6.194,9.612,6.194    c6.266,0,10.467-4.628,10.467-11.748V52.503z M88.649,48.73c6.693,0,11.393-4.699,11.322-11.606    c0-6.764-4.771-11.749-11.322-11.749c-6.764,0-11.464,4.628-11.464,11.677C77.185,44.102,81.885,48.73,88.649,48.73z"/>
		<path class="st3" d="M122.329,0c3.531,0,5.822,2.333,5.767,5.893c-0.049,3.161-2.696,5.748-5.857,5.712    c-3.507-0.04-5.677-2.379-5.677-5.838C116.562,2.279,118.769,0,122.329,0z M117.274,58.485V15.763h10.182v42.722H117.274z"/>
		<path class="st3" d="M149.671,6.72v9.043h8.545v9.613h-8.545v17.587c0,3.703,1.851,5.483,5.839,5.483h2.706v10.04h-3.631    c-10.609,0-15.095-4.201-15.095-14.953V25.375h-5.91v-9.613h5.91l2.492-9.043H149.671z"/>
		<path class="st3" d="M182.924,15.264c11.891,0,21.005,9.47,21.005,21.788c0,12.39-9.114,21.859-21.005,21.859    c-11.891,0-21.147-9.47-21.147-21.859C161.777,24.734,171.033,15.264,182.924,15.264z M171.959,37.052    c0,6.693,4.771,11.677,10.965,11.677c6.195,0,10.894-4.984,10.894-11.677c0-6.622-4.699-11.677-10.894-11.677    C176.729,25.375,171.959,30.431,171.959,37.052z"/>
	</g>
	<g>
		<path class="st4" d="M222.563,47.66c0.647,0.647,1.695,0.647,2.342,0l10.219-10.219v0l-10.219-10.219    c-0.647-0.647-1.695-0.647-2.342,0l-9.048,9.048c-0.647,0.647-0.647,1.695,0,2.342L222.563,47.66z"/>
		<path class="st4" d="M269.296,26.05l-21.61-21.61c-0.647-0.647-1.695-0.647-2.342,0l-9.048,9.048    c-0.647,0.647-0.647,1.695,0,2.342l10.219,10.219l-11.39,11.39l11.39,11.39L236.296,59.05c-0.647,0.647-0.647,1.695,0,2.342    l9.048,9.048c0.647,0.647,1.695,0.647,2.342,0l21.61-21.61l10.219-10.219c0.647-0.647,0.647-1.695,0-2.342L269.296,26.05z"/>
	</g>
</g>
</svg>