<svg xmlns="http://www.w3.org/2000/svg" width="155" height="192" viewBox="0 0 155 192" fill="none"><g clip-path="url(#clip0_700_2)"><path d="M121.748 116.298C121.748 131.2 106.864 166 88.4955 166C70.1269 166 55.2432 131.2 55.2432 116.298C55.2432 96.2624 70.1269 89.3264 88.4955 89.3264C106.864 89.3264 121.748 97.4298 121.748 116.298Z" fill="#E4EBF2"/><path d="M88.4955 108.469C99.5409 108.469 108.495 104.38 108.495 99.3357C108.495 94.2914 99.5409 90.2021 88.4955 90.2021C77.4501 90.2021 68.4961 94.2914 68.4961 99.3357C68.4961 104.38 77.4501 108.469 88.4955 108.469Z" fill="#2B2827"/><path d="M88.5942 99.8525C110.979 96.5866 127.202 80.7503 124.828 64.4812C122.455 48.212 102.385 37.6707 80 40.9365C57.6152 44.2024 41.3926 60.0386 43.7659 76.3078C46.1391 92.577 66.2094 103.118 88.5942 99.8525Z" fill="#E4EBF2"/><mask id="mask0_700_2" style="mask-type:luminance" maskUnits="userSpaceOnUse" x="33" y="45" width="113" height="67"><path d="M137.792 45.7623L33.9834 60.9075L41.3162 111.176L145.124 96.0311L137.792 45.7623Z" fill="white"/></mask><g mask="url(#mask0_700_2)"><path d="M87.0364 89.3223C106.513 86.4807 120.846 74.1982 119.05 61.8884C117.255 49.5786 100.01 41.9031 80.5338 44.7446C61.0573 47.5861 46.7242 59.8687 48.5199 72.1785C50.3155 84.4883 67.56 92.1638 87.0364 89.3223Z" fill="#00A1E0"/></g><path d="M72.1521 76.6391C75.4653 76.1584 77.697 72.7076 77.1476 68.9477C76.5983 65.1879 73.4739 62.5268 70.1607 63.0075C66.8475 63.4882 64.6158 66.9391 65.1651 70.6989C65.7145 74.4588 68.8388 77.1198 72.1521 76.6391Z" fill="#2B2827"/><path d="M70.3493 75.2142C69.5253 75.3343 68.77 74.7678 68.6498 73.9437L68.1176 70.2697C67.9975 69.4456 68.564 68.6902 69.388 68.57C70.212 68.4499 70.9673 69.0164 71.0875 69.8405L71.6197 73.5145C71.7399 74.3386 71.1733 75.094 70.3493 75.2142Z" fill="#E4EBF2"/><path d="M103.345 65.0334C102.796 61.2736 99.6712 58.6125 96.358 59.0932C93.0448 59.5739 90.8131 63.0248 91.3624 66.7846C91.9117 70.5445 95.0361 73.2055 98.3493 72.7248C101.663 72.2441 103.894 68.7933 103.345 65.0334Z" fill="#2B2827"/><path d="M96.2546 70.3555C97.0786 70.2353 97.6451 69.4799 97.525 68.6558L96.9928 64.9818C96.8726 64.1578 96.1173 63.5912 95.2933 63.7114C94.4692 63.8316 93.9027 64.587 94.0229 65.411L94.5551 69.0851C94.6753 69.9091 95.4306 70.4757 96.2546 70.3555Z" fill="#E4EBF2"/><path d="M79.9288 45.3929C79.9288 45.3929 79.9632 45.3929 79.9803 45.3929C80.3237 45.4788 80.667 45.2899 80.7528 44.9637C80.8215 44.7062 82.418 38.6802 75.4139 30.405C75.1908 30.1304 74.7959 30.1132 74.5212 30.3364C74.2466 30.5596 74.2294 30.9544 74.4526 31.2291C80.9932 38.9548 79.5511 44.586 79.534 44.6375C79.4481 44.9466 79.6198 45.2899 79.9288 45.3929Z" fill="#2B2827"/><path d="M70.075 32.3623C66.5558 31.8472 64.1181 28.5681 64.6331 25.0486C65.1481 21.5291 68.4098 19.0912 71.9291 19.6063C75.4483 20.1213 77.886 23.4005 77.371 26.92C76.856 30.4394 73.5942 32.8773 70.075 32.3623Z" fill="#00A1E0"/><path d="M63.7841 112.557C64.9353 106.463 63.2102 101.022 59.9309 100.402C56.6516 99.7822 53.06 104.219 51.9087 110.313C50.7575 116.406 52.4826 121.848 55.7619 122.467C59.0412 123.087 62.6329 118.65 63.7841 112.557Z" fill="#00A1E0"/><path d="M120.79 121.177C124.07 120.558 125.795 115.116 124.643 109.022C123.492 102.929 119.901 98.4919 116.621 99.1116C113.342 99.7313 111.617 105.173 112.768 111.266C113.919 117.36 117.511 121.797 120.79 121.177Z" fill="#00A1E0"/><path d="M125.147 111.027C125.147 111.027 119.997 115.525 116.786 110.752C112.992 105.087 118.366 100.623 118.366 100.623L118.28 100.675C118.28 100.675 123.499 96.9319 128.305 86.4421C132.837 76.536 137.936 58.475 136.46 28.7396C136.288 25.3231 138.932 22.4045 142.348 22.2328C145.781 22.0783 148.682 24.705 148.854 28.1215C150.176 54.7838 146.846 76.6047 138.949 92.9832C132.769 105.791 125.919 110.529 125.147 111.027Z" fill="#2B2827"/><path d="M127.516 9.90623C126.932 10.0264 126.383 10.3354 125.954 10.799C123.894 13.0995 122.847 16.0525 123.001 19.1428C123.173 22.233 124.512 25.0658 126.812 27.126C129.113 29.1862 132.065 30.2335 135.155 30.0789C138.245 29.9073 141.078 28.5681 143.138 26.2676C144.202 25.083 144.117 23.246 142.915 22.1644C141.73 21.0999 139.894 21.1858 138.812 22.3876C137.782 23.5378 136.374 24.2074 134.829 24.2932C133.284 24.3791 131.808 23.8469 130.675 22.8168C129.525 21.7867 128.855 20.3789 128.769 18.8337C128.684 17.2886 129.216 15.8121 130.246 14.679C131.31 13.4944 131.224 11.6574 130.023 10.5758C129.302 9.94056 128.357 9.71738 127.482 9.88906L127.516 9.90623Z" fill="#0082AA"/><path d="M139.859 0.257593C138.589 0.789809 137.713 2.04309 137.765 3.5024C137.834 5.37374 139.396 6.83304 141.267 6.76437C144.975 6.62702 148.099 9.54563 148.219 13.254C148.288 15.0566 147.636 16.7563 146.417 18.0783C145.198 19.4002 143.533 20.1556 141.73 20.2071C139.859 20.2758 138.4 21.8381 138.469 23.7095C138.537 25.5808 140.1 27.0401 141.971 26.9714C145.576 26.8512 148.906 25.3233 151.361 22.6965C153.816 20.0698 155.103 16.619 154.983 13.0308C154.726 5.59693 148.46 -0.240287 141.027 0.0172371C140.615 0.0172371 140.22 0.120247 139.859 0.274761V0.257593Z" fill="#00A1E0"/><path d="M144.083 22.7995C143.671 21.7866 142.521 21.3059 141.508 21.7351C140.495 22.1643 140.014 23.2974 140.443 24.3103C140.872 25.3233 142.006 25.804 143.018 25.3748C144.031 24.9627 144.512 23.8124 144.083 22.7995Z" fill="#E4EBF2"/><path d="M76.1357 78.3044L93.3197 75.2313C94.0236 75.1111 95.6888 74.8707 95.3626 77.0168C95.0193 79.3173 94.6588 83.6094 86.8306 85.0859C79.466 86.4765 75.9812 82.0127 75.2601 79.798C75.037 79.1285 75.449 78.4246 76.1357 78.3044Z" fill="#E4EBF2"/><path d="M58.0072 111.868C57.8871 111.937 57.7669 112.006 57.6467 112.057C54.4537 113.62 26.0081 127.011 10.6094 114.924C2.18046 108.349 -0.154243 96.1251 3.65681 78.6134C4.32632 75.5403 7.36486 73.6003 10.4206 74.2698C13.4934 74.9394 15.4333 77.9782 14.7638 81.0341C12.8239 89.893 11.7596 101.396 17.5963 105.98C25.9051 112.504 46.1792 105.001 52.634 101.859C55.4494 100.486 58.8656 101.653 60.2389 104.469C61.5608 107.164 60.5479 110.392 58.0072 111.868Z" fill="#2B2827"/><path d="M25.1336 66.6347C25.6253 66.9868 25.9903 67.479 26.1916 68.1009C27.1169 71.0445 26.8487 74.1817 25.4177 76.9154C23.9994 79.6606 21.5966 81.6772 18.6415 82.6156C15.6978 83.5412 12.5607 83.2732 9.82716 81.8424C7.09364 80.4116 5.06565 78.0217 4.12756 75.0665C3.6376 73.5353 4.49159 71.9002 6.02403 71.4344C7.54374 70.957 9.19028 71.7982 9.65599 73.3306C10.1181 74.7903 11.1269 76.0037 12.4994 76.7128C13.8719 77.4218 15.4348 77.5622 16.8945 77.1C18.3542 76.6378 19.5677 75.6288 20.2768 74.2562C20.9859 72.8837 21.1264 71.3208 20.6644 69.8611C20.1744 68.3299 21.0284 66.6948 22.5608 66.229C23.4701 65.9403 24.4279 66.1353 25.1463 66.6462L25.1336 66.6347Z" fill="#0082AA"/><path d="M20.5486 56.432C21.4756 57.4449 21.7331 58.9557 21.0808 60.2605C20.2396 61.9258 18.1968 62.5954 16.5316 61.7542C13.2183 60.0717 9.16696 61.4108 7.50177 64.7071C6.69492 66.3037 6.55759 68.1236 7.10693 69.8404C7.67344 71.5401 8.85795 72.9307 10.4545 73.7548C12.1197 74.596 12.7892 76.639 11.948 78.3044C11.1068 79.9697 9.06396 80.6392 7.39877 79.798C4.18855 78.167 1.80235 75.3858 0.686505 71.9693C-0.429343 68.5528 -0.154673 64.8959 1.47618 61.6683C4.8409 55.0414 12.978 52.3803 19.6044 55.7453C19.9821 55.9341 20.2911 56.1745 20.5658 56.4663L20.5486 56.432Z" fill="#00A1E0"/><path d="M7.24379 75.0939C8.05064 74.3556 9.28666 74.4072 10.0248 75.2141C10.763 76.021 10.7115 77.2571 9.90466 77.9953C9.09782 78.7336 7.8618 78.682 7.12363 77.8751C6.38545 77.0682 6.43695 75.8321 7.24379 75.0939Z" fill="#E4EBF2"/><g clip-path="url(#clip1_700_2)"><path d="M78.5076 139.719C78.6987 139.91 79.0173 139.91 79.2164 139.719L83.931 135.004L79.2164 130.289C79.0252 130.098 78.7067 130.098 78.5076 130.289L74.1434 134.646C73.9522 134.837 73.9522 135.155 74.1434 135.354L78.5076 139.719Z" fill="#00A1E0"/><path d="M99.1337 129.931L89.354 120.143C89.1629 119.952 88.8444 119.952 88.6453 120.143L84.281 124.508C84.0899 124.699 84.0899 125.017 84.281 125.216L88.9957 129.931L84.281 134.646C84.0899 134.837 84.0899 135.155 84.281 135.354L88.9957 140.069L84.281 144.784C84.0899 144.975 84.0899 145.293 84.281 145.492L88.6453 149.857C88.8364 150.048 89.155 150.048 89.354 149.857L99.1417 140.069L103.856 135.354C104.047 135.163 104.047 134.845 103.856 134.646L99.1417 129.931H99.1337Z" fill="#00A1E0"/></g></g><ellipse cx="86.5" cy="180.5" rx="44.5" ry="11.5" fill="#002546" fill-opacity="0.14"/><defs><clipPath id="clip0_700_2"><rect width="155" height="166" fill="white"/></clipPath><clipPath id="clip1_700_2"><rect width="30" height="30" fill="white" transform="translate(74 120)"/></clipPath></defs></svg>