<svg xmlns="http://www.w3.org/2000/svg" width="538" height="542" viewBox="0 0 538 542" fill="none"><g clip-path="url(#clip0_667_2)"><path d="M156.111 449.188L154.257 449.683L142.163 404.335C141.915 403.411 140.862 402.957 139.938 403.205L130.209 405.796C129.336 406.002 128.794 406.88 129 407.752C129.006 407.783 129.016 407.809 129.021 407.84L141.115 453.188L135.244 454.752L126.61 422.381C126.326 421.437 125.355 420.884 124.399 421.117L114.671 423.708C113.746 423.982 113.209 424.952 113.472 425.881L122.107 458.252L116.235 459.816L109.264 433.686C109.016 432.762 108.076 432.349 107.152 432.597L97.423 435.188C96.4986 435.436 95.8789 436.262 96.1268 437.186L103.098 463.316L97.2267 464.88L88.6443 432.7C88.4119 431.797 87.4927 431.255 86.589 431.492C86.5735 431.492 86.5632 431.497 86.5477 431.503L76.8189 434.094C75.879 434.321 75.2903 435.26 75.5021 436.205L84.0845 468.385L78.2131 469.949L73.39 451.867C73.1421 450.943 72.2384 450.282 71.3089 450.53L61.5801 453.121C60.6196 453.41 60.0412 454.386 60.2478 455.366L65.0709 473.449L63.2274 473.939C62.303 474.187 61.7505 475.137 61.9984 476.066C62.2462 476.995 63.1964 477.542 64.1259 477.295L157.025 452.532C157.949 452.285 158.502 451.335 158.254 450.406C158.006 449.477 157.056 448.929 156.127 449.177L156.111 449.188ZM139.272 406.973L140.614 412.006L134.185 413.72L132.842 408.687L139.272 406.973ZM135.078 417.075L141.507 415.361L150.901 450.581L144.472 452.295L135.078 417.075ZM123.687 424.9L125.029 429.933L118.6 431.647L117.258 426.614L123.687 424.9ZM119.494 435.002L125.923 433.289L131.887 455.65L125.458 457.364L119.494 435.002ZM106.388 436.401L107.73 441.434L101.301 443.148L99.9585 438.115L106.388 436.401ZM102.194 446.503L108.624 444.789L112.873 460.719L106.444 462.433L102.194 446.503ZM85.737 435.322L87.0796 440.355L80.6505 442.069L79.3079 437.036L85.737 435.322ZM81.5439 445.424L87.973 443.711L93.865 465.794L87.4359 467.507L81.5439 445.424ZM70.4517 454.37L71.8666 459.682L65.4375 461.396L64.0226 456.084L70.4517 454.37ZM66.3309 464.751L72.76 463.037L74.8462 470.863L68.4171 472.576L66.3309 464.751Z" fill="#96D701"/><path d="M151.809 379.976L32.4709 411.784C26.8061 413.296 23.3204 419.155 24.8334 424.818L48.1641 512.277C49.6771 517.94 55.5898 521.182 61.2547 519.674L101.848 508.855L104.751 529.637L102.096 530.344C99.1631 531.129 97.4229 534.138 98.2026 537.07L99.1735 540.704C99.4162 541.628 100.366 542.181 101.291 541.938L156.953 527.102C157.872 526.855 158.419 525.91 158.171 524.991C158.171 524.991 158.171 524.986 158.171 524.981L157.201 521.347C156.421 518.415 153.415 516.67 150.482 517.45L147.828 518.157L140.005 498.686L180.588 487.871C186.253 486.359 189.759 480.608 188.251 474.946L164.921 387.486C163.408 381.824 157.474 378.474 151.809 379.981V379.976ZM105.226 507.957L136.627 499.584L144.451 519.055L108.128 528.739L105.226 507.957ZM151.381 520.805C152.455 520.521 153.56 521.161 153.849 522.235L154.371 524.196L102.081 538.134L101.559 536.177C101.27 535.098 101.91 533.989 102.99 533.699L151.381 520.8V520.805ZM181.569 463.357L76.1526 491.454C75.2283 491.702 74.6757 492.651 74.9236 493.581C75.1715 494.51 76.1216 495.057 77.0512 494.809L182.468 466.712L184.9 475.839C185.917 479.654 183.516 483.499 179.7 484.516L60.3613 516.324C56.5452 517.341 52.5379 515.204 51.5207 511.389L49.0884 502.263L65.3084 497.942C66.2327 497.695 66.7853 496.745 66.5374 495.816C66.2895 494.887 65.3393 494.339 64.4098 494.587L48.1899 498.908L28.19 423.925C27.1727 420.11 29.5533 416.156 33.3694 415.139L152.708 383.331C156.524 382.314 160.552 384.565 161.569 388.374L181.569 463.357Z" fill="#00A1E0"/><path d="M155.244 391.637C154.996 390.713 154.046 390.16 153.116 390.408L36.7932 421.416C35.8688 421.664 35.3163 422.614 35.5642 423.543L52.7859 488.109C53.0337 489.033 53.9839 489.585 54.9134 489.337L171.236 458.329C172.161 458.082 172.713 457.132 172.465 456.203L155.244 391.637ZM168.458 455.774L55.7706 485.812L39.3648 424.317L152.052 394.279L168.458 455.774Z" fill="#00A1E0"/><path d="M116.344 486.633C113.287 487.448 111.474 490.581 112.285 493.637C113.101 496.693 116.236 498.505 119.293 497.695C122.35 496.879 124.162 493.746 123.351 490.69C122.536 487.639 119.396 485.822 116.344 486.633ZM118.399 494.339C117.196 494.659 115.962 493.947 115.642 492.744C115.322 491.542 116.034 490.308 117.237 489.988C118.441 489.668 119.675 490.38 119.995 491.583C120.315 492.786 119.602 494.019 118.399 494.339Z" fill="#00A1E0"/><path d="M415.65 266.923L415.852 271.347L416.053 275.76L422.467 276.638C423.185 279.152 424.305 281.568 425.818 283.787L422.405 289.28L425.679 292.258L428.953 295.247L434.106 291.319C436.451 292.63 438.966 293.528 441.532 294.003L442.999 300.306L447.424 300.104L451.839 299.893L452.717 293.482C455.222 292.764 457.649 291.644 459.859 290.121L465.353 293.543L468.323 290.26L471.302 286.988L467.393 281.836C468.694 279.482 469.593 276.979 470.068 274.403L476.363 272.937L476.161 268.513L475.95 264.089L469.546 263.212C468.829 260.698 467.708 258.282 466.185 256.062L469.608 250.57L466.334 247.591L463.06 244.613L457.907 248.531C455.562 247.22 453.048 246.332 450.481 245.847L449.015 239.544L444.589 239.756L440.174 239.957L439.296 246.368C436.781 247.086 434.365 248.206 432.154 249.729L426.66 246.316L423.68 249.589L420.701 252.862L424.62 258.014C423.319 260.367 422.42 262.881 421.945 265.447L415.65 266.923ZM433.735 258.741C439.905 251.964 450.404 251.473 457.179 257.642C463.959 263.821 464.439 274.325 458.268 281.098C452.108 287.886 441.61 288.376 434.834 282.197C428.054 276.029 427.564 265.524 433.735 258.741Z" fill="#96D701"/><path d="M40.749 130.131L40.9504 134.554L41.1518 138.968L47.5654 139.845C48.2832 142.359 49.4038 144.775 50.9168 146.995L47.5034 152.487L50.7774 155.466L54.0513 158.454L59.2049 154.526C61.5494 155.837 64.0642 156.735 66.6307 157.21L68.0972 163.513L72.5227 163.312L76.9379 163.1L77.8158 156.689C80.3203 155.971 82.7473 154.851 84.9575 153.328L90.4519 156.751L93.4212 153.468L96.4008 150.195L92.4917 145.043C93.793 142.69 94.6915 140.186 95.1666 137.61L101.461 136.144L101.26 131.72L101.048 127.297L94.645 126.419C93.9272 123.905 92.8067 121.489 91.2833 119.27L94.707 113.777L91.4331 110.799L88.1591 107.82L83.0055 111.738C80.6611 110.427 78.1462 109.539 75.5798 109.054L74.1132 102.751L69.6877 102.963L65.2726 103.164L64.3947 109.575C61.8798 110.293 59.4631 111.413 57.253 112.936L51.7585 109.524L48.7789 112.797L45.7994 116.069L49.7188 121.221C48.4175 123.575 47.5189 126.089 47.0439 128.654L40.749 130.131ZM58.8331 121.949C65.004 115.171 75.5023 114.681 82.2774 120.849C89.0576 127.028 89.5379 137.533 83.367 144.305C77.2064 151.093 66.7081 151.584 59.933 145.405C53.1528 139.236 52.6622 128.732 58.8331 121.949Z" fill="#00A1E0"/><path d="M372.583 487.892L315.356 465.2C311.995 463.858 310.585 460.208 311.897 456.925L358.073 340.569C359.384 337.286 362.849 335.717 366.211 337.059L423.438 359.751C426.799 361.093 428.798 364.81 427.486 368.093L381.31 484.449C379.999 487.732 375.95 489.234 372.588 487.892H372.583Z" fill="#C21BBC"/><path d="M362.695 345.972L322.694 446.758L380.04 469.5L420.04 368.715L362.695 345.972Z" fill="#00A1E0"/><path d="M385.336 387.03C390.705 385.883 394.126 380.602 392.978 375.235C391.83 369.868 386.547 366.448 381.179 367.596C375.81 368.743 372.389 374.024 373.537 379.391C374.685 384.757 379.967 388.178 385.336 387.03Z" fill="white"/><path d="M386.81 375.913C386.257 377.307 384.677 377.988 383.283 377.436C381.888 376.884 381.207 375.304 381.759 373.91C382.312 372.517 383.892 371.835 385.286 372.388C386.68 372.94 387.362 374.519 386.81 375.913Z" fill="#96D701"/><path d="M385.844 382.562C385.09 384.467 377.153 381.323 377.912 379.418C378.672 377.513 381.057 376.672 383.247 377.539C385.436 378.406 386.598 380.657 385.844 382.562Z" fill="#96D701"/><path d="M398.304 402.738L354.874 385.514L352.059 392.606L395.49 409.83L398.304 402.738Z" fill="white"/><path d="M392.75 416.725L349.319 399.501L346.505 406.593L389.935 423.816L392.75 416.725Z" fill="white"/><path d="M385.983 433.771L342.553 416.547L339.738 423.638L383.168 440.862L385.983 433.771Z" fill="white"/><path d="M393.966 404.268C393.806 404.671 393.347 404.867 392.944 404.707C392.541 404.547 392.345 404.087 392.505 403.685C392.665 403.282 393.125 403.086 393.527 403.246C393.93 403.406 394.126 403.865 393.966 404.268Z" fill="#24ACC3"/><path d="M393.687 406.193C393.47 406.746 391.173 405.832 391.389 405.285C391.606 404.738 392.298 404.49 392.933 404.743C393.569 404.996 393.904 405.646 393.687 406.199V406.193Z" fill="#24ACC3"/><path d="M388.514 419.207L388.565 419.078C388.813 418.458 388.535 417.767 387.946 417.534C387.357 417.302 386.686 417.617 386.438 418.236L386.386 418.365L385.87 419.661C385.798 419.847 385.885 420.058 386.076 420.136L387.528 420.714C387.713 420.786 387.925 420.699 388.003 420.508L388.519 419.212L388.514 419.207ZM387.269 419.656C387.269 419.656 387.269 419.692 387.259 419.707C387.228 419.78 387.151 419.816 387.078 419.785C387.006 419.754 386.97 419.677 387.001 419.604C387.006 419.589 387.016 419.573 387.032 419.558C386.98 419.491 386.959 419.398 386.996 419.31C387.047 419.181 387.197 419.114 387.326 419.165C387.455 419.217 387.522 419.367 387.471 419.496C387.435 419.584 387.357 419.635 387.275 419.651L387.269 419.656ZM388.09 419.036L386.815 418.531L386.867 418.401C387.021 418.014 387.429 417.813 387.781 417.952C388.132 418.092 388.292 418.52 388.137 418.907L388.085 419.036H388.09Z" fill="#24ACC3"/><path d="M98.4766 207.885C97.9912 207.323 97.1392 207.261 96.5711 207.746C96.5402 207.772 96.5092 207.803 96.4834 207.829L67.4465 237.954C66.9301 238.491 66.9456 239.343 67.4827 239.864C67.7357 240.107 68.0714 240.241 68.4174 240.241H109.336C110.08 240.241 110.684 239.637 110.689 238.893C110.689 238.878 110.689 238.857 110.689 238.842C110.292 227.429 105.98 216.496 98.4766 207.885ZM71.5932 237.546L97.3819 210.786C103.604 218.385 107.286 227.744 107.916 237.546H71.5932Z" fill="#96D701"/><path d="M99.9895 245.3C99.8087 245.227 99.6177 245.191 99.4266 245.191H52.9977L86.0417 210.859C86.1036 210.797 86.1605 210.725 86.2069 210.647L86.2534 210.575C86.5942 210.038 86.5168 209.341 86.0675 208.892C70.3691 193.21 46.2691 189.612 26.6719 200.039C26.0109 200.39 25.7631 201.206 26.1142 201.867C26.1762 201.985 26.2588 202.094 26.3517 202.187C26.77 202.605 27.4104 202.703 27.9371 202.424C34.4488 198.945 41.6835 197.035 49.0627 196.844L48.8252 242.884L14.8723 212.696C15.4558 212.046 16.0549 211.411 16.6745 210.792C17.7899 209.677 18.9518 208.624 20.155 207.638C20.7334 207.168 20.816 206.316 20.3461 205.738C20.3203 205.702 20.2893 205.671 20.2583 205.64C19.7677 205.144 18.9828 205.108 18.4458 205.552C17.1754 206.595 15.9516 207.71 14.769 208.887C5.28289 218.313 -0.0359645 231.145 0.000183049 244.52C0.000183049 272.41 22.6182 295.102 50.4209 295.102C77.5367 295.102 99.7932 273.67 100.811 246.585C100.831 246.027 100.506 245.516 99.9895 245.3ZM51.5311 242.827L51.7686 196.844C63.5114 197.143 74.7275 201.794 83.2325 209.893L51.5363 242.827H51.5311ZM2.70609 244.52C2.6751 233.701 6.35699 223.196 13.1321 214.756L48.345 246.064L21.2498 282.383C9.5483 273.308 2.70092 259.33 2.70609 244.52ZM23.4238 283.978L50.2143 248.066L78.8173 283.039C62.458 295.169 40.1859 295.546 23.4238 283.973V283.978ZM83.6301 278.961C82.7574 279.802 81.8641 280.607 80.9397 281.377L53.5554 247.891H98.0478C97.3042 259.686 92.1609 270.774 83.6353 278.961H83.6301Z" fill="#00A1E0"/></g><path d="M320.64 288.309C320.64 321.759 287.183 399.932 245.907 399.932C204.632 399.932 171.175 321.764 171.175 288.309C171.175 243.302 204.632 227.738 245.907 227.738C287.183 227.738 320.64 245.955 320.64 288.309Z" fill="#E4EBF2"/><path d="M245.912 270.753C270.733 270.753 290.854 261.562 290.854 250.224C290.854 238.886 270.733 229.695 245.912 229.695C221.092 229.695 200.971 238.886 200.971 250.224C200.971 261.562 221.092 270.753 245.912 270.753Z" fill="#2B2827"/><path d="M246.11 251.342C296.408 244.007 332.861 208.446 327.53 171.913C322.198 135.381 277.101 111.712 226.803 119.047C176.505 126.382 140.053 161.943 145.384 198.476C150.715 235.008 195.812 258.677 246.11 251.342Z" fill="#E4EBF2"/><mask id="mask0_667_2" style="mask-type:luminance" maskUnits="userSpaceOnUse" x="123" y="129" width="251" height="148"><path d="M356.671 129.902L123.427 163.916L139.901 276.801L373.145 242.787L356.671 129.902Z" fill="white"/></mask><g mask="url(#mask0_667_2)"><path d="M242.668 227.741C286.436 221.358 318.647 193.775 314.612 166.131C310.578 138.488 271.827 121.253 228.059 127.636C184.291 134.018 152.081 161.602 156.115 189.245C160.149 216.888 198.901 234.123 242.668 227.741Z" fill="#00A1E0"/></g><path d="M209.212 199.224C216.653 198.14 221.688 190.402 220.454 181.947C219.22 173.486 212.187 167.508 204.745 168.598C197.304 169.682 192.269 177.419 193.503 185.88C194.738 194.335 201.771 200.313 209.212 199.229V199.224Z" fill="#2B2827"/><path d="M205.138 196.023C203.294 196.292 201.58 195.017 201.306 193.169L200.103 184.915C199.835 183.072 201.11 181.358 202.959 181.084C204.802 180.816 206.517 182.091 206.79 183.939L207.994 192.193C208.262 194.036 206.987 195.75 205.138 196.023Z" fill="#E4EBF2"/><path d="M279.297 173.176C278.063 164.716 271.029 158.738 263.588 159.827C256.147 160.911 251.112 168.649 252.346 177.11C253.58 185.565 260.614 191.543 268.055 190.459C275.496 189.375 280.531 181.637 279.297 173.181V173.176Z" fill="#2B2827"/><path d="M263.366 185.147C265.21 184.879 266.49 183.165 266.222 181.317L265.019 173.063C264.75 171.22 263.036 169.94 261.187 170.208C259.344 170.477 258.063 172.19 258.331 174.038L259.535 182.292C259.803 184.135 261.518 185.415 263.366 185.147Z" fill="#E4EBF2"/><path d="M226.681 129.077C226.717 129.093 226.759 129.103 226.8 129.114C227.554 129.32 228.334 128.886 228.545 128.133C228.706 127.565 232.289 114.004 216.539 95.4162C216.033 94.8174 215.135 94.7451 214.541 95.251C213.942 95.7569 213.87 96.6499 214.376 97.2487C229.062 114.588 225.845 127.24 225.814 127.369C225.618 128.081 226.005 128.819 226.686 129.072L226.681 129.077Z" fill="#2B2827"/><path d="M204.534 99.8142C196.628 98.6631 191.149 91.3124 192.306 83.3939C193.462 75.4806 200.805 69.9986 208.716 71.1497C216.622 72.3008 222.101 79.6515 220.945 87.57C219.788 95.4833 212.44 100.965 204.534 99.8142Z" fill="#00A1E0"/><path d="M190.367 279.894C192.953 266.212 189.079 253.993 181.715 252.602C174.35 251.211 166.283 261.175 163.697 274.856C161.111 288.538 164.985 300.757 172.35 302.148C179.714 303.539 187.781 293.575 190.367 279.894Z" fill="#00A1E0"/><path d="M318.485 299.277C325.847 297.887 329.718 285.668 327.132 271.987C324.546 258.305 316.482 248.341 309.12 249.732C301.758 251.122 297.887 263.34 300.473 277.022C303.059 290.704 311.123 300.668 318.485 299.277Z" fill="#00A1E0"/><path d="M325.458 285.155C325.458 285.155 310.694 289.486 308.659 276.715C306.248 261.601 321.409 257.559 321.409 257.559L321.182 257.595C321.321 257.57 335.357 254.875 355.037 237.99C373.611 222.055 401.006 190.035 425.994 127.999C428.871 120.854 436.999 117.396 444.146 120.271C451.303 123.177 454.752 131.271 451.876 138.415C429.475 194.026 402.127 235.389 370.59 261.348C345.912 281.666 327.477 284.851 325.452 285.145L325.458 285.155Z" fill="#2B2827"/><path d="M425.489 81.1794C424.182 80.88 422.777 80.9729 421.455 81.5408C415.078 84.2818 410.152 89.3354 407.58 95.7827C405.008 102.225 405.101 109.286 407.843 115.661C410.585 122.037 415.641 126.961 422.091 129.532C428.54 132.102 435.6 132.009 441.977 129.268C445.282 127.849 446.81 124.019 445.39 120.715C443.97 117.411 440.139 115.883 436.834 117.303C433.658 118.666 430.136 118.712 426.924 117.432C423.712 116.152 421.187 113.695 419.824 110.52C418.455 107.34 418.409 103.825 419.695 100.614C420.975 97.4035 423.433 94.8793 426.609 93.5166C429.914 92.097 431.443 88.2668 430.022 84.9632C429.17 82.981 427.451 81.6388 425.499 81.1897L425.489 81.1794Z" fill="#0082AA"/><path d="M459.787 73.1319C456.71 73.008 453.74 74.7786 452.475 77.7828C450.849 81.6492 452.671 86.104 456.539 87.73C464.218 90.9511 467.843 99.8193 464.621 107.5C463.061 111.217 460.144 114.108 456.405 115.636C452.671 117.164 448.566 117.143 444.843 115.584C440.975 113.958 436.519 115.78 434.892 119.647C433.265 123.513 435.088 127.968 438.956 129.594C446.418 132.727 454.654 132.763 462.152 129.702C469.645 126.641 475.496 120.844 478.631 113.385C485.096 97.9817 477.825 80.1935 462.416 73.7255C461.553 73.3642 460.66 73.1732 459.777 73.1371L459.787 73.1319Z" fill="#00A1E0"/><path d="M447.172 123.048C447.27 120.602 445.365 118.542 442.922 118.444C440.475 118.346 438.414 120.251 438.316 122.692C438.218 125.139 440.124 127.199 442.566 127.297C445.014 127.395 447.074 125.49 447.172 123.048Z" fill="#E4EBF2"/><path d="M218.14 202.987L256.741 196.07C258.342 195.786 262.07 195.28 261.342 200.096C260.562 205.263 259.746 214.885 242.179 218.215C225.638 221.348 217.805 211.329 216.163 206.352C215.667 204.855 216.591 203.266 218.146 202.987H218.14Z" fill="#E4EBF2"/><path d="M157.444 276.302C157.413 276.612 157.392 276.922 157.376 277.232C157.113 285.212 155.93 355.812 194.892 376.233C216.173 387.388 243.361 380.889 275.703 356.922C281.373 352.72 282.555 344.725 278.357 339.057C274.154 333.389 266.155 332.202 260.485 336.403C244.136 348.519 221.543 361.341 206.775 353.619C185.721 342.608 182.416 294.163 182.917 278.063C183.139 271.017 177.604 265.122 170.56 264.894C163.826 264.678 158.141 269.711 157.444 276.302Z" fill="#2B2827"/><path d="M306.412 314.073C305.994 312.803 305.178 311.652 304.006 310.815C298.352 306.794 291.468 305.215 284.621 306.371C277.778 307.527 271.793 311.275 267.771 316.932C263.748 322.585 262.168 329.466 263.325 336.305C264.481 343.15 268.23 349.128 273.89 353.149C276.823 355.234 280.892 354.548 282.973 351.616C285.06 348.684 284.373 344.616 281.44 342.536C278.62 340.533 276.751 337.549 276.172 334.142C275.594 330.73 276.384 327.303 278.388 324.484C280.391 321.666 283.376 319.797 286.784 319.219C290.198 318.641 293.627 319.431 296.446 321.434C299.379 323.519 303.448 322.832 305.535 319.9C306.784 318.14 307.037 315.977 306.407 314.073H306.412Z" fill="#0082AA"/><path d="M305.581 301.88C302.659 300.91 299.312 301.782 297.267 304.322C294.634 307.589 295.145 312.369 298.414 315.002C304.9 320.226 305.922 329.755 300.691 336.233C298.161 339.372 294.556 341.338 290.544 341.767C286.532 342.195 282.592 341.039 279.452 338.509C276.183 335.877 271.401 336.388 268.768 339.655C266.134 342.923 266.645 347.703 269.914 350.336C276.214 355.415 284.12 357.738 292.166 356.871C300.216 356.009 307.446 352.065 312.527 345.762C323.015 332.759 320.965 313.649 307.957 303.165C307.229 302.577 306.423 302.148 305.587 301.87L305.581 301.88Z" fill="#00A1E0"/><path d="M279.606 346.34C280.381 344.017 279.121 341.509 276.797 340.739C274.473 339.965 271.964 341.225 271.194 343.548C270.42 345.87 271.68 348.379 274.003 349.148C276.327 349.923 278.837 348.663 279.606 346.34Z" fill="#E4EBF2"/><path opacity="0.23" d="M251.54 438.285C288.188 438.285 317.897 431.93 317.897 424.09C317.897 416.25 288.188 409.895 251.54 409.895C214.892 409.895 185.184 416.25 185.184 424.09C185.184 431.93 214.892 438.285 251.54 438.285Z" fill="#00A1E0"/><g clip-path="url(#clip1_667_2)"><path d="M237.508 308.719C237.699 308.91 238.017 308.91 238.216 308.719L242.931 304.004L238.216 299.289C238.025 299.098 237.707 299.098 237.508 299.289L233.143 303.646C232.952 303.837 232.952 304.155 233.143 304.354L237.508 308.719Z" fill="#00A1E0"/><path d="M258.134 298.931L248.354 289.143C248.163 288.952 247.844 288.952 247.645 289.143L243.281 293.508C243.09 293.699 243.09 294.017 243.281 294.216L247.996 298.931L243.281 303.646C243.09 303.837 243.09 304.155 243.281 304.354L247.996 309.069L243.281 313.784C243.09 313.975 243.09 314.293 243.281 314.492L247.645 318.857C247.836 319.048 248.155 319.048 248.354 318.857L258.142 309.069L262.856 304.354C263.047 304.163 263.047 303.845 262.856 303.646L258.142 298.931H258.134Z" fill="#00A1E0"/></g><path d="M350.968 39.9519L357.93 44.1625C359.205 44.9342 360.765 43.7935 360.43 42.3508L358.584 34.4327L364.741 29.098C365.865 28.1251 365.261 26.2797 363.785 26.1623L355.682 25.4745L352.511 17.9926C351.941 16.6338 349.995 16.6338 349.425 17.9926L346.254 25.4577L338.152 26.1455C336.675 26.263 336.071 28.1083 337.195 29.0813L343.352 34.4159L341.507 42.334C341.171 43.7767 342.731 44.9174 344.006 44.1458L350.968 39.9519Z" fill="#00A1E0"/><path d="M388.301 39.9519L395.263 44.1625C396.538 44.9342 398.098 43.7935 397.763 42.3508L395.917 34.4327L402.074 29.098C403.198 28.1251 402.594 26.2797 401.118 26.1623L393.015 25.4745L389.844 17.9926C389.274 16.6338 387.328 16.6338 386.758 17.9926L383.587 25.4577L375.485 26.1455C374.008 26.263 373.404 28.1083 374.528 29.0813L380.685 34.4159L378.84 42.334C378.504 43.7767 380.064 44.9174 381.339 44.1458L388.301 39.9519Z" fill="#00A1E0"/><path d="M428.563 39.9519L435.525 44.1625C436.8 44.9342 438.36 43.7935 438.024 42.3508L436.179 34.4327L442.336 29.098C443.46 28.1251 442.856 26.2797 441.379 26.1623L433.277 25.4745L430.106 17.9926C429.536 16.6338 427.59 16.6338 427.019 17.9926L423.849 25.4577L415.746 26.1455C414.27 26.263 413.666 28.1083 414.79 29.0813L420.947 34.4159L419.101 42.334C418.766 43.7767 420.326 44.9174 421.601 44.1458L428.563 39.9519Z" fill="#00A1E0"/><path d="M466.628 39.9519L473.59 44.1625C474.865 44.9342 476.425 43.7935 476.09 42.3508L474.244 34.4327L480.401 29.098C481.525 28.1251 480.921 26.2797 479.445 26.1623L471.342 25.4745L468.172 17.9926C467.601 16.6338 465.655 16.6338 465.085 17.9926L461.914 25.4577L453.812 26.1455C452.335 26.263 451.732 28.1083 452.855 29.0813L459.012 34.4159L457.167 42.334C456.831 43.7767 458.391 44.9174 459.666 44.1458L466.628 39.9519Z" fill="#00A1E0"/><path d="M503.961 39.9519L510.923 44.1625C512.198 44.9342 513.758 43.7935 513.423 42.3508L511.577 34.4327L517.734 29.098C518.858 28.1251 518.254 26.2797 516.778 26.1623L508.675 25.4745L505.505 17.9926C504.934 16.6338 502.988 16.6338 502.418 17.9926L499.247 25.4577L491.145 26.1455C489.668 26.263 489.065 28.1083 490.188 29.0813L496.345 34.4159L494.5 42.334C494.164 43.7767 495.724 44.9174 496.999 44.1458L503.961 39.9519Z" fill="#00A1E0"/><rect x="315" y="1" width="222" height="61.6863" rx="16" stroke="#1F2075" stroke-width="2"/><defs><clipPath id="clip0_667_2"><rect width="481" height="471" fill="white" transform="translate(0 71)"/></clipPath><clipPath id="clip1_667_2"><rect width="30" height="30" fill="white" transform="translate(233 289)"/></clipPath></defs></svg>