<svg xmlns="http://www.w3.org/2000/svg" xmlns:xlink="http://www.w3.org/1999/xlink" id="Capa_1" x="0px" y="0px" viewBox="0 0 1185.295 716.759" style="enable-background:new 0 0 1185.295 716.759;" xml:space="preserve">
<style type="text/css">
	.st0{fill:#0A64BF;}
	.st1{opacity:0.15;}
	.st2{fill:#FFFFFF;}
	.st3{opacity:0.35;}
	.st4{opacity:0.2;}
	.st5{fill:none;stroke:#FFFFFF;stroke-width:0.25;stroke-miterlimit:10;}
	.st6{fill:none;stroke:#001028;stroke-miterlimit:10;}
	.st7{fill:#00A1E0;}
	.st8{opacity:0.5;fill:#FFFFFF;enable-background:new    ;}
	.st9{fill:#000B21;}
	.st10{fill:#FFFFFF;stroke:#263238;stroke-linecap:round;stroke-linejoin:round;}
	.st11{fill:#00A1E0;stroke:#000B21;stroke-miterlimit:10;}
	.st12{fill:#FFFFFF;stroke:#263238;stroke-width:0.5;stroke-linecap:round;stroke-linejoin:round;}
	.st13{fill:none;stroke:#FFFFFF;stroke-linecap:round;stroke-linejoin:round;}
	.st14{fill:none;stroke:#263238;stroke-linecap:round;stroke-linejoin:round;}
	.st15{fill:#263238;}
	.st16{fill:#FFFFFF;stroke:#263238;stroke-width:1.069;stroke-linecap:round;stroke-linejoin:round;}
	.st17{fill:none;stroke:#263238;stroke-width:1.069;stroke-linecap:round;stroke-linejoin:round;}
	.st18{opacity:0.2;enable-background:new    ;}
	.st19{fill:#263238;stroke:#263238;stroke-width:1.069;stroke-linecap:round;stroke-linejoin:round;}
	.st20{fill:none;stroke:#92E3A9;stroke-width:1.069;stroke-miterlimit:10;}
	.st21{fill:none;stroke:#FFFFFF;stroke-width:1.069;stroke-linecap:round;stroke-linejoin:round;}
	
		.st22{opacity:0.5;fill:none;stroke:#FFFFFF;stroke-width:1.069;stroke-linecap:round;stroke-linejoin:round;enable-background:new    ;}
	.st23{opacity:0.8;fill:#FFFFFF;enable-background:new    ;}
</style>
<g class="st3">
	<path class="st2" d="M604.245,420.763c-4.207,0-8.163-1.638-11.138-4.613l-84.898-84.899c-6.142-6.142-6.142-16.135,0-22.277   l84.898-84.898c2.975-2.975,6.931-4.614,11.138-4.614c4.208,0,8.164,1.639,11.139,4.614l96.037,96.037l-96.037,96.038   C612.41,419.125,608.453,420.763,604.245,420.763z M604.245,220.461c-3.939,0-7.645,1.535-10.431,4.321l-84.898,84.898   c-5.752,5.752-5.752,15.111,0,20.863l84.898,84.899c2.786,2.786,6.491,4.32,10.431,4.32c3.94,0,7.646-1.534,10.432-4.32   l95.33-95.331l-95.33-95.33C611.891,221.996,608.186,220.461,604.245,220.461z"/>
	<path class="st2" d="M604.246,416.01c-4.015,0-7.788-1.563-10.627-4.402l-80.869-80.869c-2.838-2.838-4.401-6.612-4.401-10.626   c0-4.014,1.563-7.788,4.401-10.626l80.869-80.869c5.859-5.858,15.394-5.859,21.253,0l91.495,91.495l-91.495,91.496   C612.034,414.446,608.26,416.01,604.246,416.01z M604.245,225.222c-3.592,0-7.185,1.367-9.919,4.102l-80.869,80.869   c-2.649,2.649-4.108,6.172-4.108,9.919c0,3.747,1.459,7.27,4.108,9.919l80.869,80.869c2.649,2.649,6.173,4.109,9.92,4.109   c3.746,0,7.27-1.46,9.919-4.109l90.788-90.789l-90.788-90.788C611.431,226.589,607.838,225.222,604.245,225.222z"/>
	<path class="st2" d="M604.245,409.707c-3.757,0-7.29-1.463-9.947-4.12l-75.527-75.527c-2.657-2.657-4.121-6.19-4.121-9.948   c0-3.758,1.463-7.291,4.121-9.948l75.527-75.527c2.657-2.657,6.19-4.121,9.947-4.121c3.758,0,7.291,1.463,9.948,4.121   l85.475,85.475l-85.475,85.475C611.536,408.244,608.003,409.707,604.245,409.707z M604.245,231.517c-3.49,0-6.771,1.359-9.24,3.828   l-75.527,75.527c-2.468,2.468-3.828,5.75-3.828,9.241c0,3.491,1.359,6.772,3.828,9.241l75.527,75.527   c2.469,2.469,5.75,3.827,9.24,3.827c3.491,0,6.772-1.358,9.241-3.827l84.768-84.768l-84.768-84.768   C611.018,232.876,607.737,231.517,604.245,231.517z"/>
	<path class="st2" d="M604.246,402.545c-3.324,0-6.647-1.265-9.178-3.795l-69.46-69.461c-2.452-2.451-3.802-5.71-3.802-9.177   c0-3.467,1.35-6.726,3.802-9.177l69.46-69.461c2.451-2.452,5.71-3.802,9.178-3.802c3.467,0,6.726,1.35,9.177,3.802l78.639,78.638   l-78.639,78.638C610.893,401.28,607.57,402.545,604.246,402.545z M604.246,238.672c-3.2,0-6.208,1.246-8.471,3.509l-69.46,69.461   c-2.263,2.262-3.509,5.271-3.509,8.47c0,3.199,1.246,6.208,3.509,8.47l69.46,69.461c2.263,2.263,5.271,3.509,8.471,3.509   c3.199,0,6.207-1.246,8.47-3.509l77.932-77.931l-77.932-77.931C610.453,239.918,607.446,238.672,604.246,238.672z"/>
	<path class="st2" d="M604.246,395.748c-3.059,0-6.117-1.164-8.445-3.492l-63.699-63.699c-4.657-4.657-4.657-12.233,0-16.89   l63.699-63.699c4.656-4.656,12.232-4.656,16.891,0l72.144,72.144l-72.144,72.144C610.364,394.584,607.304,395.748,604.246,395.748z    M604.246,245.476c-2.803,0-5.605,1.066-7.738,3.2l-63.699,63.699c-4.267,4.267-4.267,11.209,0,15.476l63.699,63.699   c4.267,4.267,11.21,4.269,15.477,0l71.437-71.437l-71.437-71.437C609.851,246.542,607.048,245.476,604.246,245.476z"/>
	<path class="st2" d="M604.246,389.493c-2.814,0-5.629-1.071-7.771-3.214l-58.396-58.396c-4.285-4.285-4.285-11.258,0-15.543   l58.396-58.396c4.285-4.285,11.258-4.285,15.543,0l66.167,66.167l-66.167,66.167C609.875,388.422,607.061,389.493,604.246,389.493z    M538.786,327.177l58.396,58.396c3.895,3.895,10.234,3.895,14.129,0l65.46-65.46l-65.46-65.46c-3.895-3.896-10.234-3.896-14.129,0   l-58.396,58.396C534.891,316.943,534.891,323.281,538.786,327.177L538.786,327.177z"/>
	<path class="st2" d="M604.246,381.842c-2.517,0-5.032-0.958-6.948-2.873L545.39,327.06c-1.856-1.855-2.878-4.323-2.878-6.948   c0-2.625,1.022-5.092,2.878-6.947l51.908-51.909c1.856-1.856,4.323-2.878,6.948-2.878c2.624,0,5.092,1.022,6.947,2.878   l58.856,58.856l-58.856,58.857C609.279,380.884,606.762,381.842,604.246,381.842z M604.246,259.378   c-2.357,0-4.574,0.918-6.241,2.585l-51.908,51.909c-1.667,1.667-2.585,3.883-2.585,6.24c0,2.357,0.918,4.574,2.585,6.241   l51.908,51.909c3.441,3.441,9.04,3.441,12.481,0l58.149-58.15l-58.149-58.149C608.82,260.296,606.604,259.378,604.246,259.378z"/>
	<path class="st2" d="M604.246,374.645c-2.332,0-4.523-0.908-6.172-2.557l-45.805-45.804c-3.403-3.403-3.403-8.941,0-12.344   l45.805-45.804c1.648-1.648,3.84-2.557,6.172-2.557c2.331,0,4.523,0.908,6.172,2.557l51.976,51.976l-51.976,51.976   C608.77,373.736,606.578,374.645,604.246,374.645z M552.977,325.577l45.805,45.804c1.46,1.46,3.4,2.264,5.465,2.264   s4.005-0.804,5.465-2.264l51.269-51.269l-51.269-51.269c-1.46-1.459-3.4-2.264-5.465-2.264s-4.005,0.804-5.465,2.264   l-45.805,45.804C549.964,317.661,549.964,322.563,552.977,325.577L552.977,325.577z"/>
	<path class="st2" d="M604.246,367.442c-2.038,0-3.955-0.794-5.396-2.235l-39.699-39.699c-1.441-1.441-2.235-3.358-2.235-5.396   s0.794-3.955,2.235-5.396l39.699-39.699c1.441-1.441,3.358-2.235,5.396-2.235s3.955,0.794,5.396,2.235l45.095,45.095   l-45.095,45.095C608.202,366.648,606.285,367.442,604.246,367.442z M559.858,324.801l39.699,39.699   c2.586,2.586,6.793,2.586,9.379,0l44.388-44.388l-44.388-44.388c-2.586-2.586-6.793-2.586-9.379,0l-39.699,39.699   c-1.253,1.252-1.942,2.918-1.942,4.689S558.605,323.549,559.858,324.801z"/>
	<path class="st2" d="M604.245,359.788c-1.655,0-3.312-0.631-4.572-1.892l-33.212-33.212c-2.521-2.521-2.521-6.624,0-9.145   l33.212-33.212c2.521-2.521,6.623-2.523,9.146,0l37.784,37.785l-37.784,37.785C607.558,359.157,605.902,359.788,604.245,359.788z    M604.245,281.436c-1.399,0-2.8,0.533-3.865,1.599l-33.212,33.212c-2.132,2.131-2.132,5.6,0,7.731l33.212,33.212   c2.132,2.133,5.602,2.132,7.731,0l37.077-37.078l-37.077-37.078C607.046,281.968,605.646,281.436,604.245,281.436z"/>
	<path class="st2" d="M604.246,352.139c-1.417,0-2.748-0.551-3.749-1.553l-26.726-26.726c-2.066-2.067-2.066-5.43,0-7.497   l26.726-26.726c1.001-1.001,2.332-1.553,3.749-1.553c1.416,0,2.747,0.551,3.748,1.553l30.475,30.474l-30.475,30.474   C606.994,351.587,605.662,352.139,604.246,352.139z M604.246,289.085c-1.149,0-2.229,0.447-3.042,1.26l-26.726,26.726   c-0.813,0.813-1.26,1.893-1.26,3.042c0,1.148,0.447,2.229,1.26,3.041l26.726,26.726c0.813,0.813,1.893,1.26,3.042,1.26   c1.148,0,2.229-0.447,3.041-1.26l29.768-29.767l-29.768-29.767C606.475,289.533,605.395,289.085,604.246,289.085z"/>
	<path class="st2" d="M604.246,346.241c-1.177,0-2.282-0.458-3.113-1.29l-21.727-21.726c-0.832-0.832-1.29-1.938-1.29-3.113   c0-1.176,0.458-2.282,1.29-3.114l21.727-21.726c0.831-0.832,1.937-1.29,3.113-1.29c1.176,0,2.281,0.458,3.113,1.29l24.84,24.839   l-24.84,24.84C606.528,345.783,605.422,346.241,604.246,346.241z M580.114,322.519l21.727,21.726c1.285,1.286,3.527,1.285,4.813,0   l24.133-24.133l-24.133-24.132c-1.285-1.285-3.527-1.286-4.813,0l-21.727,21.726c-0.643,0.643-0.997,1.498-0.997,2.407   C579.117,321.021,579.471,321.875,580.114,322.519L580.114,322.519z"/>
	<path class="st2" d="M604.246,339.038c-0.848,0-1.693-0.322-2.338-0.966l-15.621-15.622c-0.625-0.625-0.969-1.455-0.969-2.338   c0-0.883,0.344-1.713,0.969-2.338l15.621-15.621c1.289-1.289,3.387-1.289,4.676,0l17.959,17.959l-17.959,17.959   C605.94,338.715,605.092,339.038,604.246,339.038z M604.246,302.186c-0.591,0-1.182,0.225-1.631,0.674l-15.621,15.621   c-0.436,0.436-0.676,1.015-0.676,1.631c0,0.616,0.24,1.195,0.676,1.631l15.621,15.622c0.898,0.898,2.361,0.898,3.262,0   l17.252-17.252l-17.252-17.252C605.427,302.411,604.836,302.186,604.246,302.186z"/>
	<path class="st2" d="M604.246,333.638c-0.663,0-1.287-0.258-1.757-0.728l-11.042-11.042c-0.969-0.968-0.969-2.544,0-3.512   l11.042-11.042c0.939-0.938,2.575-0.938,3.513,0l12.799,12.798l-12.799,12.799C605.534,333.38,604.91,333.638,604.246,333.638z    M604.246,307.586c-0.396,0-0.77,0.154-1.05,0.435l-11.042,11.042c-0.28,0.28-0.435,0.653-0.435,1.049   c0,0.396,0.154,0.769,0.435,1.049l11.042,11.042c0.561,0.561,1.538,0.561,2.099,0l12.092-12.092l-12.092-12.091   C605.015,307.74,604.643,307.586,604.246,307.586z"/>
	<path class="st2" d="M604.245,328.282c-0.427,0-0.854-0.162-1.179-0.487l-6.503-6.503c-0.65-0.65-0.65-1.708,0-2.359l6.503-6.503   c0.649-0.649,1.706-0.651,2.359,0l7.682,7.683l-7.682,7.683C605.101,328.12,604.673,328.282,604.245,328.282z M604.246,312.941   c-0.171,0-0.343,0.065-0.473,0.195l-6.503,6.503c-0.261,0.261-0.261,0.684,0,0.945l6.503,6.503c0.26,0.259,0.686,0.261,0.945,0   l6.975-6.975l-6.975-6.975C604.588,313.007,604.417,312.941,604.246,312.941z"/>
	<path class="st2" d="M817.182,633.763c-3.991,0-7.981-1.52-11.02-4.558l-96.155-96.156L816.476,426.58L710.007,320.112   l106.468-106.468L710.007,107.176L817.183,0l320.112,320.112L828.202,629.205C825.163,632.243,821.173,633.763,817.182,633.763z    M711.421,533.049l95.448,95.449c5.686,5.686,14.939,5.686,20.625,0l308.387-308.386L817.183,1.414L711.421,107.176   l106.468,106.469L711.421,320.112L817.89,426.58L711.421,533.049z"/>
	<path class="st2" d="M820.146,624.967c-4.051,0-7.858-1.578-10.723-4.442l-93.489-93.489l103.505-103.506L715.934,320.025   l103.505-103.504L715.934,113.016L820.146,8.803l311.223,311.222l-300.5,300.499C828.004,623.389,824.196,624.967,820.146,624.967z    M717.348,527.035l92.782,92.782c2.675,2.676,6.232,4.149,10.016,4.149s7.34-1.474,10.016-4.149l299.793-299.792L820.146,10.217   L717.348,113.016l103.505,103.505L717.348,320.025l103.505,103.504L717.348,527.035z"/>
	<path class="st2" d="M823.287,615.634c-3.932,0-7.628-1.531-10.408-4.312l-90.662-90.662L822.58,420.296L722.217,319.933   L822.58,219.57L722.217,119.207l101.07-101.071l301.798,301.797L833.695,611.322C830.914,614.103,827.218,615.634,823.287,615.634z    M723.631,520.66l89.955,89.955c2.591,2.592,6.036,4.019,9.701,4.019c3.664,0,7.109-1.427,9.7-4.019l290.684-290.682L823.287,19.55   l-99.656,99.657L823.995,219.57L723.631,319.933l100.363,100.363L723.631,520.66z"/>
	<path class="st2" d="M828.491,600.168c-3.58,0-7.161-1.362-9.887-4.088l-85.979-85.98l95.16-95.16l-95.16-95.159l95.159-95.159   l-95.159-95.16l95.867-95.867l286.187,286.186l-276.301,276.3C835.652,598.806,832.072,600.168,828.491,600.168z M734.038,510.1   l85.272,85.273c5.063,5.061,13.3,5.061,18.359,0l275.594-275.593L828.492,35.008l-94.453,94.453l95.159,95.16l-95.159,95.159   l95.16,95.159L734.038,510.1z"/>
	<path class="st2" d="M830.578,593.975c-3.655,0-7.092-1.424-9.677-4.009l-84.102-84.102l93.072-93.073l-93.072-93.072   l93.072-93.072l-93.072-93.073l93.779-93.78l279.925,279.924L840.255,589.966C837.67,592.551,834.234,593.975,830.578,593.975z    M738.213,505.864l83.395,83.395c4.945,4.944,12.995,4.946,17.94,0l269.541-269.54L830.578,41.209l-92.365,92.366l93.072,93.073   l-93.072,93.072l93.072,93.072L738.213,505.864z"/>
	<path class="st2" d="M825.945,607.733c-3.674,0-7.347-1.398-10.143-4.194l-88.271-88.271l97.706-97.707l-97.706-97.706   l97.706-97.706l-97.706-97.707l98.413-98.414l293.826,293.826L836.086,603.539C833.29,606.335,829.618,607.733,825.945,607.733z    M728.946,515.268l87.563,87.564c5.202,5.203,13.666,5.203,18.87,0l282.978-282.977L825.945,27.443l-96.999,97l97.706,97.707   l-97.706,97.706l97.706,97.706L728.946,515.268z"/>
	<path class="st2" d="M833.335,585.783c-3.551,0-6.89-1.383-9.4-3.895l-81.621-81.621l90.315-90.315l-90.314-90.314l90.313-90.314   l-90.314-90.315l91.022-91.022l271.651,271.651l-262.251,262.25C840.226,584.4,836.887,585.783,833.335,585.783z M743.728,500.268   l80.914,80.914c2.322,2.322,5.409,3.602,8.693,3.602s6.372-1.279,8.694-3.602l261.544-261.543L833.336,49.401l-89.608,89.608   l90.314,90.315l-90.313,90.314l90.314,90.314L743.728,500.268z"/>
	<path class="st2" d="M836.414,576.632c-3.293,0-6.586-1.254-9.093-3.761l-78.851-78.851l87.236-87.237l-87.235-87.235   l87.235-87.235l-87.236-87.237l87.944-87.943l262.415,262.416L845.507,572.871C843,575.378,839.707,576.632,836.414,576.632z    M749.885,494.021l78.144,78.144c4.623,4.623,12.148,4.623,16.771,0l252.616-252.616L836.415,58.546l-86.53,86.529l87.236,87.237   l-87.235,87.235l87.235,87.235L749.885,494.021z"/>
	<path class="st2" d="M839.795,566.593c-3.307,0-6.416-1.287-8.754-3.626l-75.808-75.809l83.855-83.855l-83.855-83.854   l83.854-83.854l-83.854-83.855l84.563-84.562l252.271,252.272L848.55,562.967C846.212,565.306,843.103,566.593,839.795,566.593z    M756.648,487.158l75.101,75.102c4.438,4.437,11.657,4.438,16.095,0l242.811-242.811L839.796,68.591l-83.148,83.148l83.854,83.855   l-83.854,83.854l83.855,83.854L756.648,487.158z"/>
	<path class="st2" d="M843.502,555.577c-3.036,0-6.072-1.155-8.384-3.467l-72.473-72.473l80.149-80.149l-80.148-80.148   l80.148-80.148l-80.149-80.149l80.856-80.856l241.153,241.153L851.885,552.11C849.574,554.422,846.537,555.577,843.502,555.577z    M764.06,479.638l71.766,71.766c4.234,4.233,11.122,4.232,15.353,0l232.063-232.063L843.502,79.601l-79.442,79.442l80.149,80.149   l-80.148,80.148l80.148,80.148L764.06,479.638z"/>
	<path class="st2" d="M846.973,545.265c-2.909,0-5.819-1.107-8.035-3.322l-69.349-69.35l76.678-76.678l-76.678-76.677l76.677-76.677   l-76.677-76.678l77.385-77.385l230.739,230.74L855.008,541.942C852.793,544.157,849.883,545.265,846.973,545.265z M771.003,472.593   l68.642,68.643c4.042,4.043,10.616,4.041,14.656,0l221.998-221.997L846.974,89.913l-75.971,75.971l76.677,76.678l-76.677,76.677   l76.678,76.677L771.003,472.593z"/>
	<path class="st2" d="M850.791,533.926c-2.771,0-5.544-1.055-7.653-3.165l-65.914-65.915l72.86-72.86l-72.86-72.859l72.859-72.859   l-72.859-72.86l73.567-73.567l219.287,219.287L858.444,530.761C856.334,532.871,853.563,533.926,850.791,533.926z M778.638,464.846   l65.207,65.208c3.83,3.829,10.062,3.831,13.892,0l210.928-210.928L850.791,101.253l-72.153,72.153l72.859,72.86l-72.859,72.859   l72.86,72.859L778.638,464.846z"/>
	<path class="st2" d="M855.14,521.011c-2.727,0-5.289-1.062-7.217-2.989l-62.001-62.001l68.511-68.512l-68.511-68.51l68.511-68.511   l-68.511-68.511l69.218-69.218l206.24,206.24L862.357,518.021C860.429,519.949,857.866,521.011,855.14,521.011z M787.336,456.021   l61.294,61.294c1.738,1.739,4.051,2.696,6.51,2.696s4.771-0.957,6.51-2.696l198.316-198.316L855.14,114.172l-67.804,67.804   l68.511,68.511l-68.511,68.511l68.511,68.51L787.336,456.021z"/>
	<path class="st2" d="M859.893,506.886c-2.441,0-4.883-0.929-6.741-2.787l-57.724-57.725l63.758-63.758l-63.758-63.757   l63.758-63.757l-63.758-63.758l64.466-64.465l191.979,191.98l-185.239,185.24C864.776,505.957,862.334,506.886,859.893,506.886z    M796.842,446.374l57.017,57.018c3.327,3.327,8.741,3.326,12.068,0l184.532-184.533L859.894,128.292l-63.052,63.051l63.758,63.758   l-63.758,63.757l63.758,63.757L796.842,446.374z"/>
	<path class="st2" d="M865.634,489.829c-2.232,0-4.465-0.85-6.165-2.55l-52.557-52.558l58.016-58.016l-58.016-58.016l58.016-58.015   l-58.016-58.016l58.723-58.723L1040.39,318.69L871.8,487.279C870.1,488.979,867.868,489.829,865.634,489.829z M808.327,434.722   l51.85,51.851c1.458,1.458,3.396,2.261,5.459,2.261c2.062,0,4-0.803,5.458-2.261l167.883-167.882l-173.341-173.34l-57.309,57.309   l58.016,58.016l-58.016,58.015l58.016,58.016L808.327,434.722z"/>
	<path class="st2" d="M869.942,477.04c-2.166,0-4.203-0.844-5.734-2.375l-48.682-48.683l53.709-53.709l-53.709-53.709l53.709-53.708   l-53.709-53.709l54.416-54.417l161.835,161.834L875.676,474.665C874.145,476.196,872.108,477.04,869.942,477.04z M816.94,425.982   l47.975,47.976c1.343,1.343,3.128,2.082,5.027,2.082s3.685-0.739,5.027-2.082l155.394-155.394l-160.421-160.42l-53.002,53.002   l53.709,53.709l-53.709,53.708l53.709,53.709L816.94,425.982z"/>
	<path class="st2" d="M875.684,459.981c-1.949,0-3.781-0.759-5.159-2.137l-43.516-43.515l47.968-47.968l-47.967-47.967   l47.967-47.967l-47.968-47.967l48.675-48.674l144.608,144.608l-139.45,139.449C879.464,459.223,877.632,459.981,875.684,459.981z    M828.423,414.33l42.809,42.808c1.189,1.189,2.771,1.844,4.452,1.844s3.263-0.654,4.451-1.844l138.743-138.742L875.684,175.201   l-47.261,47.26l47.968,47.967l-47.967,47.967l47.967,47.967L828.423,414.33z"/>
	<path class="st2" d="M879.273,449.317c-1.738,0-3.477-0.661-4.8-1.984l-40.286-40.286l44.379-44.379l-44.378-44.377l44.378-44.378   l-44.379-44.379l45.086-45.085l133.842,133.842L884.072,447.333C882.748,448.656,881.01,449.317,879.273,449.317z M835.601,407.047   l39.579,39.579c2.256,2.256,5.929,2.256,8.185,0l128.336-128.335L879.273,185.862l-43.672,43.671l44.379,44.379l-44.378,44.378   l44.378,44.377L835.601,407.047z"/>
	<path class="st2" d="M885.014,432.264c-1.595,0-3.096-0.622-4.224-1.75l-35.119-35.119l38.637-38.637l-38.637-38.636l38.637-38.636   l-38.637-38.636l39.344-39.343l116.615,116.616L889.239,430.514C888.111,431.642,886.61,432.264,885.014,432.264z M847.085,395.395   l34.412,34.412c0.939,0.939,2.188,1.457,3.517,1.457c1.329,0,2.578-0.518,3.518-1.457l111.685-111.685L885.015,202.92   l-37.93,37.929l38.637,38.636l-38.637,38.636l38.637,38.636L847.085,395.395z"/>
	<path class="st2" d="M890.038,417.335c-1.347,0-2.694-0.513-3.721-1.538l-30.598-30.599l33.612-33.612l-33.612-33.611   l33.611-33.612L855.72,250.75l34.319-34.319l101.543,101.543l-97.822,97.822C892.734,416.822,891.386,417.335,890.038,417.335z    M857.134,385.198l29.891,29.892c1.663,1.661,4.367,1.659,6.028,0l97.115-97.115L890.039,217.846l-32.905,32.905l33.611,33.612   l-33.611,33.612l33.612,33.611L857.134,385.198z"/>
	<path class="st2" d="M893.627,406.677c-1.27,0-2.464-0.495-3.361-1.393l-27.368-27.369l30.023-30.023l-30.023-30.023l30.022-30.023   l-30.022-30.023l30.73-30.73l90.776,90.776l-87.416,87.415C896.091,406.182,894.897,406.677,893.627,406.677z M864.312,377.915   l26.661,26.662c1.418,1.418,3.891,1.418,5.309,0l86.709-86.708l-89.362-89.362l-29.316,29.316l30.022,30.023l-30.022,30.023   l30.023,30.023L864.312,377.915z"/>
	<path class="st2" d="M897.934,393.884c-1.106,0-2.147-0.432-2.93-1.214l-23.493-23.494l25.716-25.717l-25.716-25.716l25.716-25.716   l-25.716-25.717l26.424-26.423l77.856,77.856l-74.928,74.927C900.081,393.452,899.04,393.884,897.934,393.884z M872.925,369.176   l22.786,22.787c1.227,1.225,3.219,1.225,4.445,0l74.221-74.22L897.935,241.3l-25.01,25.009l25.716,25.717l-25.716,25.716   l25.716,25.716L872.925,369.176z"/>
	<path class="st2" d="M902.958,378.958c-0.916,0-1.778-0.356-2.426-1.005l-18.974-18.974l20.692-20.692l-20.692-20.692   l20.692-20.692l-20.692-20.692l21.399-21.399l62.784,62.784l-60.357,60.358C904.738,378.602,903.875,378.958,902.958,378.958z    M882.973,358.979l18.267,18.267c0.92,0.919,2.522,0.918,3.438,0l59.65-59.651l-61.37-61.37l-19.985,19.985l20.692,20.692   l-20.692,20.692l20.692,20.692L882.973,358.979z"/>
	<path class="st2" d="M906.548,368.295c-0.749,0-1.498-0.284-2.067-0.854l-15.744-15.744l17.104-17.104l-17.104-17.103   l17.104-17.104l-17.104-17.104l17.811-17.811l52.018,52.018l-49.95,49.95C908.045,368.011,907.296,368.295,906.548,368.295z    M890.151,351.697l15.037,15.037c0.751,0.751,1.971,0.749,2.72,0l49.243-49.243l-50.604-50.604l-16.396,16.396l17.104,17.104   l-17.104,17.104l17.104,17.103L890.151,351.697z"/>
	<path class="st2" d="M910.854,355.503c-0.593,0-1.185-0.226-1.636-0.677l-11.868-11.869l12.797-12.797l-12.797-12.797   l12.797-12.797L897.35,291.77l13.504-13.504l39.098,39.098l-37.462,37.462C912.038,355.277,911.447,355.503,910.854,355.503z    M898.764,342.958l11.161,11.162c0.512,0.512,1.346,0.512,1.857,0l36.755-36.755l-37.684-37.684l-12.09,12.09l12.797,12.797   l-12.797,12.797l12.797,12.797L898.764,342.958z"/>
	<path class="st2" d="M914.083,345.908c-0.475,0-0.95-0.181-1.312-0.542l-8.962-8.962l9.567-9.567l-9.567-9.567l9.567-9.567   l-9.567-9.567l10.274-10.274l29.407,29.408l-28.096,28.096C915.035,345.727,914.559,345.908,914.083,345.908z M905.224,336.403   l8.255,8.255c0.335,0.333,0.877,0.333,1.21,0l27.389-27.389l-27.993-27.994l-8.86,8.86l9.567,9.567l-9.567,9.567l9.567,9.567   L905.224,336.403z"/>
	<path class="st2" d="M916.955,337.38c-0.388,0-0.751-0.151-1.024-0.424l-6.379-6.379l6.696-6.696l-6.696-6.696l6.695-6.696   l-6.695-6.696l7.403-7.403l20.795,20.795l-19.771,19.771C917.705,337.229,917.342,337.38,916.955,337.38z M910.966,330.577   l5.672,5.672c0.169,0.169,0.463,0.17,0.634,0l19.064-19.064l-19.381-19.381l-5.989,5.989l6.695,6.696l-6.695,6.696l6.696,6.696   L910.966,330.577z"/>
	<path class="st2" d="M919.108,330.983c-0.305,0-0.592-0.119-0.809-0.334l-4.44-4.441l4.542-4.543l-4.542-4.542l4.542-4.543   l-4.542-4.542l5.249-5.25l14.336,14.335l-13.527,13.526C919.701,330.864,919.413,330.983,919.108,330.983z M915.273,326.207   l3.733,3.734c0.05,0.048,0.155,0.047,0.203,0l12.82-12.82L919.108,304.2l-3.835,3.836l4.542,4.542l-4.542,4.543l4.542,4.542   L915.273,326.207z"/>
</g>
<g class="st3">
	<path class="st2" d="M118.22,564.208c-2.925,0-5.85-1.114-8.077-3.341L49.34,500.064c-4.454-4.454-4.454-11.7,0-16.154   l60.803-60.803c4.454-4.453,11.7-4.453,16.154,0l68.88,68.88l-68.88,68.88C124.07,563.094,121.145,564.208,118.22,564.208z    M118.22,420.767c-2.669,0-5.338,1.016-7.37,3.048l-60.803,60.803c-4.064,4.063-4.064,10.677,0,14.74l60.803,60.803   c4.063,4.064,10.677,4.064,14.74,0l68.173-68.173l-68.173-68.173C123.558,421.782,120.889,420.767,118.22,420.767z"/>
	<path class="st2" d="M118.22,560.809c-2.913,0-5.651-1.135-7.711-3.194l-57.917-57.916c-4.251-4.252-4.251-11.17,0-15.422   l57.917-57.916c2.06-2.06,4.798-3.194,7.711-3.194s5.651,1.135,7.711,3.194l65.627,65.627l-65.627,65.627   C123.871,559.674,121.133,560.809,118.22,560.809z M53.3,498.991l57.917,57.916c3.862,3.861,10.146,3.861,14.008,0l64.92-64.92   l-64.92-64.92c-3.862-3.861-10.146-3.861-14.008,0L53.3,484.983C49.438,488.846,49.438,495.129,53.3,498.991L53.3,498.991z"/>
	<path class="st2" d="M118.22,556.296c-2.729,0-5.295-1.063-7.225-2.993l-54.091-54.091c-3.984-3.983-3.984-10.466,0-14.449   l54.091-54.091c1.93-1.93,4.496-2.993,7.225-2.993s5.295,1.063,7.225,2.993l61.315,61.315l-61.315,61.315   C123.515,555.232,120.949,556.296,118.22,556.296z M118.22,428.679c-2.462,0-4.776,0.959-6.518,2.7L57.612,485.47   c-1.741,1.741-2.7,4.056-2.7,6.518s0.959,4.776,2.7,6.518l54.091,54.091c1.741,1.741,4.056,2.7,6.518,2.7s4.776-0.959,6.518-2.7   l60.608-60.608l-60.608-60.608C122.996,429.638,120.682,428.679,118.22,428.679z"/>
	<path class="st2" d="M118.22,551.17c-2.521,0-4.891-0.981-6.673-2.764L61.801,498.66c-1.783-1.782-2.764-4.152-2.764-6.673   s0.981-4.891,2.764-6.673l49.746-49.746c1.782-1.782,4.152-2.764,6.673-2.764s4.891,0.981,6.673,2.764l56.419,56.419   l-56.419,56.419C123.111,550.188,120.741,551.17,118.22,551.17z M118.22,433.809c-2.161,0-4.321,0.822-5.966,2.467l-49.746,49.746   c-1.594,1.594-2.471,3.712-2.471,5.966s0.877,4.372,2.471,5.966l49.746,49.746c3.29,3.289,8.642,3.289,11.932,0l55.712-55.712   l-55.712-55.712C122.541,434.631,120.381,433.809,118.22,433.809z"/>
	<path class="st2" d="M118.22,546.302c-2.323,0-4.506-0.904-6.148-2.547l-45.62-45.619c-1.643-1.643-2.547-3.826-2.547-6.148   s0.904-4.506,2.547-6.148l45.62-45.619c1.642-1.643,3.826-2.547,6.148-2.547s4.506,0.904,6.148,2.547l51.768,51.768l-51.768,51.768   C122.726,545.397,120.543,546.302,118.22,546.302z M118.22,438.673c-2.056,0-3.988,0.8-5.441,2.254l-45.62,45.619   c-1.454,1.453-2.254,3.386-2.254,5.441s0.8,3.988,2.254,5.441l45.62,45.619c1.454,1.454,3.386,2.254,5.441,2.254   s3.988-0.8,5.441-2.254l51.061-51.061l-51.061-51.061C122.208,439.473,120.276,438.673,118.22,438.673z"/>
	<path class="st2" d="M118.22,541.822c-2.14,0-4.153-0.834-5.666-2.348l-41.822-41.821c-1.514-1.514-2.347-3.525-2.347-5.666   s0.833-4.152,2.347-5.666l41.822-41.821c1.513-1.514,3.526-2.348,5.666-2.348s4.152,0.834,5.666,2.348l47.488,47.487   l-47.488,47.487C122.372,540.988,120.36,541.822,118.22,541.822z M118.22,443.152c-1.873,0-3.634,0.729-4.959,2.055l-41.822,41.821   c-1.325,1.324-2.054,3.086-2.054,4.959s0.729,3.635,2.054,4.959l41.822,41.821c1.325,1.325,3.086,2.055,4.959,2.055   s3.634-0.729,4.959-2.055l46.781-46.78l-46.781-46.78C121.854,443.882,120.093,443.152,118.22,443.152z"/>
	<path class="st2" d="M118.22,536.339c-1.838,0-3.677-0.7-5.076-2.1l-37.176-37.176c-2.799-2.799-2.799-7.354,0-10.152   l37.176-37.176c2.799-2.799,7.354-2.799,10.152,0l42.252,42.252l-42.252,42.252C121.897,535.639,120.058,536.339,118.22,536.339z    M118.22,448.636c-1.582,0-3.165,0.603-4.369,1.807l-37.176,37.176c-2.409,2.409-2.409,6.329,0,8.738l37.176,37.176   c2.409,2.408,6.329,2.408,8.738,0l41.545-41.545l-41.545-41.545C121.385,449.238,119.802,448.636,118.22,448.636z"/>
	<path class="st2" d="M118.22,531.185c-1.708,0-3.313-0.665-4.521-1.873l-32.804-32.804c-2.492-2.492-2.492-6.549,0-9.041   l32.804-32.804c1.208-1.208,2.813-1.873,4.521-1.873s3.313,0.665,4.521,1.873l37.324,37.324l-37.324,37.324   C121.533,530.52,119.928,531.185,118.22,531.185z M81.603,495.801l32.804,32.804c1.019,1.019,2.373,1.58,3.813,1.58   s2.795-0.562,3.813-1.58l36.617-36.617l-36.617-36.617c-1.019-1.019-2.373-1.58-3.813-1.58s-2.795,0.562-3.813,1.58l-32.804,32.804   C79.501,490.276,79.501,493.698,81.603,495.801L81.603,495.801z"/>
	<path class="st2" d="M118.22,526.026c-1.498,0-2.906-0.583-3.965-1.643l-28.431-28.432c-1.059-1.059-1.643-2.467-1.643-3.965   s0.583-2.906,1.643-3.965l28.431-28.432c1.059-1.06,2.467-1.643,3.965-1.643s2.906,0.583,3.965,1.643l32.396,32.396l-32.396,32.396   C121.126,525.443,119.718,526.026,118.22,526.026z M118.22,458.948c-1.231,0-2.388,0.479-3.258,1.35l-28.431,28.432   c-0.87,0.87-1.35,2.027-1.35,3.258s0.479,2.388,1.35,3.258l28.431,28.432c0.87,0.87,2.027,1.35,3.258,1.35s2.388-0.479,3.258-1.35   l31.689-31.689l-31.689-31.689C120.608,459.428,119.451,458.948,118.22,458.948z"/>
	<path class="st2" d="M118.22,520.547c-1.275,0-2.474-0.497-3.375-1.398l-23.786-23.786c-1.861-1.861-1.861-4.889,0-6.75   l23.786-23.786c0.901-0.901,2.1-1.398,3.375-1.398s2.474,0.497,3.375,1.398l27.161,27.161l-27.161,27.161   C120.694,520.05,119.495,520.547,118.22,520.547z M118.22,464.428c-1.008,0-1.955,0.393-2.668,1.105l-23.786,23.786   c-0.713,0.713-1.105,1.66-1.105,2.668s0.393,1.955,1.105,2.668l23.786,23.786c1.426,1.426,3.911,1.426,5.336,0l26.454-26.454   l-26.454-26.454C120.176,464.82,119.228,464.428,118.22,464.428z"/>
	<path class="st2" d="M118.22,515.063c-1.009,0-2.017-0.384-2.785-1.151l-19.14-19.14c-1.536-1.536-1.536-4.034,0-5.57l19.14-19.14   c1.536-1.535,4.034-1.535,5.57,0l21.925,21.925l-21.925,21.925C120.237,514.68,119.229,515.063,118.22,515.063z M97.002,494.065   l19.14,19.14c1.146,1.145,3.011,1.145,4.156,0l21.218-21.218l-21.218-21.218c-1.146-1.145-3.011-1.145-4.156,0l-19.14,19.14   c-0.555,0.555-0.86,1.293-0.86,2.078S96.447,493.511,97.002,494.065L97.002,494.065z"/>
	<path class="st2" d="M118.22,510.841c-0.844,0-1.688-0.321-2.33-0.964l-15.56-15.56c-1.284-1.285-1.284-3.375,0-4.66l15.56-15.56   c1.285-1.285,3.375-1.285,4.66,0l17.89,17.89l-17.89,17.89C119.908,510.52,119.064,510.841,118.22,510.841z M101.037,493.61   l15.56,15.56c0.867,0.867,2.379,0.867,3.246,0l17.183-17.183l-17.183-17.183c-0.867-0.867-2.379-0.867-3.246,0l-15.56,15.56   C100.142,491.259,100.142,492.716,101.037,493.61L101.037,493.61z"/>
	<path class="st2" d="M118.22,505.684c-0.643,0-1.286-0.245-1.775-0.734l-11.188-11.188c-0.474-0.474-0.735-1.104-0.735-1.774   s0.261-1.301,0.735-1.774l11.188-11.188c0.979-0.979,2.571-0.979,3.55,0l12.962,12.962l-12.962,12.962   C119.506,505.438,118.863,505.684,118.22,505.684z M118.22,479.29c-0.403,0-0.783,0.157-1.068,0.442l-11.188,11.188   c-0.285,0.285-0.442,0.664-0.442,1.067s0.157,0.782,0.442,1.067l11.188,11.188c0.57,0.57,1.565,0.57,2.136,0l12.255-12.255   l-12.255-12.255C119.003,479.447,118.623,479.29,118.22,479.29z"/>
	<path class="st2" d="M118.22,501.815c-0.492,0-0.983-0.188-1.358-0.562l-7.909-7.908c-0.749-0.749-0.749-1.968,0-2.717l7.909-7.908   c0.749-0.748,1.967-0.748,2.716,0l9.267,9.267l-9.267,9.267C119.203,501.628,118.712,501.815,118.22,501.815z M109.661,492.639   l7.909,7.908c0.359,0.359,0.942,0.359,1.302,0l8.56-8.56l-8.56-8.56c-0.359-0.359-0.942-0.359-1.302,0l-7.909,7.908   C109.302,491.695,109.302,492.279,109.661,492.639L109.661,492.639z"/>
	<path class="st2" d="M118.22,497.979c-0.342,0-0.685-0.13-0.945-0.389l-4.658-4.658c-0.52-0.521-0.52-1.369,0-1.891l4.657-4.657   c0.521-0.52,1.37-0.519,1.89-0.001l5.603,5.604l-5.602,5.603C118.905,497.85,118.562,497.979,118.22,497.979z M113.326,492.226   l4.656,4.657c0.131,0.131,0.345,0.132,0.477-0.001l4.895-4.895l-4.895-4.896c-0.131-0.131-0.345-0.132-0.477,0.001l-4.656,4.656   C113.194,491.88,113.194,492.095,113.326,492.226L113.326,492.226z"/>
	<path class="st2" d="M270.721,716.759c-2.895,0-5.789-1.103-7.993-3.306l-68.965-68.965l76.25-76.251l-76.25-76.25l76.25-76.25   l-76.25-76.25l76.958-76.958l229.458,229.458L278.713,713.453C276.509,715.656,273.615,716.759,270.721,716.759z M195.177,644.488   l68.258,68.258c4.019,4.018,10.554,4.018,14.571,0l220.759-220.759L270.721,263.943l-75.544,75.543l76.25,76.25l-76.25,76.25   l76.25,76.25L195.177,644.488z"/>
	<path class="st2" d="M272.843,710.454c-2.817,0-5.635-1.073-7.78-3.218l-67.055-67.056l74.128-74.128l-74.128-74.128l74.128-74.127   l-74.128-74.128l74.835-74.835l223.091,223.091L280.622,707.236C278.477,709.381,275.66,710.454,272.843,710.454z M199.422,640.181   l66.348,66.349c3.9,3.9,10.245,3.9,14.146,0L494.52,491.925L272.843,270.248l-73.421,73.421l74.128,74.128l-74.128,74.127   l74.128,74.128L199.422,640.181z"/>
	<path class="st2" d="M275.092,703.771c-2.736,0-5.471-1.041-7.554-3.124l-65.031-65.031l71.878-71.879l-71.878-71.877   l71.878-71.878l-71.878-71.878l72.586-72.585l216.341,216.342L282.647,700.646C280.564,702.729,277.828,703.771,275.092,703.771z    M203.921,635.615l64.324,64.324c3.776,3.776,9.92,3.774,13.695,0l208.081-208.08L275.093,276.932l-71.172,71.171l71.878,71.878   l-71.878,71.878l71.878,71.877L203.921,635.615z"/>
	<path class="st2" d="M278.819,692.704c-2.712,0-5.263-1.056-7.181-2.975l-61.678-61.678l68.152-68.151l-68.151-68.15l68.151-68.151   l-68.151-68.151l68.859-68.858L483.981,491.75L286,689.729C284.082,691.648,281.532,692.704,278.819,692.704z M211.375,628.052   l60.971,60.971c1.729,1.729,4.028,2.682,6.474,2.682s4.745-0.952,6.474-2.682L482.567,491.75L278.82,288.003l-67.445,67.444   l68.151,68.151l-68.151,68.151l68.151,68.15L211.375,628.052z"/>
	<path class="st2" d="M280.314,688.259c-2.546,0-5.093-0.969-7.031-2.907l-60.333-60.333l66.657-66.656l-66.656-66.656   l66.656-66.656l-66.657-66.657l67.364-67.364l200.676,200.677L287.345,685.352C285.407,687.29,282.861,688.259,280.314,688.259z    M214.365,625.019l59.625,59.626c3.487,3.486,9.161,3.486,12.648,0l192.939-192.938L280.315,292.443l-65.95,65.95l66.657,66.657   l-66.656,66.656l66.656,66.656L214.365,625.019z"/>
	<path class="st2" d="M276.995,698.117c-2.667,0-5.333-1.015-7.364-3.045l-63.318-63.319l69.976-69.975l-69.975-69.975   l69.975-69.975l-69.975-69.976l70.683-70.683l210.632,210.633L284.359,695.072C282.329,697.103,279.662,698.117,276.995,698.117z    M207.727,631.753l62.611,62.612c3.671,3.67,9.643,3.67,13.313,0l202.562-202.562L276.996,282.585l-69.269,69.269l69.975,69.976   l-69.975,69.975l69.975,69.975L207.727,631.753z"/>
	<path class="st2" d="M282.289,682.397c-2.581,0-5.008-1.006-6.833-2.831l-58.555-58.556l64.682-64.682l-64.682-64.681   l64.681-64.682l-64.681-64.682l65.389-65.389l194.751,194.752L289.122,679.566C287.297,681.392,284.87,682.397,282.289,682.397z    M218.315,621.011l57.848,57.849c1.636,1.637,3.812,2.538,6.126,2.538c2.314,0,4.49-0.901,6.126-2.538l187.211-187.211   L282.289,298.311l-63.975,63.975l64.681,64.682l-64.681,64.682l64.682,64.681L218.315,621.011z"/>
	<path class="st2" d="M284.494,675.843c-2.395,0-4.789-0.911-6.612-2.734l-56.571-56.572l62.477-62.477l-62.477-62.477   l62.477-62.476L221.31,366.63l63.184-63.184l188.137,188.137L291.106,673.108C289.283,674.932,286.889,675.843,284.494,675.843z    M222.724,616.536l55.864,55.865c3.256,3.256,8.555,3.256,11.811,0l180.818-180.818L284.495,304.86l-61.77,61.77l62.477,62.478   l-62.477,62.476l62.477,62.477L222.724,616.536z"/>
	<path class="st2" d="M286.916,668.653c-2.407,0-4.668-0.937-6.37-2.639l-54.393-54.393l60.056-60.055l-60.055-60.055l60.055-60.056   l-60.055-60.055l60.763-60.763l180.873,180.873L293.286,666.015C291.584,667.717,289.322,668.653,286.916,668.653z    M227.567,611.622l53.686,53.686c1.513,1.513,3.524,2.346,5.663,2.346c2.139,0,4.15-0.833,5.663-2.346l173.796-173.795   L286.916,312.054l-59.349,59.349l60.055,60.055l-60.055,60.056l60.055,60.055L227.567,611.622z"/>
	<path class="st2" d="M289.57,660.765c-2.21,0-4.421-0.842-6.104-2.524l-52.004-52.004l57.401-57.401l-57.401-57.4l57.4-57.4   l-57.401-57.401l58.108-58.108l172.91,172.91L295.674,658.24C293.991,659.923,291.781,660.765,289.57,660.765z M232.876,606.236   l51.297,51.297c2.977,2.975,7.818,2.975,10.794,0l166.099-166.099L289.57,319.939l-56.694,56.694l57.401,57.401l-57.4,57.4   l57.401,57.4L232.876,606.236z"/>
	<path class="st2" d="M292.056,653.379c-2.121,0-4.241-0.807-5.855-2.421l-49.767-49.768l54.915-54.915l-54.915-54.914   l54.915-54.914l-54.915-54.915l55.622-55.622l165.451,165.451L297.911,650.958C296.297,652.572,294.176,653.379,292.056,653.379z    M237.849,601.19l49.06,49.061c2.838,2.838,7.457,2.838,10.296,0l158.89-158.89L292.057,327.324l-54.208,54.208l54.915,54.915   l-54.915,54.914l54.915,54.914L237.849,601.19z"/>
	<path class="st2" d="M294.79,645.262c-2.108,0-4.09-0.821-5.581-2.313l-47.307-47.307l52.181-52.181l-52.181-52.181l52.181-52.181   l-52.181-52.181l52.888-52.888l157.249,157.25L300.371,642.949C298.88,644.44,296.898,645.262,294.79,645.262z M243.316,595.643   l46.6,46.6c1.302,1.302,3.033,2.02,4.874,2.02c1.841,0,3.572-0.718,4.874-2.02l150.961-150.961L294.79,335.446l-51.474,51.474   l52.181,52.181l-52.181,52.181l52.181,52.181L243.316,595.643z"/>
	<path class="st2" d="M297.905,636.009c-1.99,0-3.862-0.775-5.269-2.183l-44.504-44.505l49.066-49.065l-49.066-49.066l49.066-49.065   l-49.066-49.066l49.773-49.773L445.81,491.189L303.174,633.826C301.766,635.233,299.895,636.009,297.905,636.009z M249.546,589.321   l43.797,43.798c2.516,2.516,6.608,2.516,9.124,0l141.929-141.93L297.905,344.699l-48.359,48.359l49.066,49.066l-49.066,49.065   l49.066,49.066L249.546,589.321z"/>
	<path class="st2" d="M301.309,625.893c-1.785,0-3.57-0.68-4.928-2.038l-41.441-41.44l45.662-45.662L254.94,491.09l45.662-45.661   l-45.662-45.662l46.369-46.37L439.002,491.09L306.237,623.854C304.878,625.213,303.094,625.893,301.309,625.893z M256.354,582.414   l40.734,40.733c2.327,2.327,6.114,2.329,8.442,0L437.588,491.09L301.309,354.811l-44.955,44.956l45.662,45.662l-45.662,45.661   l45.662,45.662L256.354,582.414z"/>
	<path class="st2" d="M305.421,613.677c-1.635,0-3.271-0.622-4.516-1.867l-37.741-37.741l41.55-41.55l-41.549-41.55l41.549-41.549   l-41.55-41.55l42.257-42.257l125.356,125.355L309.937,611.81C308.692,613.055,307.057,613.677,305.421,613.677z M264.578,574.068   l37.034,37.034c1.018,1.018,2.37,1.578,3.809,1.578c1.439,0,2.792-0.561,3.809-1.578l120.133-120.134L305.421,367.027   l-40.843,40.843l41.55,41.55l-41.549,41.549l41.549,41.55L264.578,574.068z"/>
	<path class="st2" d="M308.505,604.518c-1.589,0-3.083-0.619-4.207-1.743l-34.965-34.965l38.466-38.466l-38.465-38.465   l38.465-38.465l-38.465-38.466l39.173-39.173l116.103,116.104L312.712,602.774C311.589,603.898,310.095,604.518,308.505,604.518z    M270.747,567.81l34.258,34.258c0.935,0.936,2.178,1.45,3.5,1.45c1.322,0,2.565-0.515,3.5-1.45l111.189-111.188L308.506,376.189   l-37.759,37.759l38.465,38.466l-38.465,38.465l38.465,38.465L270.747,567.81z"/>
	<path class="st2" d="M312.618,592.299c-1.374,0-2.749-0.523-3.795-1.569l-31.265-31.266l34.353-34.354l-34.353-34.353   l34.353-34.353l-34.353-34.354l35.06-35.06l103.766,103.766l-99.971,99.972C315.367,591.775,313.992,592.299,312.618,592.299z    M278.972,559.464l30.558,30.559c1.703,1.701,4.474,1.703,6.176,0l99.264-99.265L312.618,388.406l-33.646,33.646l34.353,34.354   l-34.353,34.353l34.353,34.353L278.972,559.464z"/>
	<path class="st2" d="M315.188,584.666c-1.336,0-2.593-0.521-3.538-1.466l-28.952-28.952l31.783-31.783l-31.783-31.782   l31.782-31.782l-31.783-31.783l32.49-32.49l96.055,96.056L318.725,583.2C317.781,584.146,316.524,584.666,315.188,584.666z    M284.112,554.248l28.245,28.245c0.756,0.756,1.762,1.173,2.831,1.173c1.069,0,2.075-0.417,2.831-1.173l91.811-91.811   l-94.641-94.642l-31.076,31.076l31.783,31.783l-31.782,31.782l31.783,31.782L284.112,554.248z"/>
	<path class="st2" d="M319.3,572.447c-1.132,0-2.264-0.431-3.125-1.292l-25.252-25.253l27.671-27.67l-27.67-27.671l27.67-27.67   l-27.67-27.67l28.378-28.378l83.718,83.718l-80.593,80.594C321.564,572.017,320.432,572.447,319.3,572.447z M292.337,545.902   l24.545,24.546c1.334,1.332,3.504,1.331,4.837,0l79.886-79.887l-82.304-82.304l-26.964,26.964l27.67,27.67l-27.67,27.67   l27.67,27.671L292.337,545.902z"/>
	<path class="st2" d="M322.899,561.758c-1.001,0-2.003-0.381-2.765-1.143l-22.014-22.015l24.072-24.072l-24.072-24.072   l24.072-24.071l-24.072-24.072l24.779-24.779l72.923,72.923l-70.158,70.159C324.901,561.377,323.9,561.758,322.899,561.758z    M299.534,538.601l21.307,21.308c1.134,1.134,2.98,1.135,4.116,0l69.451-69.452l-71.509-71.509l-23.365,23.365l24.072,24.072   l-24.072,24.071l24.072,24.072L299.534,538.601z"/>
	<path class="st2" d="M325.469,554.124c-0.947,0-1.838-0.368-2.507-1.038l-19.701-19.701l21.502-21.502l-21.502-21.502   l21.501-21.502l-21.501-21.502l22.209-22.209l65.213,65.213l-62.706,62.705C327.307,553.756,326.416,554.124,325.469,554.124z    M304.674,533.385l18.994,18.994c0.994,0.992,2.608,0.993,3.601,0l61.999-61.998l-63.799-63.799l-20.795,20.795l21.501,21.502   l-21.501,21.502l21.502,21.502L304.674,533.385z"/>
	<path class="st2" d="M328.553,544.963c-0.831,0-1.611-0.323-2.199-0.911l-16.926-16.926l18.417-18.418l-18.417-18.418   l18.417-18.417l-18.417-18.418l19.125-19.125l55.96,55.96l-53.761,53.762C330.164,544.64,329.384,544.963,328.553,544.963z    M310.843,527.126l16.219,16.219c0.797,0.797,2.187,0.797,2.983,0l53.054-53.055l-54.546-54.546l-17.71,17.711l18.417,18.418   l-18.417,18.417l18.417,18.418L310.843,527.126z"/>
	<path class="st2" d="M332.152,534.273c-0.695,0-1.348-0.271-1.838-0.762l-13.688-13.688l14.82-14.819l-14.819-14.819l14.819-14.819   l-14.819-14.819l15.527-15.526l45.165,45.165l-43.327,43.327C333.499,534.003,332.846,534.273,332.152,534.273z M318.039,519.823   l12.981,12.981c0.604,0.604,1.657,0.605,2.262,0l42.62-42.62l-43.751-43.751l-14.113,14.112l14.819,14.819l-14.819,14.819   l14.819,14.819L318.039,519.823z"/>
	<path class="st2" d="M334.722,526.637c-0.572,0-1.145-0.218-1.581-0.653l-11.375-11.376l12.249-12.249l-12.249-12.249   l12.249-12.249l-12.249-12.249l12.956-12.956l37.455,37.454l-35.874,35.874C335.867,526.419,335.294,526.637,334.722,526.637z    M323.18,514.607l10.668,10.669c0.481,0.482,1.266,0.482,1.747,0l35.167-35.167l-36.041-36.04l-11.542,11.542l12.249,12.249   l-12.249,12.249l12.249,12.249L323.18,514.607z"/>
	<path class="st2" d="M337.806,517.475c-0.46,0-0.921-0.175-1.272-0.525l-8.6-8.601l9.165-9.165l-9.165-9.165l9.165-9.164   l-9.165-9.165l9.872-9.872l28.202,28.201l-26.93,26.931C338.727,517.3,338.266,517.475,337.806,517.475z M329.348,508.349   l7.893,7.894c0.312,0.311,0.818,0.311,1.129,0l26.223-26.224l-26.788-26.787l-8.458,8.458l9.165,9.165l-9.165,9.164l9.165,9.165   L329.348,508.349z"/>
	<path class="st2" d="M340.119,510.604c-0.393,0-0.762-0.153-1.04-0.432l-6.519-6.519l6.852-6.852l-6.852-6.852l6.852-6.852   l-6.852-6.852l7.559-7.559l21.262,21.262l-20.222,20.222C340.882,510.451,340.513,510.604,340.119,510.604z M333.974,503.654   l5.812,5.812c0.178,0.179,0.487,0.179,0.665,0l19.516-19.515l-19.848-19.848l-6.145,6.145l6.852,6.852l-6.852,6.852l6.852,6.852   L333.974,503.654z"/>
	<path class="st2" d="M342.175,504.496c-0.315,0-0.611-0.123-0.834-0.346l-4.668-4.669l4.795-4.795l-4.795-4.796l4.795-4.795   l-4.795-4.796l5.502-5.503l15.094,15.094l-14.26,14.26C342.787,504.373,342.491,504.496,342.175,504.496z M338.087,499.481   l3.961,3.962c0.058,0.06,0.192,0.061,0.253,0l13.553-13.553l-13.68-13.68l-4.088,4.089l4.795,4.796l-4.795,4.795l4.795,4.796   L338.087,499.481z"/>
	<path class="st2" d="M343.718,499.914c-0.247,0-0.493-0.094-0.68-0.281l-3.28-3.28l3.253-3.254l-3.253-3.253l3.253-3.254   l-3.253-3.253l3.96-3.961l10.467,10.468l-9.788,9.788C344.209,499.821,343.964,499.914,343.718,499.914z M341.171,496.353   l2.574,2.573l9.025-9.08l-9.053-9.054l-2.546,2.547l3.253,3.253l-3.253,3.254l3.253,3.253L341.171,496.353z"/>
</g>
</svg>