<svg xmlns="http://www.w3.org/2000/svg" xmlns:xlink="http://www.w3.org/1999/xlink" id="Capa_1" x="0px" y="0px" viewBox="0 0 1366 768" style="enable-background:new 0 0 1366 768;" xml:space="preserve">
<style type="text/css">
	.st0{fill:#0A64BF;}
	.st1{opacity:0.15;}
	.st2{fill:#FFFFFF;}
	.st3{opacity:0.35;}
	.st4{opacity:0.3;}
	.st5{fill:none;stroke:#FFFFFF;stroke-width:0.25;stroke-miterlimit:10;}
	.st6{opacity:0.2;}
	.st7{fill:none;stroke:#FFFFFF;stroke-width:0.133;stroke-miterlimit:10;}
	.st8{fill:none;stroke:#001028;stroke-miterlimit:10;}
	.st9{fill:#00A1E0;}
	.st10{opacity:0.5;fill:#FFFFFF;enable-background:new    ;}
	.st11{fill:#000B21;}
	.st12{fill:#FFFFFF;stroke:#263238;stroke-linecap:round;stroke-linejoin:round;}
	.st13{fill:#00A1E0;stroke:#000B21;stroke-miterlimit:10;}
	.st14{fill:#FFFFFF;stroke:#263238;stroke-width:0.5;stroke-linecap:round;stroke-linejoin:round;}
	.st15{fill:none;stroke:#FFFFFF;stroke-linecap:round;stroke-linejoin:round;}
	.st16{fill:none;stroke:#263238;stroke-linecap:round;stroke-linejoin:round;}
	.st17{fill:#263238;}
	.st18{fill:#FFFFFF;stroke:#263238;stroke-width:1.069;stroke-linecap:round;stroke-linejoin:round;}
	.st19{fill:none;stroke:#263238;stroke-width:1.069;stroke-linecap:round;stroke-linejoin:round;}
	.st20{opacity:0.2;enable-background:new    ;}
	.st21{fill:#263238;stroke:#263238;stroke-width:1.069;stroke-linecap:round;stroke-linejoin:round;}
	.st22{fill:none;stroke:#92E3A9;stroke-width:1.069;stroke-miterlimit:10;}
	.st23{fill:none;stroke:#FFFFFF;stroke-width:1.069;stroke-linecap:round;stroke-linejoin:round;}
	
		.st24{opacity:0.5;fill:none;stroke:#FFFFFF;stroke-width:1.069;stroke-linecap:round;stroke-linejoin:round;enable-background:new    ;}
	.st25{opacity:0.8;fill:#FFFFFF;enable-background:new    ;}
</style>
<g class="st4">
	<g>
		<g>
			<path class="st5" d="M1371.058,82.126l-57.554,57.554c-1.502,1.502-3.938,1.502-5.44,0l-4.893-4.893     c-1.502-1.502-1.502-3.938,0-5.44l57.554-57.554c1.502-1.502,3.938-1.502,5.44,0l4.893,4.893     C1372.56,78.189,1372.56,80.624,1371.058,82.126z"/>
			<path class="st5" d="M1353.505,64.573l-57.554,57.554c-1.502,1.502-3.938,1.502-5.44,0l-4.893-4.893     c-1.502-1.502-1.502-3.938,0-5.44l57.554-57.554c1.502-1.502,3.938-1.502,5.44,0l4.893,4.893     C1355.007,60.635,1355.007,63.071,1353.505,64.573z"/>
			<path class="st5" d="M1335.951,47.019l-22.042,22.041c-1.502,1.502-3.938,1.502-5.44,0l-4.893-4.893     c-1.502-1.502-1.502-3.938,0-5.44l22.042-22.041c1.502-1.502,3.938-1.502,5.44,0l4.893,4.893     C1337.453,43.082,1337.453,45.517,1335.951,47.019z"/>
			<path class="st5" d="M1318.398,29.466l-22.042,22.041c-1.502,1.502-3.938,1.502-5.44,0l-4.893-4.893     c-1.502-1.502-1.502-3.938,0-5.44l22.042-22.041c1.502-1.502,3.938-1.502,5.44,0l4.893,4.893     C1319.9,25.528,1319.9,27.964,1318.398,29.466z"/>
		</g>
		<g>
			<path class="st5" d="M1264.555,82.126l-57.554,57.554c-1.502,1.502-3.938,1.502-5.44,0l-4.893-4.893     c-1.502-1.502-1.502-3.938,0-5.44l57.554-57.554c1.502-1.502,3.938-1.502,5.44,0l4.893,4.893     C1266.057,78.189,1266.057,80.624,1264.555,82.126z"/>
			<path class="st5" d="M1247.001,64.573l-57.554,57.554c-1.502,1.502-3.938,1.502-5.44,0l-4.893-4.893     c-1.502-1.502-1.502-3.938,0-5.44l57.554-57.554c1.502-1.502,3.938-1.502,5.44,0l4.893,4.893     C1248.504,60.635,1248.504,63.071,1247.001,64.573z"/>
			<path class="st5" d="M1229.448,47.019l-22.042,22.041c-1.502,1.502-3.938,1.502-5.44,0l-4.893-4.893     c-1.502-1.502-1.502-3.938,0-5.44l22.041-22.041c1.502-1.502,3.938-1.502,5.44,0l4.893,4.893     C1230.95,43.082,1230.95,45.517,1229.448,47.019z"/>
			<path class="st5" d="M1211.894,29.466l-22.042,22.041c-1.502,1.502-3.938,1.502-5.44,0l-4.893-4.893     c-1.502-1.502-1.502-3.938,0-5.44l22.042-22.041c1.502-1.502,3.938-1.502,5.44,0l4.893,4.893     C1213.397,25.528,1213.397,27.964,1211.894,29.466z"/>
		</g>
		<g>
			<path class="st5" d="M1158.052,82.126l-57.554,57.554c-1.502,1.502-3.938,1.502-5.44,0l-4.893-4.893     c-1.502-1.502-1.502-3.938,0-5.44l57.554-57.554c1.502-1.502,3.938-1.502,5.44,0l4.893,4.893     C1159.554,78.189,1159.554,80.624,1158.052,82.126z"/>
			<path class="st5" d="M1140.498,64.573l-57.554,57.554c-1.502,1.502-3.938,1.502-5.44,0l-4.893-4.893     c-1.502-1.502-1.502-3.938,0-5.44l57.554-57.554c1.502-1.502,3.938-1.502,5.44,0l4.893,4.893     C1142,60.635,1142,63.071,1140.498,64.573z"/>
			<path class="st5" d="M1122.945,47.019l-22.042,22.041c-1.502,1.502-3.938,1.502-5.44,0l-4.893-4.893     c-1.502-1.502-1.502-3.938,0-5.44l22.041-22.041c1.502-1.502,3.938-1.502,5.44,0l4.893,4.893     C1124.447,43.082,1124.447,45.517,1122.945,47.019z"/>
			<path class="st5" d="M1105.391,29.466l-22.042,22.041c-1.502,1.502-3.938,1.502-5.44,0l-4.893-4.893     c-1.502-1.502-1.502-3.938,0-5.44l22.041-22.041c1.502-1.502,3.938-1.502,5.44,0l4.893,4.893     C1106.893,25.528,1106.893,27.964,1105.391,29.466z"/>
		</g>
		<g>
			<path class="st5" d="M1051.549,82.126l-57.554,57.554c-1.502,1.502-3.938,1.502-5.44,0l-4.893-4.893     c-1.502-1.502-1.502-3.938,0-5.44l57.554-57.554c1.502-1.502,3.938-1.502,5.44,0l4.893,4.893     C1053.051,78.189,1053.051,80.624,1051.549,82.126z"/>
			<path class="st5" d="M1033.995,64.573l-57.554,57.554c-1.502,1.502-3.938,1.502-5.44,0l-4.893-4.893     c-1.502-1.502-1.502-3.938,0-5.44l57.554-57.554c1.502-1.502,3.938-1.502,5.44,0l4.893,4.893     C1035.497,60.635,1035.497,63.071,1033.995,64.573z"/>
			<path class="st5" d="M1016.442,47.019L994.4,69.061c-1.502,1.502-3.938,1.502-5.44,0l-4.893-4.893     c-1.502-1.502-1.502-3.938,0-5.44l22.041-22.041c1.502-1.502,3.938-1.502,5.44,0l4.893,4.893     C1017.944,43.082,1017.944,45.517,1016.442,47.019z"/>
			<path class="st5" d="M998.888,29.466l-22.041,22.041c-1.502,1.502-3.938,1.502-5.44,0l-4.893-4.893     c-1.502-1.502-1.502-3.938,0-5.44l22.042-22.041c1.502-1.502,3.938-1.502,5.44,0l4.893,4.893     C1000.39,25.528,1000.39,27.964,998.888,29.466z"/>
		</g>
		<g>
			<path class="st5" d="M945.045,82.126l-57.554,57.554c-1.502,1.502-3.938,1.502-5.44,0l-4.893-4.893     c-1.502-1.502-1.502-3.938,0-5.44l57.554-57.554c1.502-1.502,3.938-1.502,5.44,0l4.893,4.893     C946.548,78.189,946.548,80.624,945.045,82.126z"/>
			<path class="st5" d="M927.492,64.573l-57.554,57.554c-1.502,1.502-3.938,1.502-5.44,0l-4.893-4.893     c-1.502-1.502-1.502-3.938,0-5.44l57.554-57.554c1.502-1.502,3.938-1.502,5.44,0l4.893,4.893     C928.994,60.635,928.994,63.071,927.492,64.573z"/>
			<path class="st5" d="M909.938,47.019l-22.042,22.041c-1.502,1.502-3.938,1.502-5.44,0l-4.893-4.893     c-1.502-1.502-1.502-3.938,0-5.44l22.042-22.041c1.502-1.502,3.938-1.502,5.44,0l4.893,4.893     C911.441,43.082,911.441,45.517,909.938,47.019z"/>
			<path class="st5" d="M892.385,29.466l-22.042,22.041c-1.502,1.502-3.938,1.502-5.44,0l-4.893-4.893     c-1.502-1.502-1.502-3.938,0-5.44l22.041-22.041c1.502-1.502,3.938-1.502,5.44,0l4.893,4.893     C893.887,25.528,893.887,27.964,892.385,29.466z"/>
		</g>
		<g>
			<path class="st5" d="M838.542,82.126l-57.554,57.554c-1.502,1.502-3.938,1.502-5.44,0l-4.893-4.893     c-1.502-1.502-1.502-3.938,0-5.44l57.554-57.554c1.502-1.502,3.938-1.502,5.44,0l4.893,4.893     C840.044,78.189,840.044,80.624,838.542,82.126z"/>
			<path class="st5" d="M820.989,64.573l-57.554,57.554c-1.502,1.502-3.938,1.502-5.44,0l-4.893-4.893     c-1.502-1.502-1.502-3.938,0-5.44l57.554-57.554c1.502-1.502,3.938-1.502,5.44,0l4.893,4.893     C822.491,60.635,822.491,63.071,820.989,64.573z"/>
			<path class="st5" d="M803.435,47.019l-22.041,22.041c-1.502,1.502-3.938,1.502-5.44,0l-4.893-4.893     c-1.502-1.502-1.502-3.938,0-5.44l22.042-22.041c1.502-1.502,3.938-1.502,5.44,0l4.893,4.893     C804.937,43.082,804.937,45.517,803.435,47.019z"/>
			<path class="st5" d="M785.882,29.466L763.84,51.507c-1.502,1.502-3.938,1.502-5.44,0l-4.893-4.893     c-1.502-1.502-1.502-3.938,0-5.44l22.042-22.041c1.502-1.502,3.938-1.502,5.44,0l4.893,4.893     C787.384,25.528,787.384,27.964,785.882,29.466z"/>
		</g>
		<g>
			<path class="st5" d="M732.039,82.126l-57.554,57.554c-1.502,1.502-3.938,1.502-5.44,0l-4.893-4.893     c-1.502-1.502-1.502-3.938,0-5.44l57.554-57.554c1.502-1.502,3.938-1.502,5.44,0l4.893,4.893     C733.541,78.189,733.541,80.624,732.039,82.126z"/>
			<path class="st5" d="M714.486,64.573l-57.554,57.554c-1.502,1.502-3.938,1.502-5.44,0l-4.893-4.893     c-1.502-1.502-1.502-3.938,0-5.44l57.554-57.554c1.502-1.502,3.938-1.502,5.44,0l4.893,4.893     C715.988,60.635,715.988,63.071,714.486,64.573z"/>
			<path class="st5" d="M696.932,47.019l-22.042,22.041c-1.502,1.502-3.938,1.502-5.44,0l-4.893-4.893     c-1.502-1.502-1.502-3.938,0-5.44l22.041-22.041c1.502-1.502,3.938-1.502,5.44,0l4.893,4.893     C698.434,43.082,698.434,45.517,696.932,47.019z"/>
			<path class="st5" d="M679.379,29.466l-22.041,22.041c-1.502,1.502-3.938,1.502-5.44,0l-4.893-4.893     c-1.502-1.502-1.502-3.938,0-5.44l22.042-22.041c1.502-1.502,3.938-1.502,5.44,0l4.893,4.893     C680.881,25.528,680.881,27.964,679.379,29.466z"/>
		</g>
		<g>
			<path class="st5" d="M625.536,82.126l-57.554,57.554c-1.502,1.502-3.938,1.502-5.44,0l-4.893-4.893     c-1.502-1.502-1.502-3.938,0-5.44l57.554-57.554c1.502-1.502,3.938-1.502,5.44,0l4.893,4.893     C627.038,78.189,627.038,80.624,625.536,82.126z"/>
			<path class="st5" d="M607.982,64.573l-57.554,57.554c-1.502,1.502-3.938,1.502-5.44,0l-4.893-4.893     c-1.502-1.502-1.502-3.938,0-5.44l57.554-57.554c1.502-1.502,3.938-1.502,5.44,0l4.893,4.893     C609.485,60.635,609.485,63.071,607.982,64.573z"/>
			<path class="st5" d="M590.429,47.019l-22.042,22.041c-1.502,1.502-3.938,1.502-5.44,0l-4.893-4.893     c-1.502-1.502-1.502-3.938,0-5.44l22.041-22.041c1.502-1.502,3.938-1.502,5.44,0l4.893,4.893     C591.931,43.082,591.931,45.517,590.429,47.019z"/>
			<path class="st5" d="M572.875,29.466l-22.042,22.041c-1.502,1.502-3.938,1.502-5.44,0l-4.893-4.893     c-1.502-1.502-1.502-3.938,0-5.44l22.041-22.041c1.502-1.502,3.938-1.502,5.44,0l4.893,4.893     C574.378,25.528,574.378,27.964,572.875,29.466z"/>
		</g>
		<g>
			<path class="st5" d="M519.033,82.126l-57.554,57.554c-1.502,1.502-3.938,1.502-5.44,0l-4.893-4.893     c-1.502-1.502-1.502-3.938,0-5.44L508.7,71.793c1.502-1.502,3.938-1.502,5.44,0l4.893,4.893     C520.535,78.189,520.535,80.624,519.033,82.126z"/>
			<path class="st5" d="M501.479,64.573l-57.554,57.554c-1.502,1.502-3.938,1.502-5.44,0l-4.893-4.893     c-1.502-1.502-1.502-3.938,0-5.44l57.554-57.554c1.502-1.502,3.938-1.502,5.44,0l4.893,4.893     C502.981,60.635,502.981,63.071,501.479,64.573z"/>
			<path class="st5" d="M483.926,47.019l-22.041,22.041c-1.502,1.502-3.938,1.502-5.44,0l-4.893-4.893     c-1.502-1.502-1.502-3.938,0-5.44l22.041-22.041c1.502-1.502,3.938-1.502,5.44,0l4.893,4.893     C485.428,43.082,485.428,45.517,483.926,47.019z"/>
			<path class="st5" d="M466.372,29.466l-22.041,22.041c-1.502,1.502-3.938,1.502-5.44,0l-4.893-4.893     c-1.502-1.502-1.502-3.938,0-5.44l22.041-22.041c1.502-1.502,3.938-1.502,5.44,0l4.893,4.893     C467.874,25.528,467.874,27.964,466.372,29.466z"/>
		</g>
		<g>
			<path class="st5" d="M412.53,82.126l-57.554,57.554c-1.502,1.502-3.938,1.502-5.44,0l-4.893-4.893     c-1.502-1.502-1.502-3.938,0-5.44l57.554-57.554c1.502-1.502,3.938-1.502,5.44,0l4.893,4.893     C414.032,78.189,414.032,80.624,412.53,82.126z"/>
			<path class="st5" d="M394.976,64.573l-57.554,57.554c-1.502,1.502-3.938,1.502-5.44,0l-4.893-4.893     c-1.502-1.502-1.502-3.938,0-5.44l57.554-57.554c1.502-1.502,3.938-1.502,5.44,0l4.893,4.893     C396.478,60.635,396.478,63.071,394.976,64.573z"/>
			<path class="st5" d="M377.423,47.019l-22.041,22.041c-1.502,1.502-3.938,1.502-5.44,0l-4.893-4.893     c-1.502-1.502-1.502-3.938,0-5.44l22.041-22.041c1.502-1.502,3.938-1.502,5.44,0l4.893,4.893     C378.925,43.082,378.925,45.517,377.423,47.019z"/>
			<path class="st5" d="M359.869,29.466l-22.042,22.041c-1.502,1.502-3.938,1.502-5.44,0l-4.893-4.893     c-1.502-1.502-1.502-3.938,0-5.44l22.042-22.041c1.502-1.502,3.938-1.502,5.44,0l4.893,4.893     C361.371,25.528,361.371,27.964,359.869,29.466z"/>
		</g>
		<g>
			<path class="st5" d="M306.026,82.126l-57.554,57.554c-1.502,1.502-3.938,1.502-5.44,0l-4.893-4.893     c-1.502-1.502-1.502-3.938,0-5.44l57.554-57.554c1.502-1.502,3.938-1.502,5.44,0l4.893,4.893     C307.529,78.189,307.529,80.624,306.026,82.126z"/>
			<path class="st5" d="M288.473,64.573l-57.554,57.554c-1.502,1.502-3.938,1.502-5.44,0l-4.893-4.893     c-1.502-1.502-1.502-3.938,0-5.44L278.14,54.24c1.502-1.502,3.938-1.502,5.44,0l4.893,4.893     C289.975,60.635,289.975,63.071,288.473,64.573z"/>
			<path class="st5" d="M270.919,47.019l-22.041,22.041c-1.502,1.502-3.938,1.502-5.44,0l-4.893-4.893     c-1.502-1.502-1.502-3.938,0-5.44l22.041-22.041c1.502-1.502,3.938-1.502,5.44,0l4.893,4.893     C272.422,43.082,272.422,45.517,270.919,47.019z"/>
			<path class="st5" d="M253.366,29.466l-22.041,22.041c-1.502,1.502-3.938,1.502-5.44,0l-4.893-4.893     c-1.502-1.502-1.502-3.938,0-5.44l22.041-22.041c1.502-1.502,3.938-1.502,5.44,0l4.893,4.893     C254.868,25.528,254.868,27.964,253.366,29.466z"/>
		</g>
		<g>
			<path class="st5" d="M199.523,82.126L141.97,139.68c-1.502,1.502-3.938,1.502-5.44,0l-4.893-4.893     c-1.502-1.502-1.502-3.938,0-5.44l57.554-57.554c1.502-1.502,3.938-1.502,5.44,0l4.893,4.893     C201.025,78.189,201.025,80.624,199.523,82.126z"/>
			<path class="st5" d="M181.97,64.573l-57.554,57.554c-1.502,1.502-3.938,1.502-5.44,0l-4.893-4.893     c-1.502-1.502-1.502-3.938,0-5.44l57.554-57.554c1.502-1.502,3.938-1.502,5.44,0l4.893,4.893     C183.472,60.635,183.472,63.071,181.97,64.573z"/>
			<path class="st5" d="M164.416,47.019l-22.041,22.041c-1.502,1.502-3.938,1.502-5.44,0l-4.893-4.893     c-1.502-1.502-1.502-3.938,0-5.44l22.041-22.041c1.502-1.502,3.938-1.502,5.44,0l4.893,4.893     C165.918,43.082,165.918,45.517,164.416,47.019z"/>
			<path class="st5" d="M146.863,29.466l-22.041,22.041c-1.502,1.502-3.938,1.502-5.44,0l-4.893-4.893     c-1.502-1.502-1.502-3.938,0-5.44l22.041-22.041c1.502-1.502,3.938-1.502,5.44,0l4.893,4.893     C148.365,25.528,148.365,27.964,146.863,29.466z"/>
		</g>
		<g>
			<path class="st5" d="M87.273,82.126L29.72,139.68c-1.502,1.502-3.938,1.502-5.44,0l-4.893-4.893c-1.502-1.502-1.502-3.938,0-5.44     L76.94,71.793c1.502-1.502,3.938-1.502,5.44,0l4.893,4.893C88.776,78.189,88.776,80.624,87.273,82.126z"/>
			<path class="st5" d="M69.72,64.573l-57.554,57.554c-1.502,1.502-3.938,1.502-5.44,0l-4.893-4.893     c-1.502-1.502-1.502-3.938,0-5.44L59.387,54.24c1.502-1.502,3.938-1.502,5.44,0l4.893,4.893     C71.222,60.635,71.222,63.071,69.72,64.573z"/>
			<path class="st5" d="M52.167,47.019L30.125,69.061c-1.502,1.502-3.938,1.502-5.44,0l-4.893-4.893     c-1.502-1.502-1.502-3.938,0-5.44l22.041-22.041c1.502-1.502,3.938-1.502,5.44,0l4.893,4.893     C53.669,43.082,53.669,45.517,52.167,47.019z"/>
			<path class="st5" d="M34.613,29.466L12.572,51.507c-1.502,1.502-3.938,1.502-5.44,0l-4.893-4.893     c-1.502-1.502-1.502-3.938,0-5.44L24.28,19.133c1.502-1.502,3.938-1.502,5.44,0l4.893,4.893     C36.115,25.528,36.115,27.964,34.613,29.466z"/>
		</g>
	</g>
	<g>
		<g>
			<path class="st5" d="M28.606,194.602l4.893-4.893c1.502-1.502,3.938-1.502,5.44,0l57.554,57.554c1.502,1.502,1.502,3.938,0,5.44     l-4.893,4.893c-1.502,1.502-3.938,1.502-5.44,0l-57.554-57.554C27.103,198.54,27.103,196.104,28.606,194.602z"/>
			<path class="st5" d="M46.159,177.049l4.893-4.893c1.502-1.502,3.938-1.502,5.44,0l57.554,57.554c1.502,1.502,1.502,3.938,0,5.44     l-4.893,4.893c-1.502,1.502-3.938,1.502-5.44,0l-57.554-57.554C44.657,180.986,44.657,178.551,46.159,177.049z"/>
			<path class="st5" d="M63.713,159.495l4.893-4.893c1.502-1.502,3.938-1.502,5.44,0l22.041,22.041c1.502,1.502,1.502,3.938,0,5.44     l-4.893,4.893c-1.502,1.502-3.938,1.502-5.44,0l-22.041-22.041C62.21,163.433,62.21,160.997,63.713,159.495z"/>
			<path class="st5" d="M81.266,141.942l4.893-4.893c1.502-1.502,3.938-1.502,5.44,0l22.041,22.041c1.502,1.502,1.502,3.938,0,5.44     l-4.893,4.893c-1.502,1.502-3.938,1.502-5.44,0l-22.041-22.041C79.764,145.879,79.764,143.444,81.266,141.942z"/>
		</g>
		<g>
			<path class="st5" d="M135.109,194.602l4.893-4.893c1.502-1.502,3.938-1.502,5.44,0l57.554,57.554c1.502,1.502,1.502,3.938,0,5.44     l-4.893,4.893c-1.502,1.502-3.938,1.502-5.44,0l-57.554-57.554C133.607,198.54,133.607,196.104,135.109,194.602z"/>
			<path class="st5" d="M152.662,177.049l4.893-4.893c1.502-1.502,3.938-1.502,5.44,0l57.554,57.554c1.502,1.502,1.502,3.938,0,5.44     l-4.893,4.893c-1.502,1.502-3.938,1.502-5.44,0l-57.554-57.554C151.16,180.986,151.16,178.551,152.662,177.049z"/>
			<path class="st5" d="M170.216,159.495l4.893-4.893c1.502-1.502,3.938-1.502,5.44,0l22.041,22.041c1.502,1.502,1.502,3.938,0,5.44     l-4.893,4.893c-1.502,1.502-3.938,1.502-5.44,0l-22.041-22.041C168.714,163.433,168.714,160.997,170.216,159.495z"/>
			<path class="st5" d="M187.769,141.942l4.893-4.893c1.502-1.502,3.938-1.502,5.44,0l22.041,22.041c1.502,1.502,1.502,3.938,0,5.44     l-4.893,4.893c-1.502,1.502-3.938,1.502-5.44,0l-22.041-22.041C186.267,145.879,186.267,143.444,187.769,141.942z"/>
		</g>
		<g>
			<path class="st5" d="M241.612,194.602l4.893-4.893c1.502-1.502,3.938-1.502,5.44,0l57.554,57.554c1.502,1.502,1.502,3.938,0,5.44     l-4.893,4.893c-1.502,1.502-3.938,1.502-5.44,0l-57.554-57.554C240.11,198.54,240.11,196.104,241.612,194.602z"/>
			<path class="st5" d="M259.165,177.049l4.893-4.893c1.502-1.502,3.938-1.502,5.44,0l57.554,57.554c1.502,1.502,1.502,3.938,0,5.44     l-4.893,4.893c-1.502,1.502-3.938,1.502-5.44,0l-57.554-57.554C257.663,180.986,257.663,178.551,259.165,177.049z"/>
			<path class="st5" d="M276.719,159.495l4.893-4.893c1.502-1.502,3.938-1.502,5.44,0l22.041,22.041c1.502,1.502,1.502,3.938,0,5.44     l-4.893,4.893c-1.502,1.502-3.938,1.502-5.44,0l-22.041-22.041C275.217,163.433,275.217,160.997,276.719,159.495z"/>
			<path class="st5" d="M294.272,141.942l4.893-4.893c1.502-1.502,3.938-1.502,5.44,0l22.041,22.041c1.502,1.502,1.502,3.938,0,5.44     l-4.893,4.893c-1.502,1.502-3.938,1.502-5.44,0l-22.042-22.041C292.77,145.879,292.77,143.444,294.272,141.942z"/>
		</g>
		<g>
			<path class="st5" d="M348.115,194.602l4.893-4.893c1.502-1.502,3.938-1.502,5.44,0l57.554,57.554c1.502,1.502,1.502,3.938,0,5.44     l-4.893,4.893c-1.502,1.502-3.938,1.502-5.44,0l-57.554-57.554C346.613,198.54,346.613,196.104,348.115,194.602z"/>
			<path class="st5" d="M365.669,177.049l4.893-4.893c1.502-1.502,3.938-1.502,5.44,0l57.554,57.554c1.502,1.502,1.502,3.938,0,5.44     l-4.893,4.893c-1.502,1.502-3.938,1.502-5.44,0l-57.554-57.554C364.166,180.986,364.166,178.551,365.669,177.049z"/>
			<path class="st5" d="M383.222,159.495l4.893-4.893c1.502-1.502,3.938-1.502,5.44,0l22.041,22.041c1.502,1.502,1.502,3.938,0,5.44     l-4.893,4.893c-1.502,1.502-3.938,1.502-5.44,0l-22.042-22.041C381.72,163.433,381.72,160.997,383.222,159.495z"/>
			<path class="st5" d="M400.776,141.942l4.893-4.893c1.502-1.502,3.938-1.502,5.44,0l22.041,22.041c1.502,1.502,1.502,3.938,0,5.44     l-4.893,4.893c-1.502,1.502-3.938,1.502-5.44,0l-22.041-22.041C399.273,145.879,399.273,143.444,400.776,141.942z"/>
		</g>
		<g>
			<path class="st5" d="M454.618,194.602l4.893-4.893c1.502-1.502,3.938-1.502,5.44,0l57.554,57.554c1.502,1.502,1.502,3.938,0,5.44     l-4.893,4.893c-1.502,1.502-3.938,1.502-5.44,0l-57.554-57.554C453.116,198.54,453.116,196.104,454.618,194.602z"/>
			<path class="st5" d="M472.172,177.049l4.893-4.893c1.502-1.502,3.938-1.502,5.44,0l57.554,57.554c1.502,1.502,1.502,3.938,0,5.44     l-4.893,4.893c-1.502,1.502-3.938,1.502-5.44,0l-57.554-57.554C470.67,180.986,470.67,178.551,472.172,177.049z"/>
			<path class="st5" d="M489.725,159.495l4.893-4.893c1.502-1.502,3.938-1.502,5.44,0l22.041,22.041c1.502,1.502,1.502,3.938,0,5.44     l-4.893,4.893c-1.502,1.502-3.938,1.502-5.44,0l-22.041-22.041C488.223,163.433,488.223,160.997,489.725,159.495z"/>
			<path class="st5" d="M507.279,141.942l4.893-4.893c1.502-1.502,3.938-1.502,5.44,0l22.042,22.041c1.502,1.502,1.502,3.938,0,5.44     l-4.893,4.893c-1.502,1.502-3.938,1.502-5.44,0l-22.041-22.041C505.777,145.879,505.777,143.444,507.279,141.942z"/>
		</g>
		<g>
			<path class="st5" d="M561.121,194.602l4.893-4.893c1.502-1.502,3.938-1.502,5.44,0l57.554,57.554c1.502,1.502,1.502,3.938,0,5.44     l-4.893,4.893c-1.502,1.502-3.938,1.502-5.44,0l-57.554-57.554C559.619,198.54,559.619,196.104,561.121,194.602z"/>
			<path class="st5" d="M578.675,177.049l4.893-4.893c1.502-1.502,3.938-1.502,5.44,0l57.554,57.554c1.502,1.502,1.502,3.938,0,5.44     l-4.893,4.893c-1.502,1.502-3.938,1.502-5.44,0l-57.554-57.554C577.173,180.986,577.173,178.551,578.675,177.049z"/>
			<path class="st5" d="M596.228,159.495l4.893-4.893c1.502-1.502,3.938-1.502,5.44,0l22.041,22.041c1.502,1.502,1.502,3.938,0,5.44     l-4.893,4.893c-1.502,1.502-3.938,1.502-5.44,0l-22.042-22.041C594.726,163.433,594.726,160.997,596.228,159.495z"/>
			<path class="st5" d="M613.782,141.942l4.893-4.893c1.502-1.502,3.938-1.502,5.44,0l22.041,22.041c1.502,1.502,1.502,3.938,0,5.44     l-4.893,4.893c-1.502,1.502-3.938,1.502-5.44,0l-22.042-22.041C612.28,145.879,612.28,143.444,613.782,141.942z"/>
		</g>
		<g>
			<path class="st5" d="M667.625,194.602l4.893-4.893c1.502-1.502,3.938-1.502,5.44,0l57.554,57.554c1.502,1.502,1.502,3.938,0,5.44     l-4.893,4.893c-1.502,1.502-3.938,1.502-5.44,0l-57.554-57.554C666.122,198.54,666.122,196.104,667.625,194.602z"/>
			<path class="st5" d="M685.178,177.049l4.893-4.893c1.502-1.502,3.938-1.502,5.44,0l57.554,57.554c1.502,1.502,1.502,3.938,0,5.44     l-4.893,4.893c-1.502,1.502-3.938,1.502-5.44,0l-57.554-57.554C683.676,180.986,683.676,178.551,685.178,177.049z"/>
			<path class="st5" d="M702.732,159.495l4.893-4.893c1.502-1.502,3.938-1.502,5.44,0l22.042,22.041c1.502,1.502,1.502,3.938,0,5.44     l-4.893,4.893c-1.502,1.502-3.938,1.502-5.44,0l-22.041-22.041C701.229,163.433,701.229,160.997,702.732,159.495z"/>
			<path class="st5" d="M720.285,141.942l4.893-4.893c1.502-1.502,3.938-1.502,5.44,0l22.042,22.041c1.502,1.502,1.502,3.938,0,5.44     l-4.893,4.893c-1.502,1.502-3.938,1.502-5.44,0l-22.042-22.041C718.783,145.879,718.783,143.444,720.285,141.942z"/>
		</g>
		<g>
			<path class="st5" d="M774.128,194.602l4.893-4.893c1.502-1.502,3.938-1.502,5.44,0l57.554,57.554c1.502,1.502,1.502,3.938,0,5.44     l-4.893,4.893c-1.502,1.502-3.938,1.502-5.44,0l-57.554-57.554C772.626,198.54,772.626,196.104,774.128,194.602z"/>
			<path class="st5" d="M791.681,177.049l4.893-4.893c1.502-1.502,3.938-1.502,5.44,0l57.554,57.554c1.502,1.502,1.502,3.938,0,5.44     l-4.893,4.893c-1.502,1.502-3.938,1.502-5.44,0l-57.554-57.554C790.179,180.986,790.179,178.551,791.681,177.049z"/>
			<path class="st5" d="M809.235,159.495l4.893-4.893c1.502-1.502,3.938-1.502,5.44,0l22.042,22.041c1.502,1.502,1.502,3.938,0,5.44     l-4.893,4.893c-1.502,1.502-3.938,1.502-5.44,0l-22.042-22.041C807.732,163.433,807.732,160.997,809.235,159.495z"/>
			<path class="st5" d="M826.788,141.942l4.893-4.893c1.502-1.502,3.938-1.502,5.44,0l22.042,22.041c1.502,1.502,1.502,3.938,0,5.44     l-4.893,4.893c-1.502,1.502-3.938,1.502-5.44,0l-22.041-22.041C825.286,145.879,825.286,143.444,826.788,141.942z"/>
		</g>
		<g>
			<path class="st5" d="M880.631,194.602l4.893-4.893c1.502-1.502,3.938-1.502,5.44,0l57.554,57.554c1.502,1.502,1.502,3.938,0,5.44     l-4.893,4.893c-1.502,1.502-3.938,1.502-5.44,0l-57.554-57.554C879.129,198.54,879.129,196.104,880.631,194.602z"/>
			<path class="st5" d="M898.184,177.049l4.893-4.893c1.502-1.502,3.938-1.502,5.44,0l57.554,57.554c1.502,1.502,1.502,3.938,0,5.44     l-4.893,4.893c-1.502,1.502-3.938,1.502-5.44,0l-57.554-57.554C896.682,180.986,896.682,178.551,898.184,177.049z"/>
			<path class="st5" d="M915.738,159.495l4.893-4.893c1.502-1.502,3.938-1.502,5.44,0l22.041,22.041c1.502,1.502,1.502,3.938,0,5.44     l-4.893,4.893c-1.502,1.502-3.938,1.502-5.44,0l-22.042-22.041C914.236,163.433,914.236,160.997,915.738,159.495z"/>
			<path class="st5" d="M933.291,141.942l4.893-4.893c1.502-1.502,3.938-1.502,5.44,0l22.041,22.041c1.502,1.502,1.502,3.938,0,5.44     l-4.893,4.893c-1.502,1.502-3.938,1.502-5.44,0l-22.042-22.041C931.789,145.879,931.789,143.444,933.291,141.942z"/>
		</g>
		<g>
			<path class="st5" d="M987.134,194.602l4.893-4.893c1.502-1.502,3.938-1.502,5.44,0l57.554,57.554c1.502,1.502,1.502,3.938,0,5.44     l-4.893,4.893c-1.502,1.502-3.938,1.502-5.44,0l-57.554-57.554C985.632,198.54,985.632,196.104,987.134,194.602z"/>
			<path class="st5" d="M1004.688,177.049l4.893-4.893c1.502-1.502,3.938-1.502,5.44,0l57.554,57.554     c1.502,1.502,1.502,3.938,0,5.44l-4.893,4.893c-1.502,1.502-3.938,1.502-5.44,0l-57.554-57.554     C1003.185,180.986,1003.185,178.551,1004.688,177.049z"/>
			<path class="st5" d="M1022.241,159.495l4.893-4.893c1.502-1.502,3.938-1.502,5.44,0l22.041,22.041     c1.502,1.502,1.502,3.938,0,5.44l-4.893,4.893c-1.502,1.502-3.938,1.502-5.44,0l-22.042-22.041     C1020.739,163.433,1020.739,160.997,1022.241,159.495z"/>
			<path class="st5" d="M1039.794,141.942l4.893-4.893c1.502-1.502,3.938-1.502,5.44,0l22.042,22.041     c1.502,1.502,1.502,3.938,0,5.44l-4.893,4.893c-1.502,1.502-3.938,1.502-5.44,0l-22.042-22.041     C1038.292,145.879,1038.292,143.444,1039.794,141.942z"/>
		</g>
		<g>
			<path class="st5" d="M1093.637,194.602l4.893-4.893c1.502-1.502,3.938-1.502,5.44,0l57.554,57.554     c1.502,1.502,1.502,3.938,0,5.44l-4.893,4.893c-1.502,1.502-3.938,1.502-5.44,0l-57.554-57.554     C1092.135,198.54,1092.135,196.104,1093.637,194.602z"/>
			<path class="st5" d="M1111.191,177.049l4.893-4.893c1.502-1.502,3.938-1.502,5.44,0l57.554,57.554     c1.502,1.502,1.502,3.938,0,5.44l-4.893,4.893c-1.502,1.502-3.938,1.502-5.44,0l-57.554-57.554     C1109.688,180.986,1109.688,178.551,1111.191,177.049z"/>
			<path class="st5" d="M1128.744,159.495l4.893-4.893c1.502-1.502,3.938-1.502,5.44,0l22.041,22.041     c1.502,1.502,1.502,3.938,0,5.44l-4.893,4.893c-1.502,1.502-3.938,1.502-5.44,0l-22.042-22.041     C1127.242,163.433,1127.242,160.997,1128.744,159.495z"/>
			<path class="st5" d="M1146.298,141.942l4.893-4.893c1.502-1.502,3.938-1.502,5.44,0l22.041,22.041     c1.502,1.502,1.502,3.938,0,5.44l-4.893,4.893c-1.502,1.502-3.938,1.502-5.44,0l-22.042-22.041     C1144.795,145.879,1144.795,143.444,1146.298,141.942z"/>
		</g>
		<g>
			<path class="st5" d="M1200.14,194.602l4.893-4.893c1.502-1.502,3.938-1.502,5.44,0l57.554,57.554c1.502,1.502,1.502,3.938,0,5.44     l-4.893,4.893c-1.502,1.502-3.938,1.502-5.44,0l-57.554-57.554C1198.638,198.54,1198.638,196.104,1200.14,194.602z"/>
			<path class="st5" d="M1217.694,177.049l4.893-4.893c1.502-1.502,3.938-1.502,5.44,0l57.554,57.554     c1.502,1.502,1.502,3.938,0,5.44l-4.893,4.893c-1.502,1.502-3.938,1.502-5.44,0l-57.554-57.554     C1216.192,180.986,1216.192,178.551,1217.694,177.049z"/>
			<path class="st5" d="M1235.247,159.495l4.893-4.893c1.502-1.502,3.938-1.502,5.44,0l22.042,22.041     c1.502,1.502,1.502,3.938,0,5.44l-4.893,4.893c-1.502,1.502-3.938,1.502-5.44,0l-22.041-22.041     C1233.745,163.433,1233.745,160.997,1235.247,159.495z"/>
			<path class="st5" d="M1252.801,141.942l4.893-4.893c1.502-1.502,3.938-1.502,5.44,0l22.042,22.041     c1.502,1.502,1.502,3.938,0,5.44l-4.893,4.893c-1.502,1.502-3.938,1.502-5.44,0l-22.042-22.041     C1251.299,145.879,1251.299,143.444,1252.801,141.942z"/>
		</g>
		<g>
			<path class="st5" d="M1306.643,194.602l4.893-4.893c1.502-1.502,3.938-1.502,5.44,0l57.554,57.554     c1.502,1.502,1.502,3.938,0,5.44l-4.893,4.893c-1.502,1.502-3.938,1.502-5.44,0l-57.554-57.554     C1305.141,198.54,1305.141,196.104,1306.643,194.602z"/>
			<path class="st5" d="M1324.197,177.049l4.893-4.893c1.502-1.502,3.938-1.502,5.44,0l57.554,57.554     c1.502,1.502,1.502,3.938,0,5.44l-4.893,4.893c-1.502,1.502-3.938,1.502-5.44,0l-57.554-57.554     C1322.695,180.986,1322.695,178.551,1324.197,177.049z"/>
			<path class="st5" d="M1341.75,159.495l4.893-4.893c1.502-1.502,3.938-1.502,5.44,0l22.042,22.041c1.502,1.502,1.502,3.938,0,5.44     l-4.893,4.893c-1.502,1.502-3.938,1.502-5.44,0l-22.041-22.041C1340.248,163.433,1340.248,160.997,1341.75,159.495z"/>
			<path class="st5" d="M1359.304,141.942l4.893-4.893c1.502-1.502,3.938-1.502,5.44,0l22.042,22.041     c1.502,1.502,1.502,3.938,0,5.44l-4.893,4.893c-1.502,1.502-3.938,1.502-5.44,0l-22.041-22.041     C1357.802,145.879,1357.802,143.444,1359.304,141.942z"/>
		</g>
	</g>
	<g>
		<g>
			<path class="st5" d="M1371.058,317.958l-57.554,57.554c-1.502,1.502-3.938,1.502-5.44,0l-4.893-4.893     c-1.502-1.502-1.502-3.938,0-5.44l57.554-57.554c1.502-1.502,3.938-1.502,5.44,0l4.893,4.893     C1372.56,314.02,1372.56,316.456,1371.058,317.958z"/>
			<path class="st5" d="M1353.505,300.404l-57.554,57.554c-1.502,1.502-3.938,1.502-5.44,0l-4.893-4.893     c-1.502-1.502-1.502-3.938,0-5.44l57.554-57.554c1.502-1.502,3.938-1.502,5.44,0l4.893,4.893     C1355.007,296.467,1355.007,298.902,1353.505,300.404z"/>
			<path class="st5" d="M1335.951,282.851l-22.042,22.041c-1.502,1.502-3.938,1.502-5.44,0l-4.893-4.893     c-1.502-1.502-1.502-3.938,0-5.44l22.042-22.041c1.502-1.502,3.938-1.502,5.44,0l4.893,4.893     C1337.453,278.913,1337.453,281.349,1335.951,282.851z"/>
			<path class="st5" d="M1318.398,265.297l-22.042,22.041c-1.502,1.502-3.938,1.502-5.44,0l-4.893-4.893     c-1.502-1.502-1.502-3.938,0-5.44l22.042-22.041c1.502-1.502,3.938-1.502,5.44,0l4.893,4.893     C1319.9,261.36,1319.9,263.795,1318.398,265.297z"/>
		</g>
		<g>
			<path class="st5" d="M1264.555,317.958l-57.554,57.554c-1.502,1.502-3.938,1.502-5.44,0l-4.893-4.893     c-1.502-1.502-1.502-3.938,0-5.44l57.554-57.554c1.502-1.502,3.938-1.502,5.44,0l4.893,4.893     C1266.057,314.02,1266.057,316.456,1264.555,317.958z"/>
			<path class="st5" d="M1247.001,300.404l-57.554,57.554c-1.502,1.502-3.938,1.502-5.44,0l-4.893-4.893     c-1.502-1.502-1.502-3.938,0-5.44l57.554-57.554c1.502-1.502,3.938-1.502,5.44,0l4.893,4.893     C1248.504,296.467,1248.504,298.902,1247.001,300.404z"/>
			<path class="st5" d="M1229.448,282.851l-22.042,22.041c-1.502,1.502-3.938,1.502-5.44,0l-4.893-4.893     c-1.502-1.502-1.502-3.938,0-5.44l22.041-22.041c1.502-1.502,3.938-1.502,5.44,0l4.893,4.893     C1230.95,278.913,1230.95,281.349,1229.448,282.851z"/>
			<path class="st5" d="M1211.894,265.297l-22.042,22.041c-1.502,1.502-3.938,1.502-5.44,0l-4.893-4.893     c-1.502-1.502-1.502-3.938,0-5.44l22.042-22.041c1.502-1.502,3.938-1.502,5.44,0l4.893,4.893     C1213.397,261.36,1213.397,263.795,1211.894,265.297z"/>
		</g>
		<g>
			<path class="st5" d="M1158.052,317.958l-57.554,57.554c-1.502,1.502-3.938,1.502-5.44,0l-4.893-4.893     c-1.502-1.502-1.502-3.938,0-5.44l57.554-57.554c1.502-1.502,3.938-1.502,5.44,0l4.893,4.893     C1159.554,314.02,1159.554,316.456,1158.052,317.958z"/>
			<path class="st5" d="M1140.498,300.404l-57.554,57.554c-1.502,1.502-3.938,1.502-5.44,0l-4.893-4.893     c-1.502-1.502-1.502-3.938,0-5.44l57.554-57.554c1.502-1.502,3.938-1.502,5.44,0l4.893,4.893     C1142,296.467,1142,298.902,1140.498,300.404z"/>
			<path class="st5" d="M1122.945,282.851l-22.042,22.041c-1.502,1.502-3.938,1.502-5.44,0l-4.893-4.893     c-1.502-1.502-1.502-3.938,0-5.44l22.041-22.041c1.502-1.502,3.938-1.502,5.44,0l4.893,4.893     C1124.447,278.913,1124.447,281.349,1122.945,282.851z"/>
			<path class="st5" d="M1105.391,265.297l-22.042,22.041c-1.502,1.502-3.938,1.502-5.44,0l-4.893-4.893     c-1.502-1.502-1.502-3.938,0-5.44l22.041-22.041c1.502-1.502,3.938-1.502,5.44,0l4.893,4.893     C1106.893,261.36,1106.893,263.795,1105.391,265.297z"/>
		</g>
		<g>
			<path class="st5" d="M1051.549,317.958l-57.554,57.554c-1.502,1.502-3.938,1.502-5.44,0l-4.893-4.893     c-1.502-1.502-1.502-3.938,0-5.44l57.554-57.554c1.502-1.502,3.938-1.502,5.44,0l4.893,4.893     C1053.051,314.02,1053.051,316.456,1051.549,317.958z"/>
			<path class="st5" d="M1033.995,300.404l-57.554,57.554c-1.502,1.502-3.938,1.502-5.44,0l-4.893-4.893     c-1.502-1.502-1.502-3.938,0-5.44l57.554-57.554c1.502-1.502,3.938-1.502,5.44,0l4.893,4.893     C1035.497,296.467,1035.497,298.902,1033.995,300.404z"/>
			<path class="st5" d="M1016.442,282.851L994.4,304.892c-1.502,1.502-3.938,1.502-5.44,0l-4.893-4.893     c-1.502-1.502-1.502-3.938,0-5.44l22.041-22.041c1.502-1.502,3.938-1.502,5.44,0l4.893,4.893     C1017.944,278.913,1017.944,281.349,1016.442,282.851z"/>
			<path class="st5" d="M998.888,265.297l-22.041,22.041c-1.502,1.502-3.938,1.502-5.44,0l-4.893-4.893     c-1.502-1.502-1.502-3.938,0-5.44l22.042-22.041c1.502-1.502,3.938-1.502,5.44,0l4.893,4.893     C1000.39,261.36,1000.39,263.795,998.888,265.297z"/>
		</g>
		<g>
			<path class="st5" d="M945.045,317.958l-57.554,57.554c-1.502,1.502-3.938,1.502-5.44,0l-4.893-4.893     c-1.502-1.502-1.502-3.938,0-5.44l57.554-57.554c1.502-1.502,3.938-1.502,5.44,0l4.893,4.893     C946.548,314.02,946.548,316.456,945.045,317.958z"/>
			<path class="st5" d="M927.492,300.404l-57.554,57.554c-1.502,1.502-3.938,1.502-5.44,0l-4.893-4.893     c-1.502-1.502-1.502-3.938,0-5.44l57.554-57.554c1.502-1.502,3.938-1.502,5.44,0l4.893,4.893     C928.994,296.467,928.994,298.902,927.492,300.404z"/>
			<path class="st5" d="M909.938,282.851l-22.042,22.041c-1.502,1.502-3.938,1.502-5.44,0l-4.893-4.893     c-1.502-1.502-1.502-3.938,0-5.44l22.042-22.041c1.502-1.502,3.938-1.502,5.44,0l4.893,4.893     C911.441,278.913,911.441,281.349,909.938,282.851z"/>
			<path class="st5" d="M892.385,265.297l-22.042,22.041c-1.502,1.502-3.938,1.502-5.44,0l-4.893-4.893     c-1.502-1.502-1.502-3.938,0-5.44l22.041-22.041c1.502-1.502,3.938-1.502,5.44,0l4.893,4.893     C893.887,261.36,893.887,263.795,892.385,265.297z"/>
		</g>
		<g>
			<path class="st5" d="M838.542,317.958l-57.554,57.554c-1.502,1.502-3.938,1.502-5.44,0l-4.893-4.893     c-1.502-1.502-1.502-3.938,0-5.44l57.554-57.554c1.502-1.502,3.938-1.502,5.44,0l4.893,4.893     C840.044,314.02,840.044,316.456,838.542,317.958z"/>
			<path class="st5" d="M820.989,300.404l-57.554,57.554c-1.502,1.502-3.938,1.502-5.44,0l-4.893-4.893     c-1.502-1.502-1.502-3.938,0-5.44l57.554-57.554c1.502-1.502,3.938-1.502,5.44,0l4.893,4.893     C822.491,296.467,822.491,298.902,820.989,300.404z"/>
			<path class="st5" d="M803.435,282.851l-22.041,22.041c-1.502,1.502-3.938,1.502-5.44,0l-4.893-4.893     c-1.502-1.502-1.502-3.938,0-5.44l22.042-22.041c1.502-1.502,3.938-1.502,5.44,0l4.893,4.893     C804.937,278.913,804.937,281.349,803.435,282.851z"/>
			<path class="st5" d="M785.882,265.297l-22.042,22.041c-1.502,1.502-3.938,1.502-5.44,0l-4.893-4.893     c-1.502-1.502-1.502-3.938,0-5.44l22.042-22.041c1.502-1.502,3.938-1.502,5.44,0l4.893,4.893     C787.384,261.36,787.384,263.795,785.882,265.297z"/>
		</g>
		<g>
			<path class="st5" d="M732.039,317.958l-57.554,57.554c-1.502,1.502-3.938,1.502-5.44,0l-4.893-4.893     c-1.502-1.502-1.502-3.938,0-5.44l57.554-57.554c1.502-1.502,3.938-1.502,5.44,0l4.893,4.893     C733.541,314.02,733.541,316.456,732.039,317.958z"/>
			<path class="st5" d="M714.486,300.404l-57.554,57.554c-1.502,1.502-3.938,1.502-5.44,0l-4.893-4.893     c-1.502-1.502-1.502-3.938,0-5.44l57.554-57.554c1.502-1.502,3.938-1.502,5.44,0l4.893,4.893     C715.988,296.467,715.988,298.902,714.486,300.404z"/>
			<path class="st5" d="M696.932,282.851l-22.042,22.041c-1.502,1.502-3.938,1.502-5.44,0l-4.893-4.893     c-1.502-1.502-1.502-3.938,0-5.44l22.041-22.041c1.502-1.502,3.938-1.502,5.44,0l4.893,4.893     C698.434,278.913,698.434,281.349,696.932,282.851z"/>
			<path class="st5" d="M679.379,265.297l-22.041,22.041c-1.502,1.502-3.938,1.502-5.44,0l-4.893-4.893     c-1.502-1.502-1.502-3.938,0-5.44l22.042-22.041c1.502-1.502,3.938-1.502,5.44,0l4.893,4.893     C680.881,261.36,680.881,263.795,679.379,265.297z"/>
		</g>
		<g>
			<path class="st5" d="M625.536,317.958l-57.554,57.554c-1.502,1.502-3.938,1.502-5.44,0l-4.893-4.893     c-1.502-1.502-1.502-3.938,0-5.44l57.554-57.554c1.502-1.502,3.938-1.502,5.44,0l4.893,4.893     C627.038,314.02,627.038,316.456,625.536,317.958z"/>
			<path class="st5" d="M607.982,300.404l-57.554,57.554c-1.502,1.502-3.938,1.502-5.44,0l-4.893-4.893     c-1.502-1.502-1.502-3.938,0-5.44l57.554-57.554c1.502-1.502,3.938-1.502,5.44,0l4.893,4.893     C609.485,296.467,609.485,298.902,607.982,300.404z"/>
			<path class="st5" d="M590.429,282.851l-22.042,22.041c-1.502,1.502-3.938,1.502-5.44,0l-4.893-4.893     c-1.502-1.502-1.502-3.938,0-5.44l22.041-22.041c1.502-1.502,3.938-1.502,5.44,0l4.893,4.893     C591.931,278.913,591.931,281.349,590.429,282.851z"/>
			<path class="st5" d="M572.875,265.297l-22.042,22.041c-1.502,1.502-3.938,1.502-5.44,0l-4.893-4.893     c-1.502-1.502-1.502-3.938,0-5.44l22.041-22.041c1.502-1.502,3.938-1.502,5.44,0l4.893,4.893     C574.378,261.36,574.378,263.795,572.875,265.297z"/>
		</g>
		<g>
			<path class="st5" d="M519.033,317.958l-57.554,57.554c-1.502,1.502-3.938,1.502-5.44,0l-4.893-4.893     c-1.502-1.502-1.502-3.938,0-5.44l57.554-57.554c1.502-1.502,3.938-1.502,5.44,0l4.893,4.893     C520.535,314.02,520.535,316.456,519.033,317.958z"/>
			<path class="st5" d="M501.479,300.404l-57.554,57.554c-1.502,1.502-3.938,1.502-5.44,0l-4.893-4.893     c-1.502-1.502-1.502-3.938,0-5.44l57.554-57.554c1.502-1.502,3.938-1.502,5.44,0l4.893,4.893     C502.981,296.467,502.981,298.902,501.479,300.404z"/>
			<path class="st5" d="M483.926,282.851l-22.041,22.041c-1.502,1.502-3.938,1.502-5.44,0l-4.893-4.893     c-1.502-1.502-1.502-3.938,0-5.44l22.041-22.041c1.502-1.502,3.938-1.502,5.44,0l4.893,4.893     C485.428,278.913,485.428,281.349,483.926,282.851z"/>
			<path class="st5" d="M466.372,265.297l-22.041,22.041c-1.502,1.502-3.938,1.502-5.44,0l-4.893-4.893     c-1.502-1.502-1.502-3.938,0-5.44l22.041-22.041c1.502-1.502,3.938-1.502,5.44,0l4.893,4.893     C467.874,261.36,467.874,263.795,466.372,265.297z"/>
		</g>
		<g>
			<path class="st5" d="M412.53,317.958l-57.554,57.554c-1.502,1.502-3.938,1.502-5.44,0l-4.893-4.893     c-1.502-1.502-1.502-3.938,0-5.44l57.554-57.554c1.502-1.502,3.938-1.502,5.44,0l4.893,4.893     C414.032,314.02,414.032,316.456,412.53,317.958z"/>
			<path class="st5" d="M394.976,300.404l-57.554,57.554c-1.502,1.502-3.938,1.502-5.44,0l-4.893-4.893     c-1.502-1.502-1.502-3.938,0-5.44l57.554-57.554c1.502-1.502,3.938-1.502,5.44,0l4.893,4.893     C396.478,296.467,396.478,298.902,394.976,300.404z"/>
			<path class="st5" d="M377.423,282.851l-22.041,22.041c-1.502,1.502-3.938,1.502-5.44,0l-4.893-4.893     c-1.502-1.502-1.502-3.938,0-5.44l22.041-22.041c1.502-1.502,3.938-1.502,5.44,0l4.893,4.893     C378.925,278.913,378.925,281.349,377.423,282.851z"/>
			<path class="st5" d="M359.869,265.297l-22.042,22.041c-1.502,1.502-3.938,1.502-5.44,0l-4.893-4.893     c-1.502-1.502-1.502-3.938,0-5.44l22.042-22.041c1.502-1.502,3.938-1.502,5.44,0l4.893,4.893     C361.371,261.36,361.371,263.795,359.869,265.297z"/>
		</g>
		<g>
			<path class="st5" d="M306.026,317.958l-57.554,57.554c-1.502,1.502-3.938,1.502-5.44,0l-4.893-4.893     c-1.502-1.502-1.502-3.938,0-5.44l57.554-57.554c1.502-1.502,3.938-1.502,5.44,0l4.893,4.893     C307.529,314.02,307.529,316.456,306.026,317.958z"/>
			<path class="st5" d="M288.473,300.404l-57.554,57.554c-1.502,1.502-3.938,1.502-5.44,0l-4.893-4.893     c-1.502-1.502-1.502-3.938,0-5.44l57.554-57.554c1.502-1.502,3.938-1.502,5.44,0l4.893,4.893     C289.975,296.467,289.975,298.902,288.473,300.404z"/>
			<path class="st5" d="M270.919,282.851l-22.041,22.041c-1.502,1.502-3.938,1.502-5.44,0l-4.893-4.893     c-1.502-1.502-1.502-3.938,0-5.44l22.041-22.041c1.502-1.502,3.938-1.502,5.44,0l4.893,4.893     C272.422,278.913,272.422,281.349,270.919,282.851z"/>
			<path class="st5" d="M253.366,265.297l-22.041,22.041c-1.502,1.502-3.938,1.502-5.44,0l-4.893-4.893     c-1.502-1.502-1.502-3.938,0-5.44l22.041-22.041c1.502-1.502,3.938-1.502,5.44,0l4.893,4.893     C254.868,261.36,254.868,263.795,253.366,265.297z"/>
		</g>
		<g>
			<path class="st5" d="M199.523,317.958l-57.554,57.554c-1.502,1.502-3.938,1.502-5.44,0l-4.893-4.893     c-1.502-1.502-1.502-3.938,0-5.44l57.554-57.554c1.502-1.502,3.938-1.502,5.44,0l4.893,4.893     C201.025,314.02,201.025,316.456,199.523,317.958z"/>
			<path class="st5" d="M181.97,300.404l-57.554,57.554c-1.502,1.502-3.938,1.502-5.44,0l-4.893-4.893     c-1.502-1.502-1.502-3.938,0-5.44l57.554-57.554c1.502-1.502,3.938-1.502,5.44,0l4.893,4.893     C183.472,296.467,183.472,298.902,181.97,300.404z"/>
			<path class="st5" d="M164.416,282.851l-22.041,22.041c-1.502,1.502-3.938,1.502-5.44,0l-4.893-4.893     c-1.502-1.502-1.502-3.938,0-5.44l22.041-22.041c1.502-1.502,3.938-1.502,5.44,0l4.893,4.893     C165.918,278.913,165.918,281.349,164.416,282.851z"/>
			<path class="st5" d="M146.863,265.297l-22.041,22.041c-1.502,1.502-3.938,1.502-5.44,0l-4.893-4.893     c-1.502-1.502-1.502-3.938,0-5.44l22.041-22.041c1.502-1.502,3.938-1.502,5.44,0l4.893,4.893     C148.365,261.36,148.365,263.795,146.863,265.297z"/>
		</g>
		<g>
			<path class="st5" d="M87.273,317.958L29.72,375.511c-1.502,1.502-3.938,1.502-5.44,0l-4.893-4.893     c-1.502-1.502-1.502-3.938,0-5.44l57.554-57.554c1.502-1.502,3.938-1.502,5.44,0l4.893,4.893     C88.776,314.02,88.776,316.456,87.273,317.958z"/>
			<path class="st5" d="M69.72,300.404l-57.554,57.554c-1.502,1.502-3.938,1.502-5.44,0l-4.893-4.893     c-1.502-1.502-1.502-3.938,0-5.44l57.554-57.554c1.502-1.502,3.938-1.502,5.44,0l4.893,4.893     C71.222,296.467,71.222,298.902,69.72,300.404z"/>
			<path class="st5" d="M52.167,282.851l-22.041,22.041c-1.502,1.502-3.938,1.502-5.44,0l-4.893-4.893     c-1.502-1.502-1.502-3.938,0-5.44l22.041-22.041c1.502-1.502,3.938-1.502,5.44,0l4.893,4.893     C53.669,278.913,53.669,281.349,52.167,282.851z"/>
			<path class="st5" d="M34.613,265.297l-22.041,22.041c-1.502,1.502-3.938,1.502-5.44,0l-4.893-4.893     c-1.502-1.502-1.502-3.938,0-5.44l22.041-22.041c1.502-1.502,3.938-1.502,5.44,0l4.893,4.893     C36.115,261.36,36.115,263.795,34.613,265.297z"/>
		</g>
	</g>
	<g>
		<g>
			<path class="st5" d="M28.606,676.035l4.893-4.893c1.502-1.502,3.938-1.502,5.44,0l57.554,57.554c1.502,1.502,1.502,3.938,0,5.44     l-4.893,4.893c-1.502,1.502-3.938,1.502-5.44,0l-57.554-57.554C27.103,679.972,27.103,677.537,28.606,676.035z"/>
			<path class="st5" d="M46.159,658.481l4.893-4.893c1.502-1.502,3.938-1.502,5.44,0l57.554,57.554c1.502,1.502,1.502,3.938,0,5.44     l-4.893,4.893c-1.502,1.502-3.938,1.502-5.44,0l-57.554-57.554C44.657,662.419,44.657,659.983,46.159,658.481z"/>
			<path class="st5" d="M63.713,640.928l4.893-4.893c1.502-1.502,3.938-1.502,5.44,0l22.041,22.041c1.502,1.502,1.502,3.938,0,5.44     l-4.893,4.893c-1.502,1.502-3.938,1.502-5.44,0l-22.041-22.042C62.21,644.865,62.21,642.43,63.713,640.928z"/>
			<path class="st5" d="M81.266,623.374l4.893-4.893c1.502-1.502,3.938-1.502,5.44,0l22.041,22.042c1.502,1.502,1.502,3.938,0,5.44     l-4.893,4.893c-1.502,1.502-3.938,1.502-5.44,0l-22.041-22.041C79.764,627.312,79.764,624.876,81.266,623.374z"/>
		</g>
		<g>
			<path class="st5" d="M135.109,676.035l4.893-4.893c1.502-1.502,3.938-1.502,5.44,0l57.554,57.554c1.502,1.502,1.502,3.938,0,5.44     l-4.893,4.893c-1.502,1.502-3.938,1.502-5.44,0l-57.554-57.554C133.607,679.972,133.607,677.537,135.109,676.035z"/>
			<path class="st5" d="M152.662,658.481l4.893-4.893c1.502-1.502,3.938-1.502,5.44,0l57.554,57.554c1.502,1.502,1.502,3.938,0,5.44     l-4.893,4.893c-1.502,1.502-3.938,1.502-5.44,0l-57.554-57.554C151.16,662.419,151.16,659.983,152.662,658.481z"/>
			<path class="st5" d="M170.216,640.928l4.893-4.893c1.502-1.502,3.938-1.502,5.44,0l22.041,22.041c1.502,1.502,1.502,3.938,0,5.44     l-4.893,4.893c-1.502,1.502-3.938,1.502-5.44,0l-22.041-22.042C168.714,644.865,168.714,642.43,170.216,640.928z"/>
			<path class="st5" d="M187.769,623.374l4.893-4.893c1.502-1.502,3.938-1.502,5.44,0l22.041,22.042c1.502,1.502,1.502,3.938,0,5.44     l-4.893,4.893c-1.502,1.502-3.938,1.502-5.44,0l-22.041-22.041C186.267,627.312,186.267,624.876,187.769,623.374z"/>
		</g>
		<g>
			<path class="st5" d="M241.612,676.035l4.893-4.893c1.502-1.502,3.938-1.502,5.44,0l57.554,57.554c1.502,1.502,1.502,3.938,0,5.44     l-4.893,4.893c-1.502,1.502-3.938,1.502-5.44,0l-57.554-57.554C240.11,679.972,240.11,677.537,241.612,676.035z"/>
			<path class="st5" d="M259.165,658.481l4.893-4.893c1.502-1.502,3.938-1.502,5.44,0l57.554,57.554c1.502,1.502,1.502,3.938,0,5.44     l-4.893,4.893c-1.502,1.502-3.938,1.502-5.44,0l-57.554-57.554C257.663,662.419,257.663,659.983,259.165,658.481z"/>
			<path class="st5" d="M276.719,640.928l4.893-4.893c1.502-1.502,3.938-1.502,5.44,0l22.041,22.041c1.502,1.502,1.502,3.938,0,5.44     l-4.893,4.893c-1.502,1.502-3.938,1.502-5.44,0l-22.041-22.042C275.217,644.865,275.217,642.43,276.719,640.928z"/>
			<path class="st5" d="M294.272,623.374l4.893-4.893c1.502-1.502,3.938-1.502,5.44,0l22.041,22.042c1.502,1.502,1.502,3.938,0,5.44     l-4.893,4.893c-1.502,1.502-3.938,1.502-5.44,0l-22.042-22.041C292.77,627.312,292.77,624.876,294.272,623.374z"/>
		</g>
		<g>
			<path class="st5" d="M348.115,676.035l4.893-4.893c1.502-1.502,3.938-1.502,5.44,0l57.554,57.554c1.502,1.502,1.502,3.938,0,5.44     l-4.893,4.893c-1.502,1.502-3.938,1.502-5.44,0l-57.554-57.554C346.613,679.972,346.613,677.537,348.115,676.035z"/>
			<path class="st5" d="M365.669,658.481l4.893-4.893c1.502-1.502,3.938-1.502,5.44,0l57.554,57.554c1.502,1.502,1.502,3.938,0,5.44     l-4.893,4.893c-1.502,1.502-3.938,1.502-5.44,0l-57.554-57.554C364.166,662.419,364.166,659.983,365.669,658.481z"/>
			<path class="st5" d="M383.222,640.928l4.893-4.893c1.502-1.502,3.938-1.502,5.44,0l22.041,22.041c1.502,1.502,1.502,3.938,0,5.44     l-4.893,4.893c-1.502,1.502-3.938,1.502-5.44,0l-22.042-22.042C381.72,644.865,381.72,642.43,383.222,640.928z"/>
			<path class="st5" d="M400.776,623.374l4.893-4.893c1.502-1.502,3.938-1.502,5.44,0l22.041,22.042c1.502,1.502,1.502,3.938,0,5.44     l-4.893,4.893c-1.502,1.502-3.938,1.502-5.44,0l-22.041-22.041C399.273,627.312,399.273,624.876,400.776,623.374z"/>
		</g>
		<g>
			<path class="st5" d="M454.618,676.035l4.893-4.893c1.502-1.502,3.938-1.502,5.44,0l57.554,57.554c1.502,1.502,1.502,3.938,0,5.44     l-4.893,4.893c-1.502,1.502-3.938,1.502-5.44,0l-57.554-57.554C453.116,679.972,453.116,677.537,454.618,676.035z"/>
			<path class="st5" d="M472.172,658.481l4.893-4.893c1.502-1.502,3.938-1.502,5.44,0l57.554,57.554c1.502,1.502,1.502,3.938,0,5.44     l-4.893,4.893c-1.502,1.502-3.938,1.502-5.44,0l-57.554-57.554C470.67,662.419,470.67,659.983,472.172,658.481z"/>
			<path class="st5" d="M489.725,640.928l4.893-4.893c1.502-1.502,3.938-1.502,5.44,0l22.041,22.041c1.502,1.502,1.502,3.938,0,5.44     l-4.893,4.893c-1.502,1.502-3.938,1.502-5.44,0l-22.041-22.042C488.223,644.865,488.223,642.43,489.725,640.928z"/>
			<path class="st5" d="M507.279,623.374l4.893-4.893c1.502-1.502,3.938-1.502,5.44,0l22.042,22.042c1.502,1.502,1.502,3.938,0,5.44     l-4.893,4.893c-1.502,1.502-3.938,1.502-5.44,0l-22.041-22.041C505.777,627.312,505.777,624.876,507.279,623.374z"/>
		</g>
		<g>
			<path class="st5" d="M561.121,676.035l4.893-4.893c1.502-1.502,3.938-1.502,5.44,0l57.554,57.554c1.502,1.502,1.502,3.938,0,5.44     l-4.893,4.893c-1.502,1.502-3.938,1.502-5.44,0l-57.554-57.554C559.619,679.972,559.619,677.537,561.121,676.035z"/>
			<path class="st5" d="M578.675,658.481l4.893-4.893c1.502-1.502,3.938-1.502,5.44,0l57.554,57.554c1.502,1.502,1.502,3.938,0,5.44     l-4.893,4.893c-1.502,1.502-3.938,1.502-5.44,0l-57.554-57.554C577.173,662.419,577.173,659.983,578.675,658.481z"/>
			<path class="st5" d="M596.228,640.928l4.893-4.893c1.502-1.502,3.938-1.502,5.44,0l22.041,22.041c1.502,1.502,1.502,3.938,0,5.44     l-4.893,4.893c-1.502,1.502-3.938,1.502-5.44,0l-22.042-22.042C594.726,644.865,594.726,642.43,596.228,640.928z"/>
			<path class="st5" d="M613.782,623.374l4.893-4.893c1.502-1.502,3.938-1.502,5.44,0l22.041,22.042c1.502,1.502,1.502,3.938,0,5.44     l-4.893,4.893c-1.502,1.502-3.938,1.502-5.44,0l-22.042-22.041C612.28,627.312,612.28,624.876,613.782,623.374z"/>
		</g>
		<g>
			<path class="st5" d="M667.625,676.035l4.893-4.893c1.502-1.502,3.938-1.502,5.44,0l57.554,57.554c1.502,1.502,1.502,3.938,0,5.44     l-4.893,4.893c-1.502,1.502-3.938,1.502-5.44,0l-57.554-57.554C666.122,679.972,666.122,677.537,667.625,676.035z"/>
			<path class="st5" d="M685.178,658.481l4.893-4.893c1.502-1.502,3.938-1.502,5.44,0l57.554,57.554c1.502,1.502,1.502,3.938,0,5.44     l-4.893,4.893c-1.502,1.502-3.938,1.502-5.44,0l-57.554-57.554C683.676,662.419,683.676,659.983,685.178,658.481z"/>
			<path class="st5" d="M702.732,640.928l4.893-4.893c1.502-1.502,3.938-1.502,5.44,0l22.042,22.041c1.502,1.502,1.502,3.938,0,5.44     l-4.893,4.893c-1.502,1.502-3.938,1.502-5.44,0l-22.041-22.042C701.229,644.865,701.229,642.43,702.732,640.928z"/>
			<path class="st5" d="M720.285,623.374l4.893-4.893c1.502-1.502,3.938-1.502,5.44,0l22.042,22.042c1.502,1.502,1.502,3.938,0,5.44     l-4.893,4.893c-1.502,1.502-3.938,1.502-5.44,0l-22.042-22.041C718.783,627.312,718.783,624.876,720.285,623.374z"/>
		</g>
		<g>
			<path class="st5" d="M774.128,676.035l4.893-4.893c1.502-1.502,3.938-1.502,5.44,0l57.554,57.554c1.502,1.502,1.502,3.938,0,5.44     l-4.893,4.893c-1.502,1.502-3.938,1.502-5.44,0l-57.554-57.554C772.626,679.972,772.626,677.537,774.128,676.035z"/>
			<path class="st5" d="M791.681,658.481l4.893-4.893c1.502-1.502,3.938-1.502,5.44,0l57.554,57.554c1.502,1.502,1.502,3.938,0,5.44     l-4.893,4.893c-1.502,1.502-3.938,1.502-5.44,0l-57.554-57.554C790.179,662.419,790.179,659.983,791.681,658.481z"/>
			<path class="st5" d="M809.235,640.928l4.893-4.893c1.502-1.502,3.938-1.502,5.44,0l22.042,22.041c1.502,1.502,1.502,3.938,0,5.44     l-4.893,4.893c-1.502,1.502-3.938,1.502-5.44,0l-22.042-22.042C807.732,644.865,807.732,642.43,809.235,640.928z"/>
			<path class="st5" d="M826.788,623.374l4.893-4.893c1.502-1.502,3.938-1.502,5.44,0l22.042,22.042c1.502,1.502,1.502,3.938,0,5.44     l-4.893,4.893c-1.502,1.502-3.938,1.502-5.44,0l-22.041-22.041C825.286,627.312,825.286,624.876,826.788,623.374z"/>
		</g>
		<g>
			<path class="st5" d="M880.631,676.035l4.893-4.893c1.502-1.502,3.938-1.502,5.44,0l57.554,57.554c1.502,1.502,1.502,3.938,0,5.44     l-4.893,4.893c-1.502,1.502-3.938,1.502-5.44,0l-57.554-57.554C879.129,679.972,879.129,677.537,880.631,676.035z"/>
			<path class="st5" d="M898.184,658.481l4.893-4.893c1.502-1.502,3.938-1.502,5.44,0l57.554,57.554c1.502,1.502,1.502,3.938,0,5.44     l-4.893,4.893c-1.502,1.502-3.938,1.502-5.44,0l-57.554-57.554C896.682,662.419,896.682,659.983,898.184,658.481z"/>
			<path class="st5" d="M915.738,640.928l4.893-4.893c1.502-1.502,3.938-1.502,5.44,0l22.041,22.041c1.502,1.502,1.502,3.938,0,5.44     l-4.893,4.893c-1.502,1.502-3.938,1.502-5.44,0l-22.042-22.042C914.236,644.865,914.236,642.43,915.738,640.928z"/>
			<path class="st5" d="M933.291,623.374l4.893-4.893c1.502-1.502,3.938-1.502,5.44,0l22.041,22.042c1.502,1.502,1.502,3.938,0,5.44     l-4.893,4.893c-1.502,1.502-3.938,1.502-5.44,0l-22.042-22.041C931.789,627.312,931.789,624.876,933.291,623.374z"/>
		</g>
		<g>
			<path class="st5" d="M987.134,676.035l4.893-4.893c1.502-1.502,3.938-1.502,5.44,0l57.554,57.554c1.502,1.502,1.502,3.938,0,5.44     l-4.893,4.893c-1.502,1.502-3.938,1.502-5.44,0l-57.554-57.554C985.632,679.972,985.632,677.537,987.134,676.035z"/>
			<path class="st5" d="M1004.688,658.481l4.893-4.893c1.502-1.502,3.938-1.502,5.44,0l57.554,57.554     c1.502,1.502,1.502,3.938,0,5.44l-4.893,4.893c-1.502,1.502-3.938,1.502-5.44,0l-57.554-57.554     C1003.185,662.419,1003.185,659.983,1004.688,658.481z"/>
			<path class="st5" d="M1022.241,640.928l4.893-4.893c1.502-1.502,3.938-1.502,5.44,0l22.041,22.041     c1.502,1.502,1.502,3.938,0,5.44l-4.893,4.893c-1.502,1.502-3.938,1.502-5.44,0l-22.042-22.042     C1020.739,644.865,1020.739,642.43,1022.241,640.928z"/>
			<path class="st5" d="M1039.794,623.374l4.893-4.893c1.502-1.502,3.938-1.502,5.44,0l22.042,22.042     c1.502,1.502,1.502,3.938,0,5.44l-4.893,4.893c-1.502,1.502-3.938,1.502-5.44,0l-22.042-22.041     C1038.292,627.312,1038.292,624.876,1039.794,623.374z"/>
		</g>
		<g>
			<path class="st5" d="M1093.637,676.035l4.893-4.893c1.502-1.502,3.938-1.502,5.44,0l57.554,57.554     c1.502,1.502,1.502,3.938,0,5.44l-4.893,4.893c-1.502,1.502-3.938,1.502-5.44,0l-57.554-57.554     C1092.135,679.972,1092.135,677.537,1093.637,676.035z"/>
			<path class="st5" d="M1111.191,658.481l4.893-4.893c1.502-1.502,3.938-1.502,5.44,0l57.554,57.554     c1.502,1.502,1.502,3.938,0,5.44l-4.893,4.893c-1.502,1.502-3.938,1.502-5.44,0l-57.554-57.554     C1109.688,662.419,1109.688,659.983,1111.191,658.481z"/>
			<path class="st5" d="M1128.744,640.928l4.893-4.893c1.502-1.502,3.938-1.502,5.44,0l22.041,22.041     c1.502,1.502,1.502,3.938,0,5.44l-4.893,4.893c-1.502,1.502-3.938,1.502-5.44,0l-22.042-22.042     C1127.242,644.865,1127.242,642.43,1128.744,640.928z"/>
			<path class="st5" d="M1146.298,623.374l4.893-4.893c1.502-1.502,3.938-1.502,5.44,0l22.041,22.042     c1.502,1.502,1.502,3.938,0,5.44l-4.893,4.893c-1.502,1.502-3.938,1.502-5.44,0l-22.042-22.041     C1144.795,627.312,1144.795,624.876,1146.298,623.374z"/>
		</g>
		<g>
			<path class="st5" d="M1200.14,676.035l4.893-4.893c1.502-1.502,3.938-1.502,5.44,0l57.554,57.554c1.502,1.502,1.502,3.938,0,5.44     l-4.893,4.893c-1.502,1.502-3.938,1.502-5.44,0l-57.554-57.554C1198.638,679.972,1198.638,677.537,1200.14,676.035z"/>
			<path class="st5" d="M1217.694,658.481l4.893-4.893c1.502-1.502,3.938-1.502,5.44,0l57.554,57.554     c1.502,1.502,1.502,3.938,0,5.44l-4.893,4.893c-1.502,1.502-3.938,1.502-5.44,0l-57.554-57.554     C1216.192,662.419,1216.192,659.983,1217.694,658.481z"/>
			<path class="st5" d="M1235.247,640.928l4.893-4.893c1.502-1.502,3.938-1.502,5.44,0l22.042,22.041     c1.502,1.502,1.502,3.938,0,5.44l-4.893,4.893c-1.502,1.502-3.938,1.502-5.44,0l-22.041-22.042     C1233.745,644.865,1233.745,642.43,1235.247,640.928z"/>
			<path class="st5" d="M1252.801,623.374l4.893-4.893c1.502-1.502,3.938-1.502,5.44,0l22.042,22.042     c1.502,1.502,1.502,3.938,0,5.44l-4.893,4.893c-1.502,1.502-3.938,1.502-5.44,0l-22.042-22.041     C1251.299,627.312,1251.299,624.876,1252.801,623.374z"/>
		</g>
		<g>
			<path class="st5" d="M1306.643,676.035l4.893-4.893c1.502-1.502,3.938-1.502,5.44,0l57.554,57.554     c1.502,1.502,1.502,3.938,0,5.44l-4.893,4.893c-1.502,1.502-3.938,1.502-5.44,0l-57.554-57.554     C1305.141,679.972,1305.141,677.537,1306.643,676.035z"/>
			<path class="st5" d="M1324.197,658.481l4.893-4.893c1.502-1.502,3.938-1.502,5.44,0l57.554,57.554     c1.502,1.502,1.502,3.938,0,5.44l-4.893,4.893c-1.502,1.502-3.938,1.502-5.44,0l-57.554-57.554     C1322.695,662.419,1322.695,659.983,1324.197,658.481z"/>
			<path class="st5" d="M1341.75,640.928l4.893-4.893c1.502-1.502,3.938-1.502,5.44,0l22.042,22.041c1.502,1.502,1.502,3.938,0,5.44     l-4.893,4.893c-1.502,1.502-3.938,1.502-5.44,0l-22.041-22.042C1340.248,644.865,1340.248,642.43,1341.75,640.928z"/>
			<path class="st5" d="M1359.304,623.374l4.893-4.893c1.502-1.502,3.938-1.502,5.44,0l22.042,22.042     c1.502,1.502,1.502,3.938,0,5.44l-4.893,4.893c-1.502,1.502-3.938,1.502-5.44,0l-22.041-22.041     C1357.802,627.312,1357.802,624.876,1359.304,623.374z"/>
		</g>
	</g>
	<g>
		<g>
			<path class="st5" d="M1371.058,558.674l-57.554,57.554c-1.502,1.502-3.938,1.502-5.44,0l-4.893-4.893     c-1.502-1.502-1.502-3.938,0-5.44l57.554-57.554c1.502-1.502,3.938-1.502,5.44,0l4.893,4.893     C1372.56,554.736,1372.56,557.172,1371.058,558.674z"/>
			<path class="st5" d="M1353.505,541.12l-57.554,57.554c-1.502,1.502-3.938,1.502-5.44,0l-4.893-4.893     c-1.502-1.502-1.502-3.938,0-5.44l57.554-57.554c1.502-1.502,3.938-1.502,5.44,0l4.893,4.893     C1355.007,537.183,1355.007,539.618,1353.505,541.12z"/>
			<path class="st5" d="M1335.951,523.567l-22.042,22.042c-1.502,1.502-3.938,1.502-5.44,0l-4.893-4.893     c-1.502-1.502-1.502-3.938,0-5.44l22.042-22.041c1.502-1.502,3.938-1.502,5.44,0l4.893,4.893     C1337.453,519.629,1337.453,522.065,1335.951,523.567z"/>
			<path class="st5" d="M1318.398,506.013l-22.042,22.042c-1.502,1.502-3.938,1.502-5.44,0l-4.893-4.893     c-1.502-1.502-1.502-3.938,0-5.44l22.042-22.041c1.502-1.502,3.938-1.502,5.44,0l4.893,4.893     C1319.9,502.076,1319.9,504.511,1318.398,506.013z"/>
		</g>
		<g>
			<path class="st5" d="M1264.555,558.674l-57.554,57.554c-1.502,1.502-3.938,1.502-5.44,0l-4.893-4.893     c-1.502-1.502-1.502-3.938,0-5.44l57.554-57.554c1.502-1.502,3.938-1.502,5.44,0l4.893,4.893     C1266.057,554.736,1266.057,557.172,1264.555,558.674z"/>
			<path class="st5" d="M1247.001,541.12l-57.554,57.554c-1.502,1.502-3.938,1.502-5.44,0l-4.893-4.893     c-1.502-1.502-1.502-3.938,0-5.44l57.554-57.554c1.502-1.502,3.938-1.502,5.44,0l4.893,4.893     C1248.504,537.183,1248.504,539.618,1247.001,541.12z"/>
			<path class="st5" d="M1229.448,523.567l-22.042,22.042c-1.502,1.502-3.938,1.502-5.44,0l-4.893-4.893     c-1.502-1.502-1.502-3.938,0-5.44l22.041-22.041c1.502-1.502,3.938-1.502,5.44,0l4.893,4.893     C1230.95,519.629,1230.95,522.065,1229.448,523.567z"/>
			<path class="st5" d="M1211.894,506.013l-22.042,22.042c-1.502,1.502-3.938,1.502-5.44,0l-4.893-4.893     c-1.502-1.502-1.502-3.938,0-5.44l22.042-22.041c1.502-1.502,3.938-1.502,5.44,0l4.893,4.893     C1213.397,502.076,1213.397,504.511,1211.894,506.013z"/>
		</g>
		<g>
			<path class="st5" d="M1158.052,558.674l-57.554,57.554c-1.502,1.502-3.938,1.502-5.44,0l-4.893-4.893     c-1.502-1.502-1.502-3.938,0-5.44l57.554-57.554c1.502-1.502,3.938-1.502,5.44,0l4.893,4.893     C1159.554,554.736,1159.554,557.172,1158.052,558.674z"/>
			<path class="st5" d="M1140.498,541.12l-57.554,57.554c-1.502,1.502-3.938,1.502-5.44,0l-4.893-4.893     c-1.502-1.502-1.502-3.938,0-5.44l57.554-57.554c1.502-1.502,3.938-1.502,5.44,0l4.893,4.893     C1142,537.183,1142,539.618,1140.498,541.12z"/>
			<path class="st5" d="M1122.945,523.567l-22.042,22.042c-1.502,1.502-3.938,1.502-5.44,0l-4.893-4.893     c-1.502-1.502-1.502-3.938,0-5.44l22.041-22.041c1.502-1.502,3.938-1.502,5.44,0l4.893,4.893     C1124.447,519.629,1124.447,522.065,1122.945,523.567z"/>
			<path class="st5" d="M1105.391,506.013l-22.042,22.042c-1.502,1.502-3.938,1.502-5.44,0l-4.893-4.893     c-1.502-1.502-1.502-3.938,0-5.44l22.041-22.041c1.502-1.502,3.938-1.502,5.44,0l4.893,4.893     C1106.893,502.076,1106.893,504.511,1105.391,506.013z"/>
		</g>
		<g>
			<path class="st5" d="M1051.549,558.674l-57.554,57.554c-1.502,1.502-3.938,1.502-5.44,0l-4.893-4.893     c-1.502-1.502-1.502-3.938,0-5.44l57.554-57.554c1.502-1.502,3.938-1.502,5.44,0l4.893,4.893     C1053.051,554.736,1053.051,557.172,1051.549,558.674z"/>
			<path class="st5" d="M1033.995,541.12l-57.554,57.554c-1.502,1.502-3.938,1.502-5.44,0l-4.893-4.893     c-1.502-1.502-1.502-3.938,0-5.44l57.554-57.554c1.502-1.502,3.938-1.502,5.44,0l4.893,4.893     C1035.497,537.183,1035.497,539.618,1033.995,541.12z"/>
			<path class="st5" d="M1016.442,523.567L994.4,545.608c-1.502,1.502-3.938,1.502-5.44,0l-4.893-4.893     c-1.502-1.502-1.502-3.938,0-5.44l22.041-22.041c1.502-1.502,3.938-1.502,5.44,0l4.893,4.893     C1017.944,519.629,1017.944,522.065,1016.442,523.567z"/>
			<path class="st5" d="M998.888,506.013l-22.041,22.042c-1.502,1.502-3.938,1.502-5.44,0l-4.893-4.893     c-1.502-1.502-1.502-3.938,0-5.44l22.042-22.041c1.502-1.502,3.938-1.502,5.44,0l4.893,4.893     C1000.39,502.076,1000.39,504.511,998.888,506.013z"/>
		</g>
		<g>
			<path class="st5" d="M945.045,558.674l-57.554,57.554c-1.502,1.502-3.938,1.502-5.44,0l-4.893-4.893     c-1.502-1.502-1.502-3.938,0-5.44l57.554-57.554c1.502-1.502,3.938-1.502,5.44,0l4.893,4.893     C946.548,554.736,946.548,557.172,945.045,558.674z"/>
			<path class="st5" d="M927.492,541.12l-57.554,57.554c-1.502,1.502-3.938,1.502-5.44,0l-4.893-4.893     c-1.502-1.502-1.502-3.938,0-5.44l57.554-57.554c1.502-1.502,3.938-1.502,5.44,0l4.893,4.893     C928.994,537.183,928.994,539.618,927.492,541.12z"/>
			<path class="st5" d="M909.938,523.567l-22.042,22.042c-1.502,1.502-3.938,1.502-5.44,0l-4.893-4.893     c-1.502-1.502-1.502-3.938,0-5.44l22.042-22.041c1.502-1.502,3.938-1.502,5.44,0l4.893,4.893     C911.441,519.629,911.441,522.065,909.938,523.567z"/>
			<path class="st5" d="M892.385,506.013l-22.042,22.042c-1.502,1.502-3.938,1.502-5.44,0l-4.893-4.893     c-1.502-1.502-1.502-3.938,0-5.44l22.041-22.041c1.502-1.502,3.938-1.502,5.44,0l4.893,4.893     C893.887,502.076,893.887,504.511,892.385,506.013z"/>
		</g>
		<g>
			<path class="st5" d="M838.542,558.674l-57.554,57.554c-1.502,1.502-3.938,1.502-5.44,0l-4.893-4.893     c-1.502-1.502-1.502-3.938,0-5.44l57.554-57.554c1.502-1.502,3.938-1.502,5.44,0l4.893,4.893     C840.044,554.736,840.044,557.172,838.542,558.674z"/>
			<path class="st5" d="M820.989,541.12l-57.554,57.554c-1.502,1.502-3.938,1.502-5.44,0l-4.893-4.893     c-1.502-1.502-1.502-3.938,0-5.44l57.554-57.554c1.502-1.502,3.938-1.502,5.44,0l4.893,4.893     C822.491,537.183,822.491,539.618,820.989,541.12z"/>
			<path class="st5" d="M803.435,523.567l-22.041,22.042c-1.502,1.502-3.938,1.502-5.44,0l-4.893-4.893     c-1.502-1.502-1.502-3.938,0-5.44l22.042-22.041c1.502-1.502,3.938-1.502,5.44,0l4.893,4.893     C804.937,519.629,804.937,522.065,803.435,523.567z"/>
			<path class="st5" d="M785.882,506.013l-22.042,22.042c-1.502,1.502-3.938,1.502-5.44,0l-4.893-4.893     c-1.502-1.502-1.502-3.938,0-5.44l22.042-22.041c1.502-1.502,3.938-1.502,5.44,0l4.893,4.893     C787.384,502.076,787.384,504.511,785.882,506.013z"/>
		</g>
		<g>
			<path class="st5" d="M732.039,558.674l-57.554,57.554c-1.502,1.502-3.938,1.502-5.44,0l-4.893-4.893     c-1.502-1.502-1.502-3.938,0-5.44l57.554-57.554c1.502-1.502,3.938-1.502,5.44,0l4.893,4.893     C733.541,554.736,733.541,557.172,732.039,558.674z"/>
			<path class="st5" d="M714.486,541.12l-57.554,57.554c-1.502,1.502-3.938,1.502-5.44,0l-4.893-4.893     c-1.502-1.502-1.502-3.938,0-5.44l57.554-57.554c1.502-1.502,3.938-1.502,5.44,0l4.893,4.893     C715.988,537.183,715.988,539.618,714.486,541.12z"/>
			<path class="st5" d="M696.932,523.567l-22.042,22.042c-1.502,1.502-3.938,1.502-5.44,0l-4.893-4.893     c-1.502-1.502-1.502-3.938,0-5.44l22.041-22.041c1.502-1.502,3.938-1.502,5.44,0l4.893,4.893     C698.434,519.629,698.434,522.065,696.932,523.567z"/>
			<path class="st5" d="M679.379,506.013l-22.041,22.042c-1.502,1.502-3.938,1.502-5.44,0l-4.893-4.893     c-1.502-1.502-1.502-3.938,0-5.44l22.042-22.041c1.502-1.502,3.938-1.502,5.44,0l4.893,4.893     C680.881,502.076,680.881,504.511,679.379,506.013z"/>
		</g>
		<g>
			<path class="st5" d="M625.536,558.674l-57.554,57.554c-1.502,1.502-3.938,1.502-5.44,0l-4.893-4.893     c-1.502-1.502-1.502-3.938,0-5.44l57.554-57.554c1.502-1.502,3.938-1.502,5.44,0l4.893,4.893     C627.038,554.736,627.038,557.172,625.536,558.674z"/>
			<path class="st5" d="M607.982,541.12l-57.554,57.554c-1.502,1.502-3.938,1.502-5.44,0l-4.893-4.893     c-1.502-1.502-1.502-3.938,0-5.44l57.554-57.554c1.502-1.502,3.938-1.502,5.44,0l4.893,4.893     C609.485,537.183,609.485,539.618,607.982,541.12z"/>
			<path class="st5" d="M590.429,523.567l-22.042,22.042c-1.502,1.502-3.938,1.502-5.44,0l-4.893-4.893     c-1.502-1.502-1.502-3.938,0-5.44l22.041-22.041c1.502-1.502,3.938-1.502,5.44,0l4.893,4.893     C591.931,519.629,591.931,522.065,590.429,523.567z"/>
			<path class="st5" d="M572.875,506.013l-22.042,22.042c-1.502,1.502-3.938,1.502-5.44,0l-4.893-4.893     c-1.502-1.502-1.502-3.938,0-5.44l22.041-22.041c1.502-1.502,3.938-1.502,5.44,0l4.893,4.893     C574.378,502.076,574.378,504.511,572.875,506.013z"/>
		</g>
		<g>
			<path class="st5" d="M519.033,558.674l-57.554,57.554c-1.502,1.502-3.938,1.502-5.44,0l-4.893-4.893     c-1.502-1.502-1.502-3.938,0-5.44l57.554-57.554c1.502-1.502,3.938-1.502,5.44,0l4.893,4.893     C520.535,554.736,520.535,557.172,519.033,558.674z"/>
			<path class="st5" d="M501.479,541.12l-57.554,57.554c-1.502,1.502-3.938,1.502-5.44,0l-4.893-4.893     c-1.502-1.502-1.502-3.938,0-5.44l57.554-57.554c1.502-1.502,3.938-1.502,5.44,0l4.893,4.893     C502.981,537.183,502.981,539.618,501.479,541.12z"/>
			<path class="st5" d="M483.926,523.567l-22.041,22.042c-1.502,1.502-3.938,1.502-5.44,0l-4.893-4.893     c-1.502-1.502-1.502-3.938,0-5.44l22.041-22.041c1.502-1.502,3.938-1.502,5.44,0l4.893,4.893     C485.428,519.629,485.428,522.065,483.926,523.567z"/>
			<path class="st5" d="M466.372,506.013l-22.041,22.042c-1.502,1.502-3.938,1.502-5.44,0l-4.893-4.893     c-1.502-1.502-1.502-3.938,0-5.44l22.041-22.041c1.502-1.502,3.938-1.502,5.44,0l4.893,4.893     C467.874,502.076,467.874,504.511,466.372,506.013z"/>
		</g>
		<g>
			<path class="st5" d="M412.53,558.674l-57.554,57.554c-1.502,1.502-3.938,1.502-5.44,0l-4.893-4.893     c-1.502-1.502-1.502-3.938,0-5.44l57.554-57.554c1.502-1.502,3.938-1.502,5.44,0l4.893,4.893     C414.032,554.736,414.032,557.172,412.53,558.674z"/>
			<path class="st5" d="M394.976,541.12l-57.554,57.554c-1.502,1.502-3.938,1.502-5.44,0l-4.893-4.893     c-1.502-1.502-1.502-3.938,0-5.44l57.554-57.554c1.502-1.502,3.938-1.502,5.44,0l4.893,4.893     C396.478,537.183,396.478,539.618,394.976,541.12z"/>
			<path class="st5" d="M377.423,523.567l-22.041,22.042c-1.502,1.502-3.938,1.502-5.44,0l-4.893-4.893     c-1.502-1.502-1.502-3.938,0-5.44l22.041-22.041c1.502-1.502,3.938-1.502,5.44,0l4.893,4.893     C378.925,519.629,378.925,522.065,377.423,523.567z"/>
			<path class="st5" d="M359.869,506.013l-22.042,22.042c-1.502,1.502-3.938,1.502-5.44,0l-4.893-4.893     c-1.502-1.502-1.502-3.938,0-5.44l22.042-22.041c1.502-1.502,3.938-1.502,5.44,0l4.893,4.893     C361.371,502.076,361.371,504.511,359.869,506.013z"/>
		</g>
		<g>
			<path class="st5" d="M306.026,558.674l-57.554,57.554c-1.502,1.502-3.938,1.502-5.44,0l-4.893-4.893     c-1.502-1.502-1.502-3.938,0-5.44l57.554-57.554c1.502-1.502,3.938-1.502,5.44,0l4.893,4.893     C307.529,554.736,307.529,557.172,306.026,558.674z"/>
			<path class="st5" d="M288.473,541.12l-57.554,57.554c-1.502,1.502-3.938,1.502-5.44,0l-4.893-4.893     c-1.502-1.502-1.502-3.938,0-5.44l57.554-57.554c1.502-1.502,3.938-1.502,5.44,0l4.893,4.893     C289.975,537.183,289.975,539.618,288.473,541.12z"/>
			<path class="st5" d="M270.919,523.567l-22.041,22.042c-1.502,1.502-3.938,1.502-5.44,0l-4.893-4.893     c-1.502-1.502-1.502-3.938,0-5.44l22.041-22.041c1.502-1.502,3.938-1.502,5.44,0l4.893,4.893     C272.422,519.629,272.422,522.065,270.919,523.567z"/>
			<path class="st5" d="M253.366,506.013l-22.041,22.042c-1.502,1.502-3.938,1.502-5.44,0l-4.893-4.893     c-1.502-1.502-1.502-3.938,0-5.44l22.041-22.041c1.502-1.502,3.938-1.502,5.44,0l4.893,4.893     C254.868,502.076,254.868,504.511,253.366,506.013z"/>
		</g>
		<g>
			<path class="st5" d="M199.523,558.674l-57.554,57.554c-1.502,1.502-3.938,1.502-5.44,0l-4.893-4.893     c-1.502-1.502-1.502-3.938,0-5.44l57.554-57.554c1.502-1.502,3.938-1.502,5.44,0l4.893,4.893     C201.025,554.736,201.025,557.172,199.523,558.674z"/>
			<path class="st5" d="M181.97,541.12l-57.554,57.554c-1.502,1.502-3.938,1.502-5.44,0l-4.893-4.893     c-1.502-1.502-1.502-3.938,0-5.44l57.554-57.554c1.502-1.502,3.938-1.502,5.44,0l4.893,4.893     C183.472,537.183,183.472,539.618,181.97,541.12z"/>
			<path class="st5" d="M164.416,523.567l-22.041,22.042c-1.502,1.502-3.938,1.502-5.44,0l-4.893-4.893     c-1.502-1.502-1.502-3.938,0-5.44l22.041-22.041c1.502-1.502,3.938-1.502,5.44,0l4.893,4.893     C165.918,519.629,165.918,522.065,164.416,523.567z"/>
			<path class="st5" d="M146.863,506.013l-22.041,22.042c-1.502,1.502-3.938,1.502-5.44,0l-4.893-4.893     c-1.502-1.502-1.502-3.938,0-5.44l22.041-22.041c1.502-1.502,3.938-1.502,5.44,0l4.893,4.893     C148.365,502.076,148.365,504.511,146.863,506.013z"/>
		</g>
		<g>
			<path class="st5" d="M96.087,558.674l-57.554,57.554c-1.502,1.502-3.938,1.502-5.44,0l-4.893-4.893     c-1.502-1.502-1.502-3.938,0-5.44l57.554-57.554c1.502-1.502,3.938-1.502,5.44,0l4.893,4.893     C97.589,554.736,97.589,557.172,96.087,558.674z"/>
			<path class="st5" d="M78.534,541.12L20.98,598.674c-1.502,1.502-3.938,1.502-5.44,0l-4.893-4.893     c-1.502-1.502-1.502-3.938,0-5.44l57.554-57.554c1.502-1.502,3.938-1.502,5.44,0l4.893,4.893     C80.036,537.183,80.036,539.618,78.534,541.12z"/>
			<path class="st5" d="M60.98,523.567l-22.041,22.042c-1.502,1.502-3.938,1.502-5.44,0l-4.893-4.893     c-1.502-1.502-1.502-3.938,0-5.44l22.041-22.041c1.502-1.502,3.938-1.502,5.44,0l4.893,4.893     C62.482,519.629,62.482,522.065,60.98,523.567z"/>
			<path class="st5" d="M43.427,506.013l-22.041,22.042c-1.502,1.502-3.938,1.502-5.44,0l-4.893-4.893     c-1.502-1.502-1.502-3.938,0-5.44l22.041-22.041c1.502-1.502,3.938-1.502,5.44,0l4.893,4.893     C44.929,502.076,44.929,504.511,43.427,506.013z"/>
		</g>
	</g>
	<g>
		<g>
			<path class="st5" d="M28.606,435.318l4.893-4.893c1.502-1.502,3.938-1.502,5.44,0l57.554,57.554c1.502,1.502,1.502,3.938,0,5.44     l-4.893,4.893c-1.502,1.502-3.938,1.502-5.44,0l-57.554-57.554C27.103,439.256,27.103,436.821,28.606,435.318z"/>
			<path class="st5" d="M46.159,417.765l4.893-4.893c1.502-1.502,3.938-1.502,5.44,0l57.554,57.554c1.502,1.502,1.502,3.938,0,5.44     l-4.893,4.893c-1.502,1.502-3.938,1.502-5.44,0l-57.554-57.554C44.657,421.703,44.657,419.267,46.159,417.765z"/>
			<path class="st5" d="M63.713,400.211l4.893-4.893c1.502-1.502,3.938-1.502,5.44,0l22.041,22.041c1.502,1.502,1.502,3.938,0,5.44     l-4.893,4.893c-1.502,1.502-3.938,1.502-5.44,0l-22.041-22.041C62.21,404.149,62.21,401.714,63.713,400.211z"/>
			<path class="st5" d="M81.266,382.658l4.893-4.893c1.502-1.502,3.938-1.502,5.44,0l22.041,22.041c1.502,1.502,1.502,3.938,0,5.44     l-4.893,4.893c-1.502,1.502-3.938,1.502-5.44,0l-22.041-22.041C79.764,386.596,79.764,384.16,81.266,382.658z"/>
		</g>
		<g>
			<path class="st5" d="M135.109,435.318l4.893-4.893c1.502-1.502,3.938-1.502,5.44,0l57.554,57.554c1.502,1.502,1.502,3.938,0,5.44     l-4.893,4.893c-1.502,1.502-3.938,1.502-5.44,0l-57.554-57.554C133.607,439.256,133.607,436.821,135.109,435.318z"/>
			<path class="st5" d="M152.662,417.765l4.893-4.893c1.502-1.502,3.938-1.502,5.44,0l57.554,57.554c1.502,1.502,1.502,3.938,0,5.44     l-4.893,4.893c-1.502,1.502-3.938,1.502-5.44,0l-57.554-57.554C151.16,421.703,151.16,419.267,152.662,417.765z"/>
			<path class="st5" d="M170.216,400.211l4.893-4.893c1.502-1.502,3.938-1.502,5.44,0l22.041,22.041c1.502,1.502,1.502,3.938,0,5.44     l-4.893,4.893c-1.502,1.502-3.938,1.502-5.44,0l-22.041-22.041C168.714,404.149,168.714,401.714,170.216,400.211z"/>
			<path class="st5" d="M187.769,382.658l4.893-4.893c1.502-1.502,3.938-1.502,5.44,0l22.041,22.041c1.502,1.502,1.502,3.938,0,5.44     l-4.893,4.893c-1.502,1.502-3.938,1.502-5.44,0l-22.041-22.041C186.267,386.596,186.267,384.16,187.769,382.658z"/>
		</g>
		<g>
			<path class="st5" d="M241.612,435.318l4.893-4.893c1.502-1.502,3.938-1.502,5.44,0l57.554,57.554c1.502,1.502,1.502,3.938,0,5.44     l-4.893,4.893c-1.502,1.502-3.938,1.502-5.44,0l-57.554-57.554C240.11,439.256,240.11,436.821,241.612,435.318z"/>
			<path class="st5" d="M259.165,417.765l4.893-4.893c1.502-1.502,3.938-1.502,5.44,0l57.554,57.554c1.502,1.502,1.502,3.938,0,5.44     l-4.893,4.893c-1.502,1.502-3.938,1.502-5.44,0l-57.554-57.554C257.663,421.703,257.663,419.267,259.165,417.765z"/>
			<path class="st5" d="M276.719,400.211l4.893-4.893c1.502-1.502,3.938-1.502,5.44,0l22.041,22.041c1.502,1.502,1.502,3.938,0,5.44     l-4.893,4.893c-1.502,1.502-3.938,1.502-5.44,0l-22.041-22.041C275.217,404.149,275.217,401.714,276.719,400.211z"/>
			<path class="st5" d="M294.272,382.658l4.893-4.893c1.502-1.502,3.938-1.502,5.44,0l22.041,22.041c1.502,1.502,1.502,3.938,0,5.44     l-4.893,4.893c-1.502,1.502-3.938,1.502-5.44,0l-22.042-22.041C292.77,386.596,292.77,384.16,294.272,382.658z"/>
		</g>
		<g>
			<path class="st5" d="M348.115,435.318l4.893-4.893c1.502-1.502,3.938-1.502,5.44,0l57.554,57.554c1.502,1.502,1.502,3.938,0,5.44     l-4.893,4.893c-1.502,1.502-3.938,1.502-5.44,0l-57.554-57.554C346.613,439.256,346.613,436.821,348.115,435.318z"/>
			<path class="st5" d="M365.669,417.765l4.893-4.893c1.502-1.502,3.938-1.502,5.44,0l57.554,57.554c1.502,1.502,1.502,3.938,0,5.44     l-4.893,4.893c-1.502,1.502-3.938,1.502-5.44,0l-57.554-57.554C364.166,421.703,364.166,419.267,365.669,417.765z"/>
			<path class="st5" d="M383.222,400.211l4.893-4.893c1.502-1.502,3.938-1.502,5.44,0l22.041,22.041c1.502,1.502,1.502,3.938,0,5.44     l-4.893,4.893c-1.502,1.502-3.938,1.502-5.44,0l-22.042-22.041C381.72,404.149,381.72,401.714,383.222,400.211z"/>
			<path class="st5" d="M400.776,382.658l4.893-4.893c1.502-1.502,3.938-1.502,5.44,0l22.041,22.041c1.502,1.502,1.502,3.938,0,5.44     l-4.893,4.893c-1.502,1.502-3.938,1.502-5.44,0l-22.041-22.041C399.273,386.596,399.273,384.16,400.776,382.658z"/>
		</g>
		<g>
			<path class="st5" d="M454.618,435.318l4.893-4.893c1.502-1.502,3.938-1.502,5.44,0l57.554,57.554c1.502,1.502,1.502,3.938,0,5.44     l-4.893,4.893c-1.502,1.502-3.938,1.502-5.44,0l-57.554-57.554C453.116,439.256,453.116,436.821,454.618,435.318z"/>
			<path class="st5" d="M472.172,417.765l4.893-4.893c1.502-1.502,3.938-1.502,5.44,0l57.554,57.554c1.502,1.502,1.502,3.938,0,5.44     l-4.893,4.893c-1.502,1.502-3.938,1.502-5.44,0l-57.554-57.554C470.67,421.703,470.67,419.267,472.172,417.765z"/>
			<path class="st5" d="M489.725,400.211l4.893-4.893c1.502-1.502,3.938-1.502,5.44,0L522.1,417.36c1.502,1.502,1.502,3.938,0,5.44     l-4.893,4.893c-1.502,1.502-3.938,1.502-5.44,0l-22.041-22.041C488.223,404.149,488.223,401.714,489.725,400.211z"/>
			<path class="st5" d="M507.279,382.658l4.893-4.893c1.502-1.502,3.938-1.502,5.44,0l22.042,22.041c1.502,1.502,1.502,3.938,0,5.44     l-4.893,4.893c-1.502,1.502-3.938,1.502-5.44,0l-22.041-22.041C505.777,386.596,505.777,384.16,507.279,382.658z"/>
		</g>
		<g>
			<path class="st5" d="M561.121,435.318l4.893-4.893c1.502-1.502,3.938-1.502,5.44,0l57.554,57.554c1.502,1.502,1.502,3.938,0,5.44     l-4.893,4.893c-1.502,1.502-3.938,1.502-5.44,0l-57.554-57.554C559.619,439.256,559.619,436.821,561.121,435.318z"/>
			<path class="st5" d="M578.675,417.765l4.893-4.893c1.502-1.502,3.938-1.502,5.44,0l57.554,57.554c1.502,1.502,1.502,3.938,0,5.44     l-4.893,4.893c-1.502,1.502-3.938,1.502-5.44,0l-57.554-57.554C577.173,421.703,577.173,419.267,578.675,417.765z"/>
			<path class="st5" d="M596.228,400.211l4.893-4.893c1.502-1.502,3.938-1.502,5.44,0l22.041,22.041c1.502,1.502,1.502,3.938,0,5.44     l-4.893,4.893c-1.502,1.502-3.938,1.502-5.44,0l-22.042-22.041C594.726,404.149,594.726,401.714,596.228,400.211z"/>
			<path class="st5" d="M613.782,382.658l4.893-4.893c1.502-1.502,3.938-1.502,5.44,0l22.041,22.041c1.502,1.502,1.502,3.938,0,5.44     l-4.893,4.893c-1.502,1.502-3.938,1.502-5.44,0l-22.042-22.041C612.28,386.596,612.28,384.16,613.782,382.658z"/>
		</g>
		<g>
			<path class="st5" d="M667.625,435.318l4.893-4.893c1.502-1.502,3.938-1.502,5.44,0l57.554,57.554c1.502,1.502,1.502,3.938,0,5.44     l-4.893,4.893c-1.502,1.502-3.938,1.502-5.44,0l-57.554-57.554C666.122,439.256,666.122,436.821,667.625,435.318z"/>
			<path class="st5" d="M685.178,417.765l4.893-4.893c1.502-1.502,3.938-1.502,5.44,0l57.554,57.554c1.502,1.502,1.502,3.938,0,5.44     l-4.893,4.893c-1.502,1.502-3.938,1.502-5.44,0l-57.554-57.554C683.676,421.703,683.676,419.267,685.178,417.765z"/>
			<path class="st5" d="M702.732,400.211l4.893-4.893c1.502-1.502,3.938-1.502,5.44,0l22.042,22.041c1.502,1.502,1.502,3.938,0,5.44     l-4.893,4.893c-1.502,1.502-3.938,1.502-5.44,0l-22.041-22.041C701.229,404.149,701.229,401.714,702.732,400.211z"/>
			<path class="st5" d="M720.285,382.658l4.893-4.893c1.502-1.502,3.938-1.502,5.44,0l22.042,22.041c1.502,1.502,1.502,3.938,0,5.44     l-4.893,4.893c-1.502,1.502-3.938,1.502-5.44,0l-22.042-22.041C718.783,386.596,718.783,384.16,720.285,382.658z"/>
		</g>
		<g>
			<path class="st5" d="M774.128,435.318l4.893-4.893c1.502-1.502,3.938-1.502,5.44,0l57.554,57.554c1.502,1.502,1.502,3.938,0,5.44     l-4.893,4.893c-1.502,1.502-3.938,1.502-5.44,0l-57.554-57.554C772.626,439.256,772.626,436.821,774.128,435.318z"/>
			<path class="st5" d="M791.681,417.765l4.893-4.893c1.502-1.502,3.938-1.502,5.44,0l57.554,57.554c1.502,1.502,1.502,3.938,0,5.44     l-4.893,4.893c-1.502,1.502-3.938,1.502-5.44,0l-57.554-57.554C790.179,421.703,790.179,419.267,791.681,417.765z"/>
			<path class="st5" d="M809.235,400.211l4.893-4.893c1.502-1.502,3.938-1.502,5.44,0l22.042,22.041c1.502,1.502,1.502,3.938,0,5.44     l-4.893,4.893c-1.502,1.502-3.938,1.502-5.44,0l-22.042-22.041C807.732,404.149,807.732,401.714,809.235,400.211z"/>
			<path class="st5" d="M826.788,382.658l4.893-4.893c1.502-1.502,3.938-1.502,5.44,0l22.042,22.041c1.502,1.502,1.502,3.938,0,5.44     l-4.893,4.893c-1.502,1.502-3.938,1.502-5.44,0l-22.041-22.041C825.286,386.596,825.286,384.16,826.788,382.658z"/>
		</g>
		<g>
			<path class="st5" d="M880.631,435.318l4.893-4.893c1.502-1.502,3.938-1.502,5.44,0l57.554,57.554c1.502,1.502,1.502,3.938,0,5.44     l-4.893,4.893c-1.502,1.502-3.938,1.502-5.44,0l-57.554-57.554C879.129,439.256,879.129,436.821,880.631,435.318z"/>
			<path class="st5" d="M898.184,417.765l4.893-4.893c1.502-1.502,3.938-1.502,5.44,0l57.554,57.554c1.502,1.502,1.502,3.938,0,5.44     l-4.893,4.893c-1.502,1.502-3.938,1.502-5.44,0l-57.554-57.554C896.682,421.703,896.682,419.267,898.184,417.765z"/>
			<path class="st5" d="M915.738,400.211l4.893-4.893c1.502-1.502,3.938-1.502,5.44,0l22.041,22.041c1.502,1.502,1.502,3.938,0,5.44     l-4.893,4.893c-1.502,1.502-3.938,1.502-5.44,0l-22.042-22.041C914.236,404.149,914.236,401.714,915.738,400.211z"/>
			<path class="st5" d="M933.291,382.658l4.893-4.893c1.502-1.502,3.938-1.502,5.44,0l22.041,22.041c1.502,1.502,1.502,3.938,0,5.44     l-4.893,4.893c-1.502,1.502-3.938,1.502-5.44,0l-22.042-22.041C931.789,386.596,931.789,384.16,933.291,382.658z"/>
		</g>
		<g>
			<path class="st5" d="M987.134,435.318l4.893-4.893c1.502-1.502,3.938-1.502,5.44,0l57.554,57.554c1.502,1.502,1.502,3.938,0,5.44     l-4.893,4.893c-1.502,1.502-3.938,1.502-5.44,0l-57.554-57.554C985.632,439.256,985.632,436.821,987.134,435.318z"/>
			<path class="st5" d="M1004.688,417.765l4.893-4.893c1.502-1.502,3.938-1.502,5.44,0l57.554,57.554     c1.502,1.502,1.502,3.938,0,5.44l-4.893,4.893c-1.502,1.502-3.938,1.502-5.44,0l-57.554-57.554     C1003.185,421.703,1003.185,419.267,1004.688,417.765z"/>
			<path class="st5" d="M1022.241,400.211l4.893-4.893c1.502-1.502,3.938-1.502,5.44,0l22.041,22.041     c1.502,1.502,1.502,3.938,0,5.44l-4.893,4.893c-1.502,1.502-3.938,1.502-5.44,0l-22.042-22.041     C1020.739,404.149,1020.739,401.714,1022.241,400.211z"/>
			<path class="st5" d="M1039.794,382.658l4.893-4.893c1.502-1.502,3.938-1.502,5.44,0l22.042,22.041     c1.502,1.502,1.502,3.938,0,5.44l-4.893,4.893c-1.502,1.502-3.938,1.502-5.44,0l-22.042-22.041     C1038.292,386.596,1038.292,384.16,1039.794,382.658z"/>
		</g>
		<g>
			<path class="st5" d="M1093.637,435.318l4.893-4.893c1.502-1.502,3.938-1.502,5.44,0l57.554,57.554     c1.502,1.502,1.502,3.938,0,5.44l-4.893,4.893c-1.502,1.502-3.938,1.502-5.44,0l-57.554-57.554     C1092.135,439.256,1092.135,436.821,1093.637,435.318z"/>
			<path class="st5" d="M1111.191,417.765l4.893-4.893c1.502-1.502,3.938-1.502,5.44,0l57.554,57.554     c1.502,1.502,1.502,3.938,0,5.44l-4.893,4.893c-1.502,1.502-3.938,1.502-5.44,0l-57.554-57.554     C1109.688,421.703,1109.688,419.267,1111.191,417.765z"/>
			<path class="st5" d="M1128.744,400.211l4.893-4.893c1.502-1.502,3.938-1.502,5.44,0l22.041,22.041     c1.502,1.502,1.502,3.938,0,5.44l-4.893,4.893c-1.502,1.502-3.938,1.502-5.44,0l-22.042-22.041     C1127.242,404.149,1127.242,401.714,1128.744,400.211z"/>
			<path class="st5" d="M1146.298,382.658l4.893-4.893c1.502-1.502,3.938-1.502,5.44,0l22.041,22.041     c1.502,1.502,1.502,3.938,0,5.44l-4.893,4.893c-1.502,1.502-3.938,1.502-5.44,0l-22.042-22.041     C1144.795,386.596,1144.795,384.16,1146.298,382.658z"/>
		</g>
		<g>
			<path class="st5" d="M1200.14,435.318l4.893-4.893c1.502-1.502,3.938-1.502,5.44,0l57.554,57.554c1.502,1.502,1.502,3.938,0,5.44     l-4.893,4.893c-1.502,1.502-3.938,1.502-5.44,0l-57.554-57.554C1198.638,439.256,1198.638,436.821,1200.14,435.318z"/>
			<path class="st5" d="M1217.694,417.765l4.893-4.893c1.502-1.502,3.938-1.502,5.44,0l57.554,57.554     c1.502,1.502,1.502,3.938,0,5.44l-4.893,4.893c-1.502,1.502-3.938,1.502-5.44,0l-57.554-57.554     C1216.192,421.703,1216.192,419.267,1217.694,417.765z"/>
			<path class="st5" d="M1235.247,400.211l4.893-4.893c1.502-1.502,3.938-1.502,5.44,0l22.042,22.041     c1.502,1.502,1.502,3.938,0,5.44l-4.893,4.893c-1.502,1.502-3.938,1.502-5.44,0l-22.041-22.041     C1233.745,404.149,1233.745,401.714,1235.247,400.211z"/>
			<path class="st5" d="M1252.801,382.658l4.893-4.893c1.502-1.502,3.938-1.502,5.44,0l22.042,22.041     c1.502,1.502,1.502,3.938,0,5.44l-4.893,4.893c-1.502,1.502-3.938,1.502-5.44,0l-22.042-22.041     C1251.299,386.596,1251.299,384.16,1252.801,382.658z"/>
		</g>
		<g>
			<path class="st5" d="M1306.643,435.318l4.893-4.893c1.502-1.502,3.938-1.502,5.44,0l57.554,57.554     c1.502,1.502,1.502,3.938,0,5.44l-4.893,4.893c-1.502,1.502-3.938,1.502-5.44,0l-57.554-57.554     C1305.141,439.256,1305.141,436.821,1306.643,435.318z"/>
			<path class="st5" d="M1324.197,417.765l4.893-4.893c1.502-1.502,3.938-1.502,5.44,0l57.554,57.554     c1.502,1.502,1.502,3.938,0,5.44l-4.893,4.893c-1.502,1.502-3.938,1.502-5.44,0l-57.554-57.554     C1322.695,421.703,1322.695,419.267,1324.197,417.765z"/>
			<path class="st5" d="M1341.75,400.211l4.893-4.893c1.502-1.502,3.938-1.502,5.44,0l22.042,22.041c1.502,1.502,1.502,3.938,0,5.44     l-4.893,4.893c-1.502,1.502-3.938,1.502-5.44,0l-22.041-22.041C1340.248,404.149,1340.248,401.714,1341.75,400.211z"/>
			<path class="st5" d="M1359.304,382.658l4.893-4.893c1.502-1.502,3.938-1.502,5.44,0l22.042,22.041     c1.502,1.502,1.502,3.938,0,5.44l-4.893,4.893c-1.502,1.502-3.938,1.502-5.44,0l-22.041-22.041     C1357.802,386.596,1357.802,384.16,1359.304,382.658z"/>
		</g>
	</g>
</g>
</svg>